<?xml version="1.0" encoding="utf-8"?>
<!-- Generator: Adobe Illustrator 16.0.0, SVG Export Plug-In . SVG Version: 6.00 Build 0)  -->
<!DOCTYPE svg PUBLIC "-//W3C//DTD SVG 1.1//EN" "http://www.w3.org/Graphics/SVG/1.1/DTD/svg11.dtd">
<svg version="1.1" id="Layer_1" xmlns="http://www.w3.org/2000/svg" xmlns:xlink="http://www.w3.org/1999/xlink" x="0px" y="0px"
	 width="100px" height="100px" viewBox="0 0 100 100" enable-background="new 0 0 100 100" xml:space="preserve">
<g>
	<g>
		<polygon points="18.857,39.553 12.556,47.092 14.127,50.209 20.427,42.67 		"/>
		<polygon points="16.729,35.331 10.429,42.871 12,45.987 18.3,38.447 		"/>
		<polygon points="14.603,31.109 8.302,38.648 9.872,41.766 16.172,34.225 		"/>
		<polygon points="20.984,43.775 14.684,51.313 16.254,54.43 22.554,46.891 		"/>
		<polygon points="23.11,47.996 16.811,55.535 18.381,58.651 24.682,51.113 		"/>
		<polygon points="3.359,19.31 2.5,34.729 16.264,27.795 		"/>
		<path d="M20.368,58.26l1.801-0.907c0.646,1.544,2.116,3.962,5.343,5.441c4.092,1.876,3.822,6.779,3.81,6.986l1.462,0.099
			c0.017-0.248,0.363-6.116-4.661-8.417c-2.887-1.324-4.125-3.486-4.637-4.771l3.197-1.608l-1.442-2.862l-5.18,6.195l-1.433,0.724
			l17.398,34.536l1.743-0.881L20.368,58.26z"/>
		<polygon points="6.646,33.862 6.174,34.426 7.745,37.543 13.857,30.229 		"/>
	</g>
	<g>
		<path d="M43.392,26.348c5.235,2.597,11.569,0.461,14.168-4.767c2.588-5.22,0.456-11.559-4.771-14.156
			c-5.233-2.589-11.563-0.454-14.154,4.765C36.031,17.425,38.168,23.755,43.392,26.348z"/>
		<path d="M81.779,80.726l-0.454-19.337c0-0.004,0.002-0.01,0.002-0.016c0.004-0.251,0.007-1.109-0.062-2.412l-2.834,8.04
			l-8.978-2.651l3.81-17.25l-7.069-10.07l8.602,9.725l-3.979,16.849l6.867,2.03l6.402-18.799c0.449-1.519,0.06-3.161-1.021-4.317
			L69.699,27.516l-0.092,0.085c-3.158-2.875-7.968-3.164-11.447-0.445c-1.544,1.208-2.553,2.835-3.051,4.595l-5.892,18.211
			l-14.863,9.03l3.7,6.648l17.025-8.716c0.977-0.544,1.718-1.435,2.068-2.495l2.823-8.7c0.483,1.097,0.971,2.307,1.423,3.665
			c1.326,3.97,1.799,7.62,1.961,9.751l-11.521,1.23c-2.908,0.31-5.084,2.808-4.989,5.729l2.019,26.735h8.81l0.497-21.909
			l11.526-1.229c0.228,0.071,0.446,0.171,0.683,0.224l0.441,16.515c0.114,2.962,2.526,5.32,5.492,5.364L97.5,90.828v-8.542
			L81.779,80.726z"/>
	</g>
</g>
</svg>
