<?xml version="1.0" encoding="utf-8"?>
<!-- Generator: Adobe Illustrator 16.0.0, SVG Export Plug-In . SVG Version: 6.00 Build 0)  -->
<!DOCTYPE svg PUBLIC "-//W3C//DTD SVG 1.1//EN" "http://www.w3.org/Graphics/SVG/1.1/DTD/svg11.dtd">
<svg version="1.1" id="Layer_1" xmlns="http://www.w3.org/2000/svg" xmlns:xlink="http://www.w3.org/1999/xlink" x="0px" y="0px"
	 width="100px" height="100px" viewBox="0 0 100 100" enable-background="new 0 0 100 100" xml:space="preserve">
<g>
	<path d="M81.201,93.575l-1.264-0.96c-1.472-0.984-8.244-6.508-14.992-13.275c-0.133-0.129-0.301-0.212-0.479-0.234
		c-3.773-0.463-7.354-1.875-10.359-4.076c-0.254-0.184-0.609-0.209-0.887-0.051c-2.711,1.525-5.714,2.301-8.919,2.301
		c-5.094,0-9.934-2.1-13.274-5.758c-0.243-0.271-0.661-0.348-0.977-0.181c-2.592,1.334-5.644,2.691-8.636,2.691
		c-4.791,0-7.746-0.841-11.567-5.621c-0.089-0.109-0.13-0.234-0.157-0.343C0.753,65.273,0,59.534,0,53.895
		c0-2.074,0.435-4.19,1.259-6.123c0.086-0.206,0.086-0.439-0.001-0.643C0.435,45.196,0,43.078,0,41.002
		c0-6.992,4.691-13.226,11.675-15.51c0.256-0.083,0.454-0.288,0.529-0.544c2.099-7.037,9.012-11.952,16.812-11.952
		c0.727,0,1.465,0.044,2.196,0.13c0.331-0.001,0.573-0.104,0.73-0.293c3.295-4.014,8.466-6.409,13.834-6.409
		c4.676,0,9.058,1.708,12.341,4.81c0.215,0.204,0.531,0.273,0.818,0.182c2.66-0.875,5.459-1.318,8.305-1.318
		c11.83,0,21.938,7.537,24.576,18.327c0.051,0.21,0.179,0.386,0.36,0.501C97.074,31.98,100,37.103,100,42.629
		c0,3.895-1.482,7.681-4.174,10.655c-0.186,0.207-0.258,0.487-0.186,0.756c0.327,1.278,0.498,2.591,0.498,3.912
		c0,5.925-3.414,11.417-8.912,14.329c-0.144,0.076-0.261,0.189-0.334,0.328c-1.273,2.308-3.33,4.199-5.789,5.342
		c-0.301,0.137-0.488,0.441-0.475,0.771L81.201,93.575z M53.625,73.779c0.407,0,0.798,0.127,1.126,0.369
		c2.858,2.091,6.263,3.434,9.849,3.871c0.416,0.053,0.812,0.246,1.116,0.545c6.113,6.137,12.218,11.215,14.308,12.768L79.541,78.76
		c-0.029-0.773,0.402-1.479,1.105-1.802c2.252-1.043,4.131-2.776,5.291-4.876c0.177-0.327,0.444-0.591,0.774-0.768
		c5.138-2.725,8.332-7.851,8.332-13.369c0-1.228-0.155-2.447-0.464-3.637c-0.16-0.621,0-1.276,0.434-1.756
		c2.508-2.778,3.894-6.305,3.894-9.929c0-5.148-2.731-9.924-7.31-12.777c-0.427-0.268-0.729-0.68-0.843-1.167
		c-2.521-10.301-12.188-17.496-23.516-17.496c-2.732,0-5.409,0.424-7.966,1.265c-0.657,0.218-1.406,0.05-1.905-0.424
		c-3.082-2.911-7.198-4.513-11.593-4.513c-5.043,0-9.901,2.247-12.992,6.011c-0.415,0.503-1.057,0.764-1.706,0.682
		c-0.684-0.08-1.381-0.121-2.063-0.121c-7.32,0-13.804,4.591-15.765,11.171c-0.179,0.599-0.639,1.074-1.237,1.27
		C5.48,28.664,1.091,34.481,1.091,40.999c0,1.932,0.404,3.9,1.17,5.7c0.204,0.474,0.204,1.02,0.001,1.496
		c-0.768,1.801-1.171,3.771-1.171,5.698c0,5.504,0.7,10.651,9.159,13.2c0.387,0.116,0.464,0.501,0.495,0.666
		c3.52,4.429,6.142,5.179,10.67,5.179c2.76,0,5.66-1.299,8.134-2.568c0.733-0.383,1.724-0.203,2.284,0.417
		c3.134,3.433,7.679,5.401,12.467,5.401c3.017,0,5.836-0.729,8.384-2.164C52.977,73.865,53.295,73.779,53.625,73.779z
		 M78.009,87.266l-1.075-1.285c-1.269-1.525-3.133-3.119-4.933-4.662c-1.056-0.898-2.051-1.754-2.931-2.59l-0.418-0.393
		c-0.641-0.615-1.361-1.298-2.184-2.089l-0.281-0.271l-0.396-0.031c-2.816-0.211-5.596-1.059-8.037-2.459
		c-0.029-0.016-2.206-1.315-3.158-2.31c-2.695,1.777-7.183,2.825-10.163,2.825c-5.2,0-9.542-1.911-11.911-5.247
		c-0.064-0.071-0.29-0.271-0.559-0.512c-0.577-0.517-0.943-0.854-1.177-1.104l-2.057,1.032c-0.724,0.362-1.315,0.694-1.849,0.994
		c-1.4,0.784-2.412,1.353-4.165,1.587c-4.937,0.669-9.19-1.475-10.979-5.479l-0.193-0.135c-6.516-2.107-7.999-4.107-8.285-11.222
		c-0.077-1.946,0.435-3.947,1.525-5.946l0.285-0.525l-0.283-0.52c-1.007-1.85-1.52-3.842-1.52-5.925
		c0-6.12,4.479-11.385,10.894-12.802l0.712-0.157L15,27.319c1.113-6.403,7.005-11.05,14.01-11.05c1.138,0,2.273,0.126,3.38,0.378
		l0.747,0.17l0.417-0.648c2.546-3.991,7.229-6.471,12.221-6.471c3.199,0,6.22,0.968,8.732,2.798c0.027,0.02,2.28,1.729,2.845,2.681
		c2.737-1.041,6.902-1.807,9.885-1.807c10.756,0,19.857,7.146,21.644,16.99l0.097,0.527l0.475,0.248
		c4.484,2.333,7.273,6.735,7.273,11.493c0,2.569-1.082,5.222-3.123,7.674l-1.953,2.015c0.047,0.145,0.101,0.317,0.158,0.539
		c0.033,0.117,0.059,0.219,0.077,0.268l0.11,0.273c0.581,1.457,0.871,2.992,0.871,4.555c-0.002,5.057-3.045,9.583-7.943,11.82
		l-0.375,0.172l-0.167,0.38c-1.218,2.769-3.821,4.788-6.976,5.407l-0.16,0.052L78.009,87.266z M55.242,70.3
		c0.361,0.455,2.49,1.916,3.056,2.239c2.3,1.322,4.925,2.121,7.575,2.316l0.786,0.06l0.571,0.545
		c0.814,0.788,1.531,1.472,2.174,2.085l0.416,0.395c0.861,0.817,1.845,1.66,2.886,2.552c1.388,1.19,2.815,2.403,4.002,3.616
		L76.1,75.009l1.03-0.338c2.865-0.562,5.177-2.348,6.247-4.789l0.338-0.761l0.756-0.344c4.504-2.055,7.301-6.207,7.303-10.828
		c0-1.428-0.266-2.822-0.795-4.149l-0.108-0.272c-0.024-0.062-0.07-0.213-0.113-0.385c-0.051-0.17-0.149-0.529-0.196-0.621
		l-0.384-0.379l0.427-0.32l2.185-2.249c1.853-2.223,2.844-4.634,2.844-6.944c0-4.348-2.562-8.38-6.687-10.524L88,31.612
		l-0.191-1.056c-1.69-9.327-10.34-16.095-20.57-16.095c-2.989,0-7.217,0.801-9.822,1.865l-0.333,0.137l-0.679-0.676l-0.006-0.123
		c-0.293-0.439-2.061-1.944-2.535-2.288c-2.322-1.691-5.118-2.587-8.085-2.587c-4.625,0-8.954,2.286-11.302,5.966l-0.826,1.291
		l-1.494-0.338c-1.027-0.233-2.084-0.35-3.14-0.35c-6.473,0-11.913,4.267-12.935,10.149l-0.253,1.441l-1.427,0.316
		C8.488,30.57,4.362,35.396,4.362,40.999c0,1.897,0.466,3.716,1.385,5.406l0.57,1.04l-0.574,1.046
		c-0.991,1.825-1.461,3.633-1.389,5.378c0.278,6.964,1.778,8.371,7.6,10.257l0.454,0.261l0.298,0.368
		c1.573,3.601,5.396,5.519,9.866,4.917c1.546-0.211,2.435-0.709,3.777-1.46c0.544-0.305,1.155-0.647,1.894-1.019l3.271-1.643v0.756
		c0.197,0.245,0.85,0.83,1.178,1.125c0.475,0.42,0.633,0.569,0.721,0.687c2.162,3.046,6.179,4.792,11.021,4.792
		c2.905,0,7.534-1.111,9.946-2.91l0.796-0.596L55.242,70.3z"/>
	<g>
		<path d="M43.078,39.122c-0.421-1.035-1.373-1.821-1.373-1.821c0.252-4.223-0.714-8.608-0.901-9.406
			c0.092-0.061,0.156-0.157,0.156-0.272l-0.118-1.387h0.161v-0.188c0-0.184-0.138-0.335-0.306-0.335h-2.122
			c-0.167,0-0.305,0.151-0.305,0.335v0.188h0.16l-0.118,1.387c0,0.115,0.064,0.212,0.155,0.272
			c-0.188,0.796-1.154,5.184-0.899,9.406c0,0-1.57,1.289-1.57,2.744c0,0,0,12.204,0,14.088c0,1.27,1.651,1.486,2.729,1.492l0,0
			h1.802l0,0c0.751-0.004,1.788-0.109,2.349-0.604v-14.65C42.877,39.935,42.952,39.516,43.078,39.122z"/>
		<path d="M60.389,59.164c3.816-1.133,7.446-3.33,8.103-3.74c0.079,0.057,0.183,0.078,0.286,0.043l1.197-0.539l0.043,0.133
			l0.166-0.059c0.164-0.059,0.26-0.221,0.217-0.361l-0.575-1.768c-0.046-0.141-0.218-0.209-0.378-0.15l-0.166,0.062l0.042,0.135
			l-1.263,0.341c-0.104,0.035-0.17,0.121-0.199,0.219c-0.76,0.095-4.913,0.683-8.59,2.234c0,0-1.57-0.896-2.859-0.436
			c0,0-10.834,3.881-12.503,4.479c-1.126,0.402-0.873,1.849-0.589,2.75l0,0l0.49,1.498l0,0c0.292,0.896,0.934,2.224,2.066,1.815
			c1.669-0.6,12.503-4.477,12.503-4.477C59.668,60.881,60.389,59.164,60.389,59.164z"/>
		<path d="M54.486,54.619c0.912-0.328,1.496-0.537,1.496-0.537c0.383-0.137,0.799-0.205,1.238-0.205c0.82,0,1.584,0.242,2.086,0.451
			c0.685-0.27,1.375-0.508,2.057-0.719c0-2.965,0-13.565,0-13.565c0-1.455-1.57-2.744-1.57-2.744
			c0.256-4.223-0.711-8.61-0.898-9.406c0.092-0.061,0.155-0.157,0.155-0.272l-0.118-1.387h0.159v-0.188
			c0-0.184-0.137-0.335-0.305-0.335h-2.122c-0.167,0-0.305,0.151-0.305,0.335v0.188h0.16l-0.117,1.387
			c0,0.115,0.063,0.212,0.154,0.272c-0.187,0.798-1.152,5.184-0.898,9.406c0,0-0.952,0.786-1.374,1.821
			c0.125,0.395,0.202,0.813,0.202,1.249V54.619z"/>
		<path d="M53.339,55.029c0-5.355,0-14.658,0-14.658c-0.002-1.862-2.009-3.513-2.009-3.513c0.322-5.404-0.915-11.02-1.153-12.04
			c0.117-0.076,0.199-0.201,0.199-0.349l-0.152-1.774h0.206v-0.24c0-0.235-0.177-0.428-0.391-0.428h-2.716
			c-0.215,0-0.392,0.192-0.392,0.428v0.24h0.206l-0.151,1.774c0,0.147,0.083,0.272,0.2,0.349c-0.24,1.021-1.478,6.635-1.154,12.04
			c0,0-2.007,1.65-2.007,3.512c0,0,0,15.485,0,17.997C45.815,57.725,50.393,56.086,53.339,55.029z"/>
	</g>
</g>
</svg>
