<?xml version="1.0" encoding="utf-8"?>
<!-- Generator: Adobe Illustrator 16.0.0, SVG Export Plug-In . SVG Version: 6.00 Build 0)  -->
<!DOCTYPE svg PUBLIC "-//W3C//DTD SVG 1.1//EN" "http://www.w3.org/Graphics/SVG/1.1/DTD/svg11.dtd">
<svg version="1.1" id="Layer_1" xmlns="http://www.w3.org/2000/svg" xmlns:xlink="http://www.w3.org/1999/xlink" x="0px" y="0px"
	 width="100px" height="100px" viewBox="0 0 100 100" enable-background="new 0 0 100 100" xml:space="preserve">
<g>
	<path d="M81.201,93.571l-1.261-0.956c-1.475-0.982-8.248-6.504-14.995-13.272c-0.132-0.135-0.296-0.215-0.478-0.236
		c-3.766-0.462-7.344-1.869-10.359-4.076c-0.258-0.187-0.603-0.211-0.885-0.052c-2.714,1.525-5.716,2.299-8.923,2.299
		c-5.094,0-9.932-2.099-13.272-5.758c-0.238-0.263-0.657-0.34-0.981-0.176c-2.581,1.328-5.629,2.688-8.628,2.688
		c-4.794,0-7.746-0.841-11.567-5.615c-0.092-0.113-0.132-0.24-0.156-0.349C0.756,65.275,0,59.538,0,53.896
		c0-2.074,0.437-4.19,1.26-6.125c0.086-0.203,0.086-0.438,0-0.642c-0.823-1.935-1.258-4.053-1.258-6.125
		c0-6.993,4.69-13.227,11.673-15.512c0.256-0.085,0.453-0.287,0.529-0.543C14.303,17.913,21.215,13,29.016,13
		c0.736,0,1.476,0.044,2.197,0.129c0.337-0.007,0.572-0.104,0.729-0.293c3.297-4.012,8.47-6.407,13.836-6.407
		c4.675,0,9.058,1.708,12.341,4.808c0.216,0.203,0.54,0.274,0.815,0.184c2.666-0.876,5.46-1.319,8.31-1.319
		c11.83,0,21.937,7.536,24.574,18.326c0.051,0.209,0.18,0.387,0.361,0.501C97.075,31.981,100,37.104,100,42.63
		c0,3.895-1.482,7.68-4.174,10.658c-0.185,0.205-0.253,0.486-0.185,0.753c0.33,1.273,0.497,2.588,0.497,3.909
		c0,5.928-3.413,11.417-8.91,14.334c-0.142,0.074-0.258,0.188-0.334,0.327c-1.271,2.304-3.327,4.199-5.789,5.339
		c-0.302,0.14-0.489,0.444-0.476,0.774L81.201,93.571z M53.624,73.781c0.404,0,0.796,0.129,1.127,0.37
		c2.866,2.096,6.269,3.437,9.846,3.873c0.42,0.048,0.818,0.244,1.123,0.549c6.111,6.133,12.216,11.214,14.302,12.764L79.54,78.766
		c-0.03-0.771,0.402-1.479,1.104-1.805c2.255-1.045,4.134-2.776,5.293-4.877c0.181-0.327,0.45-0.591,0.779-0.766
		c5.136-2.726,8.327-7.848,8.327-13.369c0-1.229-0.153-2.451-0.46-3.635c-0.162-0.623-0.001-1.28,0.43-1.757
		c2.511-2.777,3.894-6.304,3.894-9.927c0-5.146-2.732-9.923-7.31-12.776c-0.425-0.266-0.724-0.681-0.844-1.168
		c-2.517-10.3-12.187-17.493-23.512-17.493c-2.732,0-5.413,0.425-7.967,1.264c-0.643,0.214-1.403,0.051-1.906-0.426
		c-3.08-2.908-7.196-4.51-11.593-4.51c-5.043,0-9.9,2.247-12.992,6.011c-0.414,0.501-1.056,0.765-1.704,0.682
		c-0.675-0.081-1.371-0.122-2.064-0.122c-7.321,0-13.805,4.595-15.765,11.172c-0.178,0.598-0.64,1.074-1.235,1.269
		C5.481,28.671,1.092,34.486,1.092,41.007c0,1.928,0.405,3.899,1.171,5.697c0.202,0.474,0.204,1.021,0.001,1.497
		c-0.767,1.801-1.172,3.771-1.172,5.695c0,5.501,0.7,10.651,9.161,13.2c0.388,0.12,0.462,0.505,0.494,0.67
		c3.52,4.423,6.142,5.174,10.671,5.174c2.782,0,5.808-1.372,8.132-2.567c0.758-0.385,1.725-0.201,2.283,0.413
		c3.135,3.433,7.678,5.4,12.467,5.4c3.018,0,5.84-0.725,8.389-2.158C52.976,73.866,53.298,73.781,53.624,73.781z M78.01,87.268
		l-1.075-1.29c-1.267-1.519-3.126-3.111-4.925-4.649c-1.058-0.905-2.058-1.759-2.939-2.6l-0.343-0.322
		c-0.663-0.632-1.406-1.335-2.258-2.156l-0.283-0.271l-0.395-0.03c-2.812-0.206-5.591-1.055-8.038-2.461
		c-0.025-0.016-2.201-1.315-3.154-2.308c-2.696,1.776-7.184,2.826-10.166,2.826c-5.203,0-9.543-1.912-11.909-5.251
		c-0.064-0.071-0.294-0.271-0.562-0.511c-0.574-0.514-0.94-0.852-1.171-1.102l-2.061,1.033c-0.72,0.359-1.312,0.692-1.843,0.99
		c-1.403,0.785-2.416,1.353-4.17,1.589c-4.942,0.667-9.188-1.477-10.978-5.48l-0.195-0.134c-6.511-2.105-7.993-4.103-8.278-11.222
		c-0.079-1.944,0.434-3.944,1.522-5.945l0.286-0.523l-0.284-0.521c-1.009-1.852-1.521-3.846-1.521-5.926
		c0-6.119,4.479-11.384,10.892-12.8l0.713-0.158l0.127-0.721c1.113-6.403,7.006-11.05,14.011-11.05c1.136,0,2.272,0.127,3.379,0.379
		l0.748,0.17l0.415-0.646c2.545-3.99,7.227-6.469,12.219-6.469c3.2,0,6.221,0.966,8.733,2.797c0.027,0.02,2.276,1.722,2.843,2.681
		c2.735-1.041,6.901-1.809,9.888-1.809c10.757,0,19.858,7.146,21.641,16.99l0.096,0.527l0.476,0.248
		c4.484,2.333,7.271,6.736,7.271,11.49c0,2.569-1.079,5.223-3.122,7.674l-1.952,2.013c0.049,0.141,0.098,0.313,0.157,0.528
		c0.033,0.119,0.062,0.223,0.079,0.274l0.113,0.283c0.579,1.453,0.87,2.982,0.87,4.546c-0.001,5.058-3.046,9.587-7.942,11.823
		l-0.376,0.17l-0.168,0.382c-1.217,2.767-3.821,4.787-6.973,5.403l-0.162,0.054L78.01,87.268z M55.245,70.306
		c0.36,0.46,2.508,1.924,3.052,2.235c2.308,1.323,4.927,2.126,7.577,2.319l0.788,0.061l0.565,0.544
		c0.849,0.819,1.589,1.521,2.252,2.147l0.341,0.327c0.864,0.818,1.853,1.664,2.899,2.56c1.383,1.184,2.802,2.398,3.986,3.607
		l-0.607-9.101l1.035-0.332c2.862-0.563,5.173-2.349,6.245-4.79l0.338-0.764l0.756-0.343c4.503-2.055,7.3-6.206,7.303-10.83
		c0-1.425-0.267-2.819-0.795-4.145l-0.111-0.281c-0.025-0.061-0.069-0.212-0.118-0.39c-0.046-0.167-0.144-0.521-0.192-0.611
		l-0.381-0.381l0.428-0.317l2.181-2.25c1.852-2.223,2.842-4.634,2.842-6.944c0-4.347-2.56-8.379-6.682-10.523l-0.95-0.495
		l-0.191-1.054c-1.688-9.326-10.338-16.094-20.565-16.094c-2.997,0-7.22,0.802-9.824,1.865l-0.334,0.136l-0.68-0.669l-0.008-0.125
		c-0.29-0.438-2.058-1.942-2.529-2.289c-2.324-1.692-5.121-2.586-8.089-2.586c-4.623,0-8.952,2.285-11.299,5.965l-0.828,1.293
		l-1.496-0.339c-1.027-0.233-2.083-0.352-3.138-0.352c-6.473,0-11.912,4.268-12.935,10.147l-0.254,1.441l-1.427,0.315
		C8.491,30.571,4.364,35.396,4.364,41.001c0,1.896,0.468,3.713,1.388,5.404l0.567,1.044L5.75,48.494
		c-0.993,1.827-1.463,3.636-1.392,5.379c0.279,6.966,1.78,8.37,7.598,10.257l0.453,0.26l0.3,0.366
		c1.572,3.603,5.393,5.523,9.866,4.915c1.548-0.21,2.437-0.707,3.782-1.46c0.544-0.305,1.149-0.646,1.888-1.013l3.271-1.643v0.755
		c0.196,0.245,0.847,0.824,1.174,1.116c0.478,0.426,0.639,0.576,0.726,0.695c2.16,3.044,6.178,4.791,11.021,4.791
		c2.905,0,7.534-1.112,9.944-2.911l0.792-0.591L55.245,70.306z"/>
	<g>
		<g>
			<path d="M21.323,45.982c-1.146,0-1.988-0.609-2.374-1.717c-0.322-0.932-0.273-1.733,0.143-2.384
				c0.727-1.134,2.306-1.302,2.372-1.309l2.74-0.868l31.676-8.951l-0.783,1.288l0.308,0.163l-0.082,0.396l3.057,0.794l-2.104,1.22
				l-0.276,0.262l0.899,0.94l-32.361,9.483l-1.859,0.421l0,0C22.697,45.721,22.066,45.982,21.323,45.982z M53.663,32.464
				l-29.161,8.24l-2.83,0.886c-0.114,0.023-1.255,0.15-1.704,0.858c-0.234,0.367-0.245,0.864-0.032,1.477
				c0.24,0.692,0.683,1.016,1.389,1.016c0.543,0,1.025-0.202,1.029-0.205l1.923-0.442l30.687-8.994l-0.439-0.459l1.141-1.075
				l-1.562-0.405l0.124-0.599L53.663,32.464z"/>
			<path d="M81.171,58.672l-11.397-3.366L52.537,45.088l-0.879-1.198l0.651-0.596l-0.846-0.975l0.568-0.409l-0.555-1.727
				l1.788,0.387l0.428-0.465l18.763,10.466L81.171,58.672z M70.247,54.376l6.978,2.051l-5.434-5.051l-17.89-9.961l-0.273,0.298
				l-0.608-0.132l0.232,0.729l-0.256,0.186l0.765,0.882l-0.711,0.649l0.262,0.357L70.247,54.376z"/>
			<path d="M23.703,45.017c-1.974-2.627-1.14-4.566-1.103-4.647l0.95,0.426l-0.477-0.213l0.479,0.208
				c-0.024,0.06-0.599,1.496,0.982,3.602L23.703,45.017z"/>
			<path d="M25.35,44.689c-1.975-2.624-1.139-4.567-1.102-4.648l0.951,0.428l-0.476-0.213l0.479,0.208
				c-0.024,0.061-0.601,1.498,0.982,3.601L25.35,44.689z"/>
			<path d="M26.951,44.273c-1.973-2.626-1.137-4.567-1.102-4.649l0.951,0.428l-0.476-0.214l0.479,0.208
				c-0.024,0.061-0.601,1.498,0.98,3.603L26.951,44.273z"/>
			<path d="M28.56,43.625c-1.972-2.625-1.137-4.567-1.102-4.648l0.953,0.421c-0.024,0.061-0.599,1.499,0.981,3.601L28.56,43.625z"/>
			<path d="M30.114,43.343c-1.972-2.624-1.139-4.565-1.102-4.646l0.951,0.425l-0.475-0.213l0.479,0.208
				c-0.025,0.06-0.6,1.499,0.981,3.602L30.114,43.343z"/>
			<path d="M69.525,54.943c-0.182-1.065,0.078-3.37,2.35-4.462l0.45,0.938c-2.123,1.02-1.788,3.258-1.772,3.351L69.525,54.943z"/>
			<path d="M77.45,56.951l-1.027-0.161c0.099-0.642,0.493-1.289,1.149-1.289c0.004,0,0.005,0,0.01,0l-0.01,1.042
				C77.562,56.576,77.475,56.808,77.45,56.951z"/>
		</g>
		<ellipse cx="59.896" cy="37.439" rx="0.417" ry="0.461"/>
		<ellipse cx="62.652" cy="37.735" rx="0.415" ry="0.461"/>
		<ellipse cx="60.76" cy="41.12" rx="0.415" ry="0.461"/>
		<ellipse cx="54.338" cy="38.342" rx="0.416" ry="0.461"/>
		<circle cx="61.672" cy="32.175" r="0.519"/>
		<circle cx="63.902" cy="35.859" r="0.674"/>
		<circle cx="60.79" cy="34.613" r="0.362"/>
	</g>
</g>
</svg>
