<?xml version="1.0" encoding="utf-8"?>
<!-- Generator: Adobe Illustrator 16.0.0, SVG Export Plug-In . SVG Version: 6.00 Build 0)  -->
<!DOCTYPE svg PUBLIC "-//W3C//DTD SVG 1.1 Tiny//EN" "http://www.w3.org/Graphics/SVG/1.1/DTD/svg11-tiny.dtd">
<svg version="1.1" baseProfile="tiny" id="Layer_1" xmlns="http://www.w3.org/2000/svg" xmlns:xlink="http://www.w3.org/1999/xlink"
	 x="0px" y="0px" width="100px" height="100px" viewBox="0 0 100 100" xml:space="preserve">
<path fill="#010101" d="M48.714,2.63c-7.659,0.195-15.377,2.248-22.468,6.342C3.551,22.075-4.242,51.177,8.86,73.869
	c0.674,1.299,2.274,1.803,3.572,1.128c1.296-0.674,1.802-2.274,1.127-3.57c-0.036-0.07-0.076-0.139-0.119-0.205
	C1.77,51.006,8.678,25.232,28.893,13.56C49.108,1.888,74.882,8.796,86.555,29.012c11.671,20.215,4.769,45.989-15.471,57.688
	c-0.037,0.021-0.072,0.039-0.106,0.06c-7.442,4.75-17.536,6.313-25.819,4.681s-14.374-6.068-15.537-13.22
	c-0.303-1.87,0.573-7.565,2.49-14.167c1.917-6.602,4.706-14.394,7.62-21.82c2.915-7.427,5.958-14.502,8.388-19.702
	c0.807-1.727,1.402-2.85,2.039-4.097c0.54,1.588,1.075,3.152,1.768,5.435c1.907,6.291,4.266,14.778,6.501,23.31
	c2.207,8.423,4.29,16.871,5.727,23.343c-0.202-0.282-0.345-0.529-0.557-0.814c-4.433-5.986-11.162-12.875-20.9-14.948
	c-1.431-0.304-2.838,0.611-3.143,2.041c-0.304,1.431,0.608,2.836,2.037,3.143c7.865,1.677,13.695,7.441,17.749,12.917
	c2.026,2.736,3.582,5.359,4.752,7.308c0.586,0.974,1.061,1.758,1.558,2.436c0.248,0.339,0.457,0.655,0.972,1.06
	c0.258,0.202,0.606,0.463,1.265,0.603c0.658,0.139,1.691-0.054,2.304-0.524c1.294-0.993,1.078-1.698,1.126-2.125
	c0.049-0.424,0.041-0.759,0.02-1.13c-0.041-0.744-0.151-1.599-0.317-2.643c-0.335-2.085-0.898-4.883-1.629-8.188
	c-1.462-6.613-3.591-15.239-5.84-23.82c-2.247-8.582-4.612-17.105-6.552-23.502c-0.971-3.199-1.828-5.855-2.536-7.778
	c-0.354-0.962-0.665-1.73-0.986-2.377c-0.161-0.323-0.3-0.606-0.583-0.973c-0.14-0.183-0.31-0.397-0.675-0.662
	s-1.089-0.665-2.073-0.51c-1.333,0.21-1.505,0.704-1.767,0.979c-0.261,0.276-0.44,0.521-0.629,0.794
	c-0.378,0.547-0.762,1.2-1.205,2.006c-0.885,1.611-1.979,3.816-3.225,6.481c-2.489,5.329-5.565,12.477-8.52,20.006
	c-2.955,7.529-5.784,15.43-7.772,22.277s-3.308,12.358-2.635,16.497c1.585,9.745,10.077,15.657,19.748,17.562
	c9.636,1.899,20.818,0.204,29.592-5.354c0.024-0.017,0.049-0.031,0.074-0.047c0.008,0,0.018-0.011,0.024-0.013
	c22.637-13.156,30.395-42.196,17.312-64.857C82.135,10.763,65.563,2.2,48.714,2.63L48.714,2.63z"/>
</svg>
