<?xml version="1.0" encoding="utf-8"?>
<!-- Generator: Adobe Illustrator 16.0.0, SVG Export Plug-In . SVG Version: 6.00 Build 0)  -->
<!DOCTYPE svg PUBLIC "-//W3C//DTD SVG 1.1 Tiny//EN" "http://www.w3.org/Graphics/SVG/1.1/DTD/svg11-tiny.dtd">
<svg version="1.1" baseProfile="tiny" id="Layer_1" xmlns="http://www.w3.org/2000/svg" xmlns:xlink="http://www.w3.org/1999/xlink"
	 x="0px" y="0px" width="100px" height="100px" viewBox="0 0 100 100" xml:space="preserve">
<g>
	<g>
		<path d="M51.97,17.794c0.847,0.298,1.729,0.45,2.62,0.45c3.331,0,6.312-2.111,7.421-5.252c1.444-4.092-0.71-8.597-4.802-10.042
			C56.362,2.652,55.48,2.5,54.59,2.5c-3.331,0-6.313,2.111-7.422,5.252C45.725,11.844,47.878,16.349,51.97,17.794z"/>
		<path d="M75.645,12.938c-0.707-0.816-1.684-1.31-2.756-1.388l-4.695-0.343c-2.226-0.176-4.153,1.533-4.314,3.727l-0.326,4.458
			c-0.501-0.32-1.065-0.558-1.672-0.666c-0.052-0.02-0.111-0.029-0.173-0.031c-0.396-0.056-0.79-0.061-1.086-0.023l-8.169-0.137
			c-0.017,0-0.035,0-0.054,0.001c-1.262,0.007-2.544,0.507-3.427,1.446l-9.36,9.959l-12.549,2.557
			c-2.489,0.506-4.103,2.943-3.597,5.433c0.437,2.145,2.342,3.659,4.487,3.671l1.526,55.337c0.005,0.153,0.07,0.297,0.18,0.402
			c0.107,0.102,0.249,0.159,0.396,0.159c0.006,0,0.01,0,0.016,0l3.453-0.096c0.318-0.01,0.57-0.274,0.561-0.593l-1.546-56.023
			l10.345-2.106c0.939-0.191,1.784-0.661,2.44-1.36l3.955-4.208L49.6,55.783l-8.876,12.283c-0.503,0.695-0.8,1.516-0.862,2.374
			l-1.56,22.078c-0.178,2.533,1.738,4.741,4.272,4.921c2.542,0.169,4.743-1.762,4.919-4.271L48.958,72.4l4.234-5.857l6.147,25.723
			c0.497,2.085,2.337,3.54,4.478,3.54c0.359,0,0.723-0.042,1.073-0.126c1.199-0.287,2.212-1.021,2.858-2.07
			c0.644-1.05,0.841-2.286,0.554-3.483l-7.986-33.438l1.234-1.711c0.371-0.514,0.625-1.109,0.758-1.766
			c0.679,0.773,1.637,1.287,2.714,1.365l4.694,0.344c0.102,0.006,0.208,0.014,0.315,0.014c1.479,0,2.365-1.141,2.791-3.611
			l3.196-25.549l0.596-9.91C76.695,14.794,76.35,13.754,75.645,12.938z"/>
	</g>
</g>
</svg>
