<?xml version="1.0" encoding="utf-8"?>
<!-- Generator: Adobe Illustrator 16.0.0, SVG Export Plug-In . SVG Version: 6.00 Build 0)  -->
<!DOCTYPE svg PUBLIC "-//W3C//DTD SVG 1.1//EN" "http://www.w3.org/Graphics/SVG/1.1/DTD/svg11.dtd">
<svg version="1.1" id="Layer_1" xmlns="http://www.w3.org/2000/svg" xmlns:xlink="http://www.w3.org/1999/xlink" x="0px" y="0px"
	 width="100px" height="100px" viewBox="0 0 100 100" enable-background="new 0 0 100 100" xml:space="preserve">
<g>
	<path d="M81.2,93.573l-1.259-0.954c-1.481-0.989-8.258-6.515-14.998-13.277c-0.128-0.129-0.299-0.212-0.479-0.234
		c-3.766-0.461-7.347-1.87-10.358-4.075c-0.255-0.188-0.614-0.209-0.883-0.053c-2.714,1.527-5.715,2.301-8.923,2.301
		c-5.094,0-9.932-2.1-13.273-5.759c-0.242-0.266-0.654-0.342-0.98-0.176c-2.586,1.329-5.636,2.688-8.63,2.688
		c-4.794,0-7.746-0.84-11.567-5.615c-0.091-0.114-0.131-0.241-0.156-0.349C0.752,65.276,0,59.54,0,53.899
		c0-2.073,0.435-4.192,1.258-6.126c0.087-0.206,0.087-0.435,0-0.642C0.435,45.199,0,43.082,0,41.007
		c0-6.993,4.691-13.227,11.675-15.514c0.254-0.083,0.452-0.287,0.528-0.543c2.098-7.038,9.011-11.953,16.812-11.953
		c0.729,0,1.468,0.044,2.195,0.131c0.363,0.011,0.574-0.103,0.729-0.293c3.299-4.013,8.472-6.408,13.837-6.408
		c4.675,0,9.058,1.707,12.341,4.808c0.213,0.203,0.533,0.275,0.815,0.183c2.667-0.876,5.461-1.318,8.31-1.318
		c11.831,0,21.936,7.537,24.573,18.326c0.052,0.21,0.179,0.386,0.361,0.501C97.075,31.98,100,37.104,100,42.629
		c0,3.895-1.484,7.68-4.175,10.66c-0.185,0.204-0.254,0.485-0.185,0.75c0.33,1.276,0.496,2.591,0.496,3.911
		c0,5.927-3.413,11.417-8.911,14.333c-0.14,0.073-0.256,0.188-0.333,0.328c-1.272,2.306-3.328,4.2-5.788,5.339
		c-0.302,0.141-0.486,0.443-0.475,0.773L81.2,93.573z M53.624,73.781c0.408,0,0.798,0.128,1.128,0.369
		c2.861,2.096,6.267,3.434,9.847,3.873c0.421,0.052,0.817,0.246,1.119,0.547c6.107,6.128,12.215,11.212,14.305,12.767l-0.48-12.571
		c-0.03-0.769,0.402-1.479,1.106-1.805c2.25-1.042,4.131-2.773,5.291-4.879c0.179-0.323,0.449-0.587,0.776-0.764
		c5.139-2.726,8.331-7.849,8.331-13.369c0-1.228-0.156-2.451-0.461-3.637c-0.163-0.622-0.002-1.278,0.432-1.757
		c2.509-2.778,3.893-6.304,3.893-9.927c0-5.147-2.731-9.923-7.309-12.779c-0.427-0.266-0.725-0.682-0.846-1.168
		c-2.517-10.3-12.185-17.493-23.513-17.493c-2.731,0-5.412,0.425-7.966,1.265c-0.661,0.217-1.406,0.049-1.909-0.427
		c-3.079-2.908-7.196-4.51-11.591-4.51c-5.043,0-9.9,2.246-12.993,6.011c-0.413,0.502-1.051,0.764-1.704,0.682
		c-0.684-0.081-1.379-0.122-2.065-0.122c-7.321,0-13.803,4.594-15.766,11.172c-0.177,0.599-0.639,1.073-1.235,1.271
		C5.48,28.668,1.091,34.484,1.091,41.004c0,1.93,0.404,3.898,1.17,5.698c0.203,0.475,0.204,1.021,0.001,1.497
		C1.496,50,1.091,51.97,1.091,53.897c0,5.502,0.7,10.65,9.162,13.2c0.387,0.117,0.462,0.503,0.494,0.669
		c3.521,4.425,6.142,5.175,10.671,5.175c2.762,0,5.661-1.298,8.133-2.568c0.756-0.387,1.725-0.204,2.285,0.413
		c3.134,3.433,7.678,5.401,12.466,5.401c3.018,0,5.84-0.727,8.388-2.159C52.971,73.868,53.294,73.781,53.624,73.781z M78.01,87.271
		l-1.077-1.291c-1.267-1.521-3.129-3.112-4.928-4.653c-1.055-0.902-2.055-1.756-2.937-2.595l-0.179-0.17
		c-0.706-0.668-1.5-1.421-2.422-2.312l-0.281-0.271l-0.394-0.028c-2.817-0.209-5.597-1.061-8.041-2.46
		c-0.026-0.017-2.202-1.316-3.154-2.308c-2.698,1.775-7.185,2.824-10.165,2.824c-5.201,0-9.543-1.914-11.911-5.25
		c-0.063-0.072-0.293-0.273-0.562-0.513c-0.575-0.514-0.941-0.854-1.171-1.104l-2.06,1.036c-0.722,0.36-1.315,0.693-1.845,0.99
		c-1.402,0.786-2.414,1.353-4.167,1.589c-4.935,0.672-9.189-1.475-10.978-5.482l-0.194-0.13C5.03,63.034,3.547,61.037,3.262,53.92
		c-0.078-1.944,0.434-3.945,1.524-5.946l0.286-0.522L4.788,46.93c-1.007-1.851-1.518-3.843-1.518-5.925
		c0-6.12,4.479-11.386,10.893-12.802l0.713-0.158l0.127-0.721c1.113-6.403,7.006-11.052,14.009-11.052
		c1.138,0,2.276,0.128,3.381,0.378l0.746,0.17l0.414-0.648c2.546-3.989,7.229-6.471,12.221-6.471c3.201,0,6.219,0.968,8.731,2.797
		c0.026,0.02,2.283,1.724,2.848,2.683c2.734-1.04,6.899-1.809,9.885-1.809c10.758,0,19.859,7.145,21.641,16.991l0.097,0.527
		l0.476,0.248c4.483,2.332,7.27,6.734,7.27,11.492c0,2.568-1.079,5.223-3.122,7.673l-1.953,2.018
		c0.049,0.141,0.099,0.313,0.158,0.529c0.032,0.119,0.06,0.221,0.079,0.272l0.111,0.279c0.578,1.456,0.872,2.986,0.872,4.55
		c-0.003,5.058-3.046,9.587-7.944,11.822l-0.378,0.172l-0.166,0.382c-1.218,2.766-3.824,4.787-6.973,5.404l-0.162,0.055
		L78.01,87.271z M55.243,70.305c0.361,0.461,2.489,1.913,3.054,2.237c2.301,1.32,4.922,2.122,7.576,2.318l0.787,0.059l0.567,0.545
		c0.921,0.889,1.71,1.639,2.415,2.305l0.18,0.171c0.86,0.818,1.849,1.663,2.895,2.558c1.384,1.184,2.805,2.4,3.987,3.609
		l-0.606-9.097l1.036-0.336c2.862-0.563,5.172-2.347,6.244-4.789l0.336-0.763l0.759-0.346c4.502-2.057,7.3-6.205,7.303-10.829
		c0-1.425-0.267-2.82-0.794-4.147l-0.111-0.277c-0.024-0.062-0.067-0.21-0.116-0.387c-0.048-0.171-0.146-0.524-0.194-0.616
		l-0.383-0.38l0.43-0.317l2.183-2.253c1.85-2.222,2.842-4.633,2.842-6.944c0-4.348-2.561-8.381-6.683-10.524l-0.951-0.494
		l-0.189-1.054c-1.691-9.325-10.34-16.094-20.568-16.094c-2.994,0-7.218,0.803-9.824,1.865l-0.338,0.139l-0.674-0.676l-0.009-0.118
		c-0.29-0.439-2.062-1.945-2.532-2.29c-2.324-1.692-5.121-2.588-8.087-2.588c-4.623,0-8.953,2.286-11.301,5.967l-0.827,1.293
		l-1.495-0.338c-1.027-0.232-2.082-0.352-3.139-0.352c-6.472,0-11.912,4.268-12.936,10.147l-0.252,1.441l-1.428,0.316
		c-5.91,1.306-10.036,6.132-10.036,11.736c0,1.896,0.466,3.715,1.386,5.403l0.566,1.043l-0.569,1.045
		c-0.994,1.825-1.461,3.636-1.392,5.381c0.279,6.965,1.782,8.368,7.601,10.257l0.454,0.259l0.298,0.367
		c1.574,3.601,5.394,5.515,9.867,4.915c1.547-0.209,2.436-0.707,3.781-1.461c0.543-0.305,1.151-0.645,1.889-1.016l3.271-1.643v0.756
		c0.197,0.244,0.849,0.826,1.176,1.118c0.477,0.428,0.639,0.575,0.725,0.696c2.16,3.042,6.178,4.79,11.021,4.79
		c2.904,0,7.533-1.114,9.946-2.911l0.796-0.593L55.243,70.305z"/>
	<g>
		<path d="M43.96,25.113c3.409,0,6.172,2.762,6.172,6.17c0,2.492-1.478,4.639-3.604,5.612v21.336c0,1.416-1.149,2.566-2.568,2.566
			c-1.417,0-2.564-1.148-2.564-2.566V36.896c-2.127-0.974-3.605-3.119-3.605-5.612C37.79,27.876,40.552,25.113,43.96,25.113
			 M43.96,23.955c-1.958,0-3.798,0.763-5.183,2.146c-1.383,1.384-2.146,3.226-2.145,5.184c0,2.601,1.393,5.003,3.606,6.31v20.637
			c0,2.054,1.67,3.723,3.722,3.723c2.054,0,3.727-1.669,3.727-3.723V37.596c2.211-1.308,3.604-3.709,3.604-6.311
			C51.291,27.242,48.002,23.955,43.96,23.955L43.96,23.955z"/>
		<path d="M43.984,27.605c2.009,0,3.644,1.634,3.644,3.643c0,1.598-1.022,2.993-2.542,3.474l-0.593,0.188v0.621v4.695
			c0,0.279-0.228,0.508-0.509,0.508c-0.279,0-0.506-0.229-0.506-0.508V35.53v-0.623l-0.592-0.186
			c-1.52-0.479-2.542-1.875-2.543-3.474C40.343,29.241,41.977,27.605,43.984,27.605 M43.984,26.758
			c-2.479,0-4.489,2.011-4.489,4.492c0,2.009,1.317,3.708,3.134,4.281v4.696c0,0.748,0.607,1.354,1.354,1.354
			c0.748,0,1.355-0.606,1.355-1.354v-4.696c1.815-0.573,3.135-2.273,3.135-4.281C48.477,28.769,46.465,26.758,43.984,26.758
			L43.984,26.758z"/>
	</g>
	<g>
		<path d="M60.198,25.109c1.416,0,2.564,1.149,2.564,2.566v21.335c2.125,0.974,3.605,3.12,3.605,5.612
			c0,3.409-2.764,6.172-6.17,6.172c-3.41,0-6.174-2.763-6.174-6.172c0-2.492,1.477-4.639,3.604-5.612V27.675
			C57.629,26.259,58.776,25.109,60.198,25.109 M60.198,23.952c-2.055,0-3.727,1.669-3.727,3.724v20.635
			c-2.213,1.307-3.605,3.709-3.605,6.312c0,4.042,3.289,7.329,7.332,7.329c1.957,0,3.797-0.763,5.18-2.147
			c1.385-1.385,2.147-3.226,2.147-5.182c0-2.603-1.393-5.004-3.605-6.312V27.675C63.919,25.621,62.25,23.952,60.198,23.952
			L60.198,23.952z"/>
		<path d="M60.145,30.084c0.281,0,0.51,0.228,0.51,0.51v19.744v0.623l0.596,0.188c1.527,0.484,2.554,1.886,2.555,3.489
			c0,2.017-1.642,3.659-3.66,3.659c-2.018,0-3.656-1.643-3.656-3.659c0-1.603,1.027-3.005,2.555-3.489l0.592-0.188v-0.623V30.594
			C59.635,30.312,59.863,30.084,60.145,30.084 M60.145,29.232c-0.75,0-1.36,0.608-1.36,1.36v19.744
			c-1.823,0.577-3.147,2.283-3.147,4.299c0,2.491,2.02,4.512,4.508,4.512c2.491,0,4.511-2.02,4.511-4.512
			c0-2.017-1.323-3.722-3.148-4.299V30.594C61.505,29.841,60.896,29.232,60.145,29.232L60.145,29.232z"/>
	</g>
	<path d="M35.625,40.979l-1.149,0.001l0.228-0.361c0.147-0.23,0.08-0.536-0.153-0.68c-0.23-0.146-0.532-0.077-0.682,0.15
		l-0.562,0.892l-1.942,0.002l0.97-1.702l1.339-0.071c0.272-0.014,0.481-0.248,0.466-0.52c-0.013-0.272-0.246-0.481-0.52-0.466
		l-0.703,0.038l0.31-0.547c0.132-0.235,0.052-0.536-0.187-0.672c-0.237-0.134-0.535-0.053-0.671,0.185l-0.313,0.549l-0.193-0.348
		c-0.13-0.241-0.43-0.326-0.668-0.194c-0.242,0.132-0.326,0.431-0.196,0.669l0.486,0.88l-0.97,1.703l-0.975-1.703l0.488-0.88
		c0.133-0.238,0.044-0.537-0.193-0.669c-0.24-0.132-0.54-0.045-0.669,0.194l-0.193,0.348l-0.313-0.549
		c-0.135-0.237-0.434-0.318-0.67-0.185c-0.239,0.135-0.323,0.437-0.186,0.672l0.31,0.547l-0.707-0.038
		c-0.271-0.016-0.501,0.193-0.518,0.466c-0.015,0.272,0.194,0.506,0.466,0.52l1.338,0.071l0.971,1.704l-1.943-0.004l-0.564-0.892
		c-0.146-0.229-0.449-0.297-0.681-0.15c-0.23,0.144-0.298,0.45-0.151,0.68l0.229,0.361l-1.15-0.002
		c-0.276,0-0.497,0.222-0.497,0.494c0,0.271,0.219,0.493,0.491,0.493l1.136,0.003l-0.357,0.574c-0.144,0.231-0.072,0.536,0.158,0.68
		c0.233,0.145,0.536,0.073,0.677-0.158l0.687-1.094l1.969,0.002l-0.942,1.647l-1.019,0.06c-0.273,0.019-0.478,0.249-0.463,0.521
		c0.015,0.271,0.247,0.482,0.52,0.465l0.376-0.022l-0.576,1.01c-0.134,0.235-0.053,0.537,0.184,0.672
		c0.237,0.136,0.54,0.055,0.675-0.184l0.6-1.048l0.354,0.636c0.129,0.239,0.431,0.325,0.668,0.19
		c0.238-0.133,0.323-0.433,0.19-0.669l-0.642-1.157l0.919-1.615l0.003,0.002v-0.002l0.922,1.615l-0.645,1.157
		c-0.132,0.236-0.044,0.536,0.193,0.669c0.239,0.134,0.537,0.049,0.67-0.19l0.354-0.636l0.599,1.048
		c0.136,0.237,0.438,0.319,0.675,0.184c0.233-0.135,0.317-0.437,0.182-0.672l-0.576-1.01l0.378,0.022
		c0.271,0.018,0.505-0.193,0.52-0.465c0.017-0.271-0.191-0.503-0.464-0.521l-1.019-0.06l-0.944-1.647l1.972-0.002l0.68,1.094
		c0.146,0.231,0.449,0.303,0.683,0.158c0.232-0.144,0.302-0.448,0.158-0.68l-0.36-0.574l1.136-0.003
		c0.271,0,0.493-0.222,0.493-0.493C36.119,41.199,35.898,40.979,35.625,40.979z"/>
	<g>
		<path d="M71.967,44.718v1.418c0,0.304,0.244,0.55,0.546,0.55c0.304,0,0.55-0.246,0.55-0.55v-1.418
			c-0.18,0.031-0.362,0.048-0.55,0.048C72.328,44.766,72.144,44.748,71.967,44.718z"/>
		<path d="M73.062,38.386v-1.417c0-0.304-0.246-0.55-0.55-0.55c-0.302,0-0.546,0.246-0.546,0.55v1.417
			c0.177-0.03,0.361-0.048,0.546-0.048C72.7,38.338,72.883,38.354,73.062,38.386z"/>
		<path d="M67.382,41.552c0,0.303,0.247,0.549,0.549,0.549h1.416c-0.03-0.18-0.046-0.361-0.046-0.549s0.016-0.37,0.046-0.549h-1.416
			C67.628,41.003,67.382,41.248,67.382,41.552z"/>
		<path d="M77.647,41.552c0-0.303-0.247-0.549-0.547-0.549h-1.42c0.031,0.179,0.048,0.361,0.048,0.549
			c0,0.186-0.017,0.369-0.048,0.549h1.42C77.402,42.1,77.647,41.854,77.647,41.552z"/>
		<path d="M68.885,37.922c-0.215,0.215-0.215,0.562,0,0.774l1.003,1.004c0.213-0.301,0.476-0.562,0.777-0.775L69.66,37.92
			C69.447,37.708,69.101,37.708,68.885,37.922z"/>
		<path d="M74.365,44.177l1.003,1.005c0.107,0.106,0.249,0.159,0.389,0.159c0.142,0,0.281-0.053,0.388-0.159
			c0.215-0.214,0.215-0.562,0-0.775l-1.003-1.005C74.927,43.703,74.666,43.965,74.365,44.177z"/>
		<path d="M69.891,43.401l-1.006,1.005c-0.212,0.214-0.212,0.562,0,0.775c0.108,0.106,0.25,0.159,0.389,0.159
			c0.14,0,0.282-0.053,0.389-0.159l1.006-1.005C70.363,43.965,70.103,43.703,69.891,43.401z"/>
		<path d="M75.368,37.922l-1.003,1.003c0.301,0.213,0.562,0.477,0.774,0.776l1.003-1.004c0.215-0.213,0.215-0.561,0-0.775
			C75.93,37.708,75.584,37.708,75.368,37.922z"/>
		<path d="M71.394,39.654c-0.319,0.189-0.587,0.457-0.775,0.775c-0.105,0.177-0.188,0.369-0.238,0.573
			c-0.045,0.177-0.072,0.359-0.072,0.549s0.027,0.372,0.072,0.549c0.051,0.204,0.133,0.396,0.238,0.573
			c0.188,0.321,0.456,0.587,0.775,0.776c0.174,0.105,0.369,0.186,0.573,0.237c0.175,0.047,0.358,0.071,0.546,0.071
			c0.193,0,0.375-0.024,0.55-0.071c0.205-0.052,0.399-0.132,0.574-0.237c0.319-0.189,0.586-0.455,0.773-0.776
			c0.106-0.177,0.188-0.369,0.239-0.573c0.046-0.176,0.07-0.358,0.07-0.549s-0.024-0.372-0.07-0.549
			c-0.052-0.204-0.133-0.396-0.239-0.573c-0.188-0.318-0.454-0.586-0.774-0.775c-0.174-0.105-0.368-0.186-0.573-0.237
			c-0.175-0.046-0.356-0.072-0.55-0.072c-0.188,0-0.371,0.026-0.546,0.072C71.763,39.468,71.567,39.549,71.394,39.654z
			 M73.062,40.587c0.175,0.099,0.317,0.243,0.415,0.416c0.044,0.08,0.082,0.165,0.106,0.255c0.027,0.093,0.042,0.192,0.042,0.295
			s-0.015,0.2-0.042,0.295c-0.024,0.089-0.062,0.174-0.106,0.254c-0.098,0.173-0.24,0.317-0.415,0.416
			c-0.079,0.046-0.163,0.08-0.253,0.104c-0.096,0.026-0.193,0.042-0.297,0.042c-0.102,0-0.199-0.016-0.296-0.042
			c-0.088-0.024-0.171-0.06-0.253-0.104c-0.174-0.099-0.317-0.243-0.416-0.416c-0.043-0.079-0.081-0.165-0.105-0.254
			c-0.027-0.095-0.042-0.192-0.042-0.295s0.015-0.2,0.042-0.295c0.024-0.089,0.062-0.175,0.105-0.255
			c0.099-0.173,0.242-0.317,0.416-0.416c0.079-0.045,0.163-0.08,0.253-0.104c0.097-0.025,0.194-0.041,0.296-0.041
			c0.104,0,0.201,0.015,0.297,0.041C72.899,40.507,72.983,40.542,73.062,40.587z"/>
	</g>
</g>
</svg>
