<?xml version="1.0" encoding="utf-8"?>
<!-- Generator: Adobe Illustrator 16.0.0, SVG Export Plug-In . SVG Version: 6.00 Build 0)  -->
<!DOCTYPE svg PUBLIC "-//W3C//DTD SVG 1.1//EN" "http://www.w3.org/Graphics/SVG/1.1/DTD/svg11.dtd">
<svg version="1.1" id="Layer_1" xmlns="http://www.w3.org/2000/svg" xmlns:xlink="http://www.w3.org/1999/xlink" x="0px" y="0px"
	 width="100px" height="100px" viewBox="0 0 100 100" enable-background="new 0 0 100 100" xml:space="preserve">
<g>
	<path d="M78.689,13.32h-9.564c-1.09,0-2.047,0.956-2.047,2.048c0,1.094,0.957,2.05,2.047,2.05h4.646l-4.781,4.645l-3.416-3.415
		c-0.818-0.82-2.049-0.82-2.869,0c-0.818,0.82-0.818,2.049,0,2.869l3.415,3.415l-2.048,2.05c-6.283-5.191-14.891-6.694-22.542-3.689
		c-1.093,0.41-1.639,1.64-1.23,2.596c0.411,1.094,1.64,1.64,2.596,1.23c6.831-2.596,14.482-0.957,19.672,4.234
		c1.777,1.776,3.142,3.825,4.099,6.147c0.274,0.819,1.095,1.229,1.913,1.229c0.273,0,0.545,0,0.818-0.137
		c1.094-0.409,1.504-1.639,1.094-2.596c-0.82-2.186-2.049-4.234-3.551-6.011l2.049-2.049l3.415,3.415
		c0.409,0.41,0.956,0.547,1.503,0.547s1.094-0.137,1.503-0.547c0.818-0.819,0.818-2.049,0-2.869l-3.416-3.415l4.645-4.646v4.646
		c0,1.093,0.957,2.05,2.05,2.05c1.092,0,2.049-0.957,2.049-2.05v-9.563c0-0.273,0-0.546-0.137-0.683l0,0
		c-0.273-0.546-0.547-0.956-1.094-1.093l0,0C79.236,13.32,78.963,13.32,78.689,13.32z"/>
	<path d="M65.71,60.178c2.597-2.596,4.646-6.011,5.74-9.562c0.271-1.094-0.273-2.186-1.368-2.596
		c-1.092-0.273-2.184,0.273-2.594,1.365c-0.821,2.869-2.461,5.602-4.646,7.787c-3.416,3.415-8.061,5.465-12.978,5.465
		c-4.918,0-9.563-1.913-12.979-5.465c-6.011-6.011-7.104-15.164-2.868-22.403c0.546-0.957,0.272-2.187-0.684-2.869
		c-0.956-0.547-2.186-0.273-2.868,0.683c-5.191,8.88-3.826,20.082,3.415,27.459c4.235,4.235,9.973,6.558,15.984,6.558
		C55.874,66.599,61.341,64.55,65.71,60.178z"/>
	<path d="M99.729,34.084c-0.273-0.546-0.547-0.955-1.093-1.092l0,0c-0.273-0.137-0.547-0.137-0.684-0.137h-9.836
		c-1.094,0-2.05,0.956-2.05,2.049s0.956,2.05,2.05,2.05h4.781l-9.563,9.562c-4.098-3.415-9.152-5.191-14.48-5.191
		c-6.012,0-11.748,2.322-15.984,6.558c-2.595,2.596-4.645,6.011-5.737,9.562c-0.273,1.094,0.273,2.186,1.366,2.596
		c1.093,0.273,2.186-0.273,2.597-1.365c0.819-2.869,2.458-5.602,4.643-7.787c3.415-3.416,8.062-5.465,12.979-5.465
		s9.563,1.912,12.979,5.465c7.239,7.24,7.239,18.852,0,26.092c-3.416,3.416-8.062,5.465-12.979,5.465s-9.564-1.912-12.979-5.465
		c-1.774-1.775-3.142-3.825-4.097-6.146c-0.41-1.094-1.64-1.504-2.596-1.094c-1.093,0.41-1.502,1.641-1.093,2.597
		c1.093,2.868,2.87,5.328,5.055,7.513c4.236,4.235,9.973,6.557,15.984,6.557s11.748-2.321,15.984-6.557
		c8.331-8.332,8.742-21.447,1.364-30.328l9.563-9.562v4.644c0,1.094,0.956,2.05,2.05,2.05c1.093,0,2.048-0.956,2.048-2.05v-9.835
		C99.863,34.495,99.863,34.358,99.729,34.084L99.729,34.084z"/>
	<path d="M29.646,60.587c-2.186,0.957-4.645,1.504-7.104,1.504c-10.109,0-18.442-8.334-18.442-18.443s8.196-18.442,18.442-18.442
		s18.442,8.333,18.442,18.442c0,3.143-0.82,6.284-2.322,8.88c-0.546,0.957-0.137,2.186,0.82,2.732s2.186,0.137,2.732-0.819
		c1.913-3.279,2.869-7.104,2.869-10.93c0-12.295-10.11-22.404-22.542-22.404C10.11,21.106,0,31.216,0,43.647
		c0,11.749,9.017,21.448,20.492,22.404v9.835h-4.781c-1.093,0-2.05,0.957-2.05,2.052c0,1.092,0.957,2.048,2.05,2.048h4.781v4.646
		c0,1.093,0.956,2.048,2.049,2.048s2.049-0.955,2.049-2.048v-4.646h4.781c1.093,0,2.05-0.956,2.05-2.048
		c0-1.095-0.957-2.052-2.05-2.052h-4.781v-9.835c2.322-0.273,4.508-0.819,6.694-1.639c1.092-0.41,1.502-1.64,1.092-2.732
		C31.968,60.724,30.738,60.178,29.646,60.587z"/>
</g>
</svg>
