<?xml version="1.0" encoding="utf-8"?>
<!-- Generator: Adobe Illustrator 16.0.0, SVG Export Plug-In . SVG Version: 6.00 Build 0)  -->
<!DOCTYPE svg PUBLIC "-//W3C//DTD SVG 1.1//EN" "http://www.w3.org/Graphics/SVG/1.1/DTD/svg11.dtd">
<svg version="1.1" id="Layer_1" xmlns="http://www.w3.org/2000/svg" xmlns:xlink="http://www.w3.org/1999/xlink" x="0px" y="0px"
	 width="100px" height="100px" viewBox="0 0 100 100" enable-background="new 0 0 100 100" xml:space="preserve">
<g>
	<path d="M33.255,55.93c-0.637-1.83-1.056-3.781-1.056-5.808c0-9.812,7.993-17.804,17.804-17.804c2.044,0,3.978,0.419,5.804,1.055
		l8.454-8.455c-4.851-2.033-9.718-3.37-14.262-3.37c-27.944,0-50,28.57-50,28.57s8.026,10.337,20.482,18.589L33.255,55.93z
		 M77.844,32.289L66.525,43.607c0.808,2.021,1.278,4.214,1.278,6.519c0,9.804-7.992,17.812-17.804,17.812
		c-2.304,0-4.493-0.478-6.519-1.285l-9.144,9.154c4.915,1.774,10.166,2.896,15.663,2.896c21.375,0,50-28.577,50-28.577
		S90.219,40.389,77.844,32.289z M85.342,9.066L8.723,85.688l5.24,5.245l76.616-76.626L85.342,9.066z"/>
</g>
</svg>
