<?xml version="1.0" encoding="utf-8"?>
<!-- Generator: Adobe Illustrator 16.0.0, SVG Export Plug-In . SVG Version: 6.00 Build 0)  -->
<!DOCTYPE svg PUBLIC "-//W3C//DTD SVG 1.1 Tiny//EN" "http://www.w3.org/Graphics/SVG/1.1/DTD/svg11-tiny.dtd">
<svg version="1.1" baseProfile="tiny" id="Layer_1" xmlns="http://www.w3.org/2000/svg" xmlns:xlink="http://www.w3.org/1999/xlink"
	 x="0px" y="0px" width="100px" height="100px" viewBox="0 0 100 100" xml:space="preserve">
<g>
	<rect x="2.5" y="4.938" width="95" height="1.744"/>
	<rect x="2.5" y="13.777" width="95" height="1.741"/>
	<path d="M97.5,40.29H60.182c1.811-1.934,3.059-4.371,3.52-7.097H97.5v-1.744H63.879c0.007-0.198,0.058-0.384,0.058-0.582
		c0-2.368-0.647-4.562-1.694-6.513H97.5v-1.744H61.155c-2.527-3.393-6.537-5.621-11.089-5.621s-8.556,2.228-11.079,5.621H2.5v1.744
		h35.402c-1.044,1.951-1.691,4.144-1.691,6.513c0,0.198,0.049,0.383,0.059,0.582H2.5v1.744h33.946
		c0.461,2.724,1.709,5.163,3.511,7.097H2.5v1.744h39.427c2.288,1.668,5.086,2.685,8.138,2.685c3.053,0,5.853-1.017,8.143-2.685H97.5
		V40.29z"/>
	<path d="M97.5,49.123H76.123c-2.563-1.191-5.56-1.823-8.832-1.823h-0.649h-7.524v6.418h-0.012v0.015h-1.741v-0.015h-0.278V47.3
		H43.523v6.418h-0.281v0.015h-1.744v-0.015h-0.006V47.3h-7.579H33.14c-3.272,0-6.273,0.629-8.838,1.823H2.5v1.744h18.904
		c-2.318,1.761-4.063,4.138-4.995,7.097H2.5v1.744h13.468c-0.219,1.117-0.333,2.301-0.333,3.553v3.543H2.5v1.744h13.132v7.094H2.5
		v1.744h13.132v7.094H2.5v1.742h13.132v7.098H2.5v1.744h13.132l0,0h12.383v-0.006h0.003V67.676h3.906v27.387H68.52v-0.006h0.012
		V67.676h3.859v27.381h0.016v0.006h12.377v-0.006H97.5v-1.744H84.783v-7.096H97.5v-1.744H84.783v-7.092H97.5v-1.744H84.783v-7.092
		H97.5v-1.744H84.783v-3.545c0-1.25-0.118-2.434-0.334-3.551H97.5v-1.744H84.01c-0.932-2.957-2.676-5.336-4.99-7.098H97.5V49.123z
		 M63.626,66.451H36.74v-10.9h26.886V66.451z"/>
</g>
</svg>
