<?xml version="1.0" encoding="utf-8"?>
<!-- Generator: Adobe Illustrator 16.0.0, SVG Export Plug-In . SVG Version: 6.00 Build 0)  -->
<!DOCTYPE svg PUBLIC "-//W3C//DTD SVG 1.1//EN" "http://www.w3.org/Graphics/SVG/1.1/DTD/svg11.dtd">
<svg version="1.1" id="Layer_1" xmlns="http://www.w3.org/2000/svg" xmlns:xlink="http://www.w3.org/1999/xlink" x="0px" y="0px"
	 width="100px" height="100px" viewBox="0 0 100 100" enable-background="new 0 0 100 100" xml:space="preserve">
<g>
	<path d="M81.201,93.575l-1.263-0.96c-1.472-0.984-8.244-6.507-14.993-13.275c-0.132-0.129-0.3-0.212-0.478-0.235
		c-3.774-0.462-7.354-1.874-10.359-4.075c-0.254-0.185-0.61-0.21-0.887-0.052c-2.711,1.526-5.714,2.302-8.919,2.302
		c-5.094,0-9.934-2.1-13.274-5.758c-0.243-0.271-0.661-0.348-0.977-0.181c-2.592,1.334-5.644,2.691-8.636,2.691
		c-4.791,0-7.746-0.84-11.567-5.621c-0.089-0.109-0.13-0.234-0.157-0.343C0.753,65.274,0,59.534,0,53.895
		c0-2.075,0.435-4.191,1.259-6.123c0.086-0.206,0.086-0.439-0.001-0.643C0.435,45.196,0,43.078,0,41.002
		c0-6.992,4.691-13.226,11.675-15.51c0.256-0.083,0.454-0.288,0.529-0.544c2.099-7.037,9.012-11.952,16.812-11.952
		c0.727,0,1.465,0.044,2.196,0.13c0.331-0.001,0.573-0.104,0.73-0.293c3.295-4.014,8.466-6.409,13.834-6.409
		c4.676,0,9.058,1.708,12.341,4.81c0.215,0.204,0.532,0.273,0.818,0.182c2.661-0.875,5.459-1.318,8.305-1.318
		c11.831,0,21.938,7.537,24.577,18.327c0.05,0.21,0.178,0.386,0.36,0.501C97.074,31.98,100,37.103,100,42.629
		c0,3.895-1.483,7.681-4.174,10.655c-0.185,0.207-0.257,0.488-0.185,0.756c0.327,1.278,0.498,2.591,0.498,3.912
		c0,5.925-3.415,11.417-8.912,14.329c-0.144,0.076-0.261,0.189-0.335,0.328c-1.273,2.308-3.329,4.2-5.789,5.342
		c-0.3,0.137-0.488,0.441-0.474,0.772L81.201,93.575z M53.625,73.779c0.407,0,0.798,0.127,1.126,0.369
		c2.859,2.091,6.263,3.434,9.849,3.872c0.415,0.052,0.812,0.245,1.116,0.544c6.113,6.137,12.217,11.216,14.307,12.768L79.541,78.76
		c-0.03-0.774,0.402-1.479,1.105-1.802c2.252-1.043,4.131-2.776,5.292-4.876c0.176-0.327,0.444-0.591,0.774-0.767
		c5.137-2.725,8.332-7.851,8.332-13.369c0-1.228-0.156-2.448-0.464-3.637c-0.16-0.621,0-1.277,0.433-1.756
		c2.509-2.778,3.894-6.305,3.894-9.929c0-5.148-2.731-9.924-7.309-12.777c-0.427-0.268-0.729-0.68-0.843-1.167
		c-2.52-10.301-12.188-17.496-23.516-17.496c-2.732,0-5.409,0.424-7.966,1.265c-0.657,0.218-1.406,0.05-1.905-0.424
		c-3.082-2.911-7.198-4.513-11.593-4.513c-5.043,0-9.901,2.247-12.992,6.011c-0.415,0.503-1.057,0.764-1.706,0.682
		c-0.684-0.08-1.381-0.121-2.063-0.121c-7.32,0-13.804,4.591-15.765,11.171c-0.179,0.599-0.639,1.074-1.237,1.27
		C5.48,28.664,1.091,34.481,1.091,40.999c0,1.932,0.404,3.9,1.17,5.7c0.204,0.474,0.204,1.02,0.001,1.496
		c-0.768,1.801-1.171,3.771-1.171,5.697c0,5.504,0.7,10.652,9.159,13.201c0.387,0.116,0.464,0.501,0.495,0.666
		c3.52,4.428,6.142,5.179,10.67,5.179c2.76,0,5.66-1.3,8.134-2.569c0.733-0.383,1.724-0.203,2.284,0.417
		c3.134,3.433,7.679,5.401,12.467,5.401c3.017,0,5.836-0.729,8.384-2.164C52.976,73.865,53.295,73.779,53.625,73.779z
		 M78.009,87.266l-1.076-1.286c-1.268-1.525-3.132-3.118-4.932-4.662c-1.055-0.898-2.051-1.753-2.931-2.589l-0.417-0.393
		c-0.642-0.616-1.362-1.298-2.184-2.089l-0.282-0.271l-0.396-0.03c-2.816-0.211-5.596-1.059-8.037-2.459
		c-0.03-0.016-2.206-1.316-3.158-2.31c-2.696,1.777-7.183,2.825-10.163,2.825c-5.2,0-9.542-1.911-11.911-5.247
		c-0.064-0.071-0.29-0.271-0.559-0.512c-0.577-0.516-0.943-0.855-1.177-1.104l-2.057,1.032c-0.724,0.362-1.315,0.694-1.849,0.994
		c-1.4,0.784-2.412,1.352-4.165,1.587c-4.937,0.669-9.19-1.474-10.979-5.479l-0.193-0.135c-6.516-2.107-7.999-4.107-8.285-11.221
		c-0.077-1.946,0.435-3.947,1.525-5.946l0.285-0.525l-0.283-0.52c-1.007-1.85-1.52-3.842-1.52-5.925
		c0-6.12,4.479-11.385,10.894-12.802l0.712-0.157L15,27.319c1.113-6.403,7.005-11.05,14.01-11.05c1.138,0,2.273,0.126,3.38,0.378
		l0.747,0.17l0.417-0.648c2.546-3.991,7.229-6.471,12.221-6.471c3.199,0,6.22,0.968,8.732,2.798c0.027,0.02,2.28,1.729,2.845,2.681
		c2.737-1.041,6.902-1.807,9.885-1.807c10.755,0,19.857,7.146,21.643,16.99l0.096,0.527l0.475,0.248
		c4.484,2.333,7.273,6.735,7.273,11.493c0,2.569-1.081,5.222-3.123,7.674l-1.952,2.015c0.046,0.144,0.1,0.317,0.158,0.538
		c0.033,0.118,0.058,0.219,0.077,0.268l0.11,0.274c0.581,1.457,0.871,2.992,0.871,4.554c-0.002,5.057-3.045,9.583-7.943,11.82
		l-0.375,0.173l-0.167,0.379c-1.218,2.769-3.822,4.789-6.975,5.407l-0.161,0.052L78.009,87.266z M55.242,70.3
		c0.361,0.455,2.491,1.916,3.056,2.239c2.299,1.322,4.925,2.121,7.575,2.316l0.786,0.06l0.571,0.545
		c0.815,0.788,1.532,1.472,2.175,2.085l0.416,0.394c0.86,0.818,1.844,1.66,2.885,2.552c1.388,1.19,2.815,2.404,4.002,3.616
		L76.1,75.009l1.03-0.338c2.865-0.562,5.176-2.348,6.247-4.789l0.338-0.761l0.755-0.344c4.505-2.054,7.302-6.207,7.304-10.828
		c0-1.428-0.266-2.822-0.795-4.149l-0.109-0.272c-0.024-0.063-0.07-0.213-0.113-0.385c-0.051-0.17-0.149-0.53-0.197-0.621
		l-0.383-0.38l0.426-0.32l2.185-2.249c1.852-2.223,2.844-4.634,2.844-6.944c0-4.348-2.562-8.38-6.686-10.524l-0.946-0.493
		l-0.192-1.056c-1.69-9.327-10.339-16.095-20.569-16.095c-2.99,0-7.217,0.801-9.823,1.865l-0.333,0.137l-0.678-0.676l-0.006-0.123
		c-0.293-0.439-2.061-1.944-2.536-2.288c-2.322-1.691-5.118-2.587-8.085-2.587c-4.625,0-8.954,2.286-11.302,5.966l-0.826,1.291
		l-1.494-0.338c-1.027-0.233-2.084-0.35-3.14-0.35c-6.473,0-11.913,4.267-12.935,10.149l-0.253,1.441l-1.427,0.316
		C8.488,30.57,4.362,35.396,4.362,40.999c0,1.897,0.466,3.716,1.385,5.406l0.57,1.04l-0.574,1.046
		c-0.991,1.825-1.461,3.633-1.389,5.378c0.278,6.964,1.778,8.371,7.6,10.257l0.454,0.261l0.298,0.368
		c1.573,3.601,5.396,5.518,9.866,4.917c1.546-0.211,2.435-0.709,3.777-1.46c0.544-0.305,1.155-0.648,1.894-1.018l3.271-1.643v0.756
		c0.197,0.245,0.85,0.83,1.178,1.124c0.475,0.421,0.633,0.57,0.721,0.687c2.162,3.046,6.179,4.792,11.021,4.792
		c2.905,0,7.534-1.111,9.946-2.91l0.796-0.595L55.242,70.3z"/>
	<path d="M62.046,45.964H35.452c-2.571,0-4.665-2.092-4.665-4.666c0-2.113,1.415-3.956,3.453-4.502
		c0.9-2.174,2.883-3.706,5.209-4.031c0.321-5.128,4.568-9.126,9.727-9.126c3.69,0,7.101,2.124,8.737,5.426
		c1.268-0.661,2.689-1.01,4.135-1.01c4.936,0,8.952,4.019,8.952,8.957C71,41.947,66.982,45.964,62.046,45.964z M49.176,24.73
		c-4.621,0-8.418,3.613-8.643,8.224l-0.042,0.782l-0.775,0.094c-2.017,0.24-3.739,1.561-4.493,3.448l-0.176,0.439l-0.457,0.116
		c-1.597,0.397-2.708,1.824-2.708,3.464c0,1.972,1.602,3.574,3.572,3.574h26.595c4.333,0,7.861-3.527,7.861-7.861
		c0-4.335-3.528-7.864-7.861-7.864c-1.319,0-2.619,0.331-3.763,0.958l-0.863,0.47l-0.42-0.889
		C55.575,26.674,52.5,24.73,49.176,24.73z M62.046,43.623H35.452c-1.283,0-2.324-1.043-2.324-2.325c0-1.255,1.021-2.298,2.275-2.322
		l0.653,0.02l0.103-0.515c0.45-2.232,2.621-3.786,4.957-3.374l0.844,0.148l-0.119-0.85c-0.048-0.349-0.072-0.694-0.072-1.022
		c0-4.083,3.323-7.407,7.406-7.407c3.51,0,6.561,2.492,7.258,5.925l0.226,1.106l0.814-0.781c1.245-1.183,2.866-1.831,4.572-1.831
		c3.646,0,6.613,2.967,6.613,6.614C68.659,40.655,65.692,43.623,62.046,43.623z M35.416,39.522l0.009,0.543
		c-0.666,0.015-1.206,0.567-1.206,1.233c0,0.679,0.554,1.234,1.233,1.234h26.594c3.042,0,5.521-2.478,5.521-5.522
		c0-3.047-2.479-5.525-5.521-5.525c-1.427,0-2.783,0.543-3.815,1.532l-2.246,2.146l-0.622-3.045
		c-0.593-2.925-3.193-5.048-6.187-5.048c-3.483,0-6.317,2.833-6.317,6.315c0,0.28,0.022,0.575,0.062,0.872l0.323,2.332l-2.318-0.408
		c-1.742-0.305-3.361,0.85-3.697,2.516l-0.288,1.42l-1.48-0.05L35.416,39.522z"/>
	<path d="M30.668,53.158c-0.139,0-0.279-0.056-0.385-0.162c-0.214-0.213-0.214-0.558,0-0.771l4.183-4.185
		c0.214-0.213,0.561-0.213,0.772,0c0.214,0.213,0.213,0.56,0,0.771l-4.184,4.185C30.947,53.103,30.808,53.158,30.668,53.158z"/>
	<path d="M36.67,53.158c-0.139,0-0.279-0.056-0.386-0.162c-0.213-0.213-0.213-0.558,0-0.771l4.184-4.185
		c0.213-0.213,0.56-0.213,0.772,0c0.214,0.213,0.213,0.56,0,0.771l-4.183,4.185C36.949,53.103,36.809,53.158,36.67,53.158z"/>
	<path d="M42.673,53.158c-0.139,0-0.278-0.056-0.384-0.162c-0.214-0.213-0.214-0.558,0-0.771l4.183-4.185
		c0.214-0.213,0.56-0.213,0.772,0c0.214,0.213,0.212,0.56,0,0.771l-4.184,4.185C42.952,53.103,42.813,53.158,42.673,53.158z"/>
	<path d="M48.676,53.158c-0.139,0-0.279-0.056-0.385-0.162c-0.213-0.213-0.213-0.558,0-0.771l4.185-4.185
		c0.211-0.213,0.559-0.213,0.771,0c0.216,0.213,0.216,0.56,0,0.771l-4.184,4.185C48.955,53.103,48.814,53.158,48.676,53.158z"/>
	<path d="M54.679,53.158c-0.138,0-0.277-0.056-0.383-0.162c-0.216-0.213-0.216-0.558,0-0.771l4.183-4.185
		c0.212-0.213,0.556-0.213,0.771,0c0.214,0.213,0.212,0.56,0,0.771l-4.183,4.185C54.959,53.103,54.821,53.158,54.679,53.158z"/>
	<path d="M35.579,59.521c-0.139,0-0.279-0.053-0.386-0.161c-0.211-0.211-0.211-0.556,0-0.77l4.186-4.181
		c0.211-0.215,0.558-0.215,0.772,0c0.212,0.211,0.211,0.556,0,0.771l-4.186,4.18C35.86,59.469,35.718,59.521,35.579,59.521z"/>
	<path d="M41.583,59.521c-0.139,0-0.28-0.053-0.385-0.161c-0.212-0.211-0.212-0.556,0-0.77l4.183-4.181
		c0.212-0.215,0.558-0.215,0.772,0c0.212,0.211,0.211,0.556,0,0.771l-4.184,4.18C41.864,59.469,41.724,59.521,41.583,59.521z"/>
	<path d="M47.584,59.521c-0.139,0-0.279-0.053-0.386-0.161c-0.211-0.211-0.211-0.556,0-0.77l4.187-4.181
		c0.214-0.215,0.556-0.215,0.771,0c0.215,0.211,0.214,0.556,0,0.771l-4.184,4.18C47.864,59.469,47.726,59.521,47.584,59.521z"/>
	<path d="M53.588,59.521c-0.137,0-0.279-0.053-0.387-0.161c-0.213-0.211-0.213-0.556,0-0.77l4.184-4.181
		c0.214-0.215,0.56-0.215,0.771,0c0.216,0.211,0.215,0.556,0,0.771l-4.183,4.18C53.864,59.469,53.729,59.521,53.588,59.521z"/>
	
		<line fill="none" stroke="#010101" stroke-width="1.3643" stroke-linecap="round" stroke-linejoin="round" stroke-miterlimit="10" x1="64.868" y1="48.427" x2="60.682" y2="52.609"/>
</g>
</svg>
