<?xml version="1.0" encoding="utf-8"?>
<!-- Generator: Adobe Illustrator 16.0.0, SVG Export Plug-In . SVG Version: 6.00 Build 0)  -->
<!DOCTYPE svg PUBLIC "-//W3C//DTD SVG 1.1//EN" "http://www.w3.org/Graphics/SVG/1.1/DTD/svg11.dtd">
<svg version="1.1" id="Layer_1" xmlns="http://www.w3.org/2000/svg" xmlns:xlink="http://www.w3.org/1999/xlink" x="0px" y="0px"
	 width="100px" height="100px" viewBox="0 0 100 100" enable-background="new 0 0 100 100" xml:space="preserve">
<g>
	<path d="M83.312,29.416l11.023-7.763l-2.938-6.656l-17.438-5.19l-6.49,4.021l5.294,11.93c-1.689-0.271-3.423-0.419-5.192-0.419
		c-6.484,0-12.521,1.911-17.588,5.191c-5.062-3.272-11.081-5.191-17.558-5.191C14.518,25.339,0,39.857,0,57.765
		c0,17.909,14.518,32.429,32.428,32.429c6.485,0,12.521-1.912,17.588-5.19c5.062,3.271,11.082,5.19,17.56,5.19
		c17.906,0,32.425-14.52,32.425-32.429C100,45.57,93.265,34.952,83.312,29.416z M67.572,82.034c-3.957,0-7.688-0.965-10.98-2.652
		c5.135-5.738,8.262-13.311,8.262-21.617c0-2.567-0.309-5.063-0.872-7.459l-0.973-0.781l-2.416,4.475l-4.412-2.441l-0.416,0.692
		c0.469,1.867,0.72,3.818,0.72,5.829c0,6.32-2.462,12.063-6.479,16.346c-1.608-1.716-2.978-3.658-4.029-5.785l-4.085-2.354
		l-2.475,4.734l-2.179-1.785c1.426,3.771,3.54,7.2,6.18,10.15c-3.295,1.69-7.03,2.65-10.992,2.65
		c-13.288,0-24.057-10.725-24.057-23.955c0-13.229,10.769-23.954,24.057-23.954c3.809,0,7.409,0.883,10.609,2.453
		c-4.912,5.684-7.89,13.084-7.89,21.186c0,2.598,0.314,5.121,0.891,7.544l2.888,2.217l2.32-4.523l3.206,1.688
		c-0.604-2.101-0.935-4.316-0.935-6.61c0-6.324,2.465-12.07,6.485-16.352c1.992,2.123,3.603,4.607,4.719,7.344l0.45-1.296
		l4.844,2.93l2.573-4.681l0.098,0.084c-1.355-3.515-3.319-6.721-5.739-9.521c3.206-1.574,6.812-2.462,10.627-2.462
		c13.287,0,24.058,10.725,24.058,23.954C91.629,71.311,80.859,82.034,67.572,82.034z"/>
</g>
</svg>
