<?xml version="1.0" encoding="utf-8"?>
<!-- Generator: Adobe Illustrator 16.0.0, SVG Export Plug-In . SVG Version: 6.00 Build 0)  -->
<!DOCTYPE svg PUBLIC "-//W3C//DTD SVG 1.1//EN" "http://www.w3.org/Graphics/SVG/1.1/DTD/svg11.dtd">
<svg version="1.1" id="Layer_1" xmlns="http://www.w3.org/2000/svg" xmlns:xlink="http://www.w3.org/1999/xlink" x="0px" y="0px"
	 width="100px" height="100px" viewBox="0 0 100 100" enable-background="new 0 0 100 100" xml:space="preserve">
<g>
	<g>
		<g>
			<path d="M84.464,55.627c-1.207-0.114-2.419-0.167-3.632-0.237c-4.957-0.282-9.915-0.562-14.874-0.841
				c-1.689-0.093-3.004,0.556-4.036,1.911c-2.398,3.149-4.838,6.267-7.263,9.396c-0.162,0.209-0.345,0.405-0.562,0.66
				c-0.219-0.362-0.37-0.604-0.513-0.856c-2.429-4.197-4.833-8.409-7.299-12.585c-0.407-0.689-0.367-1.107,0.128-1.716
				c3.734-4.597,7.442-9.215,11.135-13.847c1.264-1.589,1.042-3.621-0.441-4.777c-1.517-1.179-3.514-0.936-4.772,0.627
				c-5.594,6.957-11.195,13.91-16.739,20.907c-0.678,0.857-1.187,1.928-1.5,2.98c-1.414,4.726-2.742,9.479-4.063,14.231
				c-0.173,0.621-0.479,0.869-1.082,1.017c-3.841,0.934-7.665,1.934-11.511,2.847c-0.907,0.214-1.399,0.746-1.718,1.525
				c-0.523,1.277-0.195,2.697,0.816,3.66c1.004,0.956,2.427,1.175,3.694,0.583c0.363-0.17,0.727-0.363,1.112-0.463
				c3.126-0.815,6.267-1.576,9.386-2.417c4.311-1.164,3.548-0.038,5.097-4.858c0.595-1.854,1.196-3.704,1.845-5.711
				c0.249,0.374,0.409,0.599,0.55,0.836c2.372,3.964,4.708,7.949,7.122,11.888c1.484,2.421,3.645,3.73,6.569,3.526
				c3.544-0.249,7.088-0.491,10.629-0.784c0.619-0.052,0.91,0.115,1.196,0.656c1.99,3.779,4.003,7.546,6.035,11.303
				c1.215,2.245,3.771,3.04,5.922,1.885c2.128-1.142,2.904-3.652,1.726-5.896c-2.592-4.929-5.211-9.845-7.871-14.737
				c-0.803-1.472-2.082-2.292-3.849-2.139c-0.604,0.053-1.209,0.088-1.815,0.129c-1.679,0.116-3.358,0.229-5.135,0.354
				c0.117-0.21,0.159-0.314,0.227-0.402c2.732-3.51,5.463-7.022,8.215-10.517c0.16-0.2,0.527-0.352,0.789-0.34
				c3.229,0.142,6.459,0.322,9.689,0.483c2.135,0.109,4.268,0.265,6.404,0.291c2.333,0.027,4.207-1.782,4.294-4.008
				C88.459,57.755,86.852,55.854,84.464,55.627z"/>
		</g>
		<g>
			<path d="M15.535,51.873c2.29-5.657,6.186-9.566,11.745-11.76c0.521,0.45,0.95,0.821,1.422,1.229
				c0.324-0.803,0.601-1.489,0.951-2.354c0.777,0.811,1.495,1.407,2.022,2.146c0.783,1.095,1.431,2.29,2.137,3.447
				c0.937-0.288,1.541-0.808,1.637-1.683c-1.028-0.754-1.974-1.4-2.864-2.118c-0.958-0.772-1.863-1.613-2.749-2.385
				c0.21-0.88,0.371-1.552,0.532-2.227c-0.225-0.038-0.34-0.097-0.425-0.066c-4.187,1.478-8.366,2.985-12.563,4.433
				c-0.746,0.256-0.961,0.803-1.187,1.43c-1.408,3.884-2.821,7.766-4.224,11.651c-0.123,0.336-0.186,0.695-0.34,1.286
				c1.81-0.559,3.386-1.046,5.099-1.575C16.271,52.772,15.931,52.357,15.535,51.873z"/>
		</g>
		<g>
			<path d="M32.193,46.664c-0.002-0.003-0.009-0.01-0.018-0.018c-0.19-0.192-0.391-0.374-0.602-0.543
				c-0.667-0.595-1.627-1.45-1.627-1.45c-0.959-0.978-1.845-1.884-2.777-2.836c-4.481,2.069-7.714,5.252-9.79,9.631
				c0.97,0.991,1.826,1.865,2.756,2.814c0,0,2.572,2.782,2.714,2.726v-0.001c1.21,0.975,2.739,1.563,4.395,1.566
				c3.784,0.007,6.969-3.236,6.949-7.075C34.184,49.612,33.419,47.914,32.193,46.664C32.193,46.666,32.193,46.665,32.193,46.664z"/>
		</g>
	</g>
	<g>
		<path d="M76.535,48.236c-0.67,0-1.213-0.544-1.213-1.213V20.755c0-0.671,0.543-1.214,1.213-1.214c0.671,0,1.214,0.543,1.214,1.214
			v26.267C77.75,47.692,77.206,48.236,76.535,48.236z"/>
	</g>
	<g>
		<path d="M20.173,31.195c-0.671,0-1.214-0.544-1.214-1.215V3.714c0-0.671,0.543-1.214,1.214-1.214c0.67,0,1.214,0.543,1.214,1.214
			V29.98C21.388,30.651,20.843,31.195,20.173,31.195z"/>
	</g>
	<g>
		<path d="M70.168,42.513c-0.674,0-1.215-0.543-1.215-1.213V15.031c0-0.67,0.543-1.214,1.215-1.214c0.67,0,1.212,0.544,1.212,1.214
			v26.267C71.38,41.97,70.838,42.513,70.168,42.513z"/>
	</g>
	<g>
		<path d="M82.903,35.495c-0.671,0-1.215-0.544-1.215-1.215V15.031c0-0.67,0.544-1.214,1.215-1.214s1.214,0.544,1.214,1.214v19.248
			C84.118,34.95,83.574,35.495,82.903,35.495z"/>
	</g>
	<g>
		<path d="M13.37,37.31c-0.67,0-1.213-0.544-1.213-1.214V16.847c0-0.671,0.543-1.214,1.213-1.214c0.671,0,1.214,0.544,1.214,1.214
			v19.248C14.585,36.766,14.042,37.31,13.37,37.31z"/>
	</g>
</g>
</svg>
