<?xml version="1.0" encoding="utf-8"?>
<!-- Generator: Adobe Illustrator 16.0.0, SVG Export Plug-In . SVG Version: 6.00 Build 0)  -->
<!DOCTYPE svg PUBLIC "-//W3C//DTD SVG 1.1//EN" "http://www.w3.org/Graphics/SVG/1.1/DTD/svg11.dtd">
<svg version="1.1" id="Layer_1" xmlns="http://www.w3.org/2000/svg" xmlns:xlink="http://www.w3.org/1999/xlink" x="0px" y="0px"
	 width="100px" height="100px" viewBox="0 0 100 100" enable-background="new 0 0 100 100" xml:space="preserve">
<g>
	<path d="M20.972,94.8c-0.749,0-1.628-0.073-2.637-0.22c-1.009-0.146-2.051-0.48-3.125-1.001s-2.132-1.302-3.174-2.344
		c-1.042-1.041-1.97-2.466-2.783-4.272c-0.814-1.807-1.473-4.044-1.978-6.714c-0.505-2.669-0.757-5.908-0.757-9.717V49.194
		c0-3.775,0.269-6.966,0.806-9.57c0.537-2.604,1.245-4.761,2.124-6.47s1.863-3.043,2.954-4.004c1.09-0.96,2.181-1.668,3.271-2.124
		c1.09-0.456,2.132-0.732,3.125-0.83c0.993-0.098,1.814-0.146,2.466-0.146c1.204,0,2.344,0.163,3.418,0.488
		c1.074,0.326,2.051,0.757,2.93,1.294s1.66,1.14,2.344,1.807c0.684,0.667,1.253,1.343,1.709,2.026l0.049-0.049l-0.391-8.496V5.2
		h12.305v88.818h-9.619l-1.074-6.25c-0.554,0.879-1.188,1.742-1.904,2.588c-0.716,0.847-1.562,1.604-2.539,2.271
		c-0.977,0.668-2.083,1.196-3.32,1.587C23.934,94.604,22.534,94.8,20.972,94.8z M25.171,85.229c0.813,0,1.538-0.138,2.173-0.415
		c0.635-0.276,1.204-0.635,1.709-1.074c0.504-0.439,0.944-0.952,1.318-1.538c0.374-0.586,0.691-1.188,0.952-1.807v-40.43
		c-0.619-1.367-1.44-2.531-2.466-3.491s-2.271-1.44-3.735-1.44c-0.912,0-1.742,0.163-2.49,0.488c-0.749,0.326-1.4,0.936-1.953,1.831
		c-0.554,0.896-0.985,2.132-1.294,3.711c-0.31,1.579-0.464,3.622-0.464,6.128v25.781c0,2.507,0.154,4.558,0.464,6.152
		c0.309,1.596,0.74,2.841,1.294,3.735c0.553,0.896,1.212,1.514,1.978,1.855C23.421,85.059,24.259,85.229,25.171,85.229z"/>
	<path d="M56.323,5.2h12.354v17.92l-0.391,8.887l0.049,0.049c0.553-0.781,1.196-1.53,1.929-2.246
		c0.732-0.716,1.562-1.359,2.49-1.929c0.928-0.569,1.953-1.017,3.076-1.343c1.123-0.325,2.352-0.488,3.687-0.488
		c0.684,0,1.505,0.065,2.466,0.195c0.96,0.13,1.953,0.456,2.979,0.977c1.025,0.521,2.051,1.294,3.076,2.319s1.937,2.434,2.734,4.224
		c0.797,1.791,1.448,4.021,1.953,6.689c0.504,2.67,0.757,5.908,0.757,9.717v20.361c0,3.809-0.253,7.048-0.757,9.717
		c-0.505,2.67-1.164,4.907-1.978,6.714c-0.814,1.807-1.742,3.231-2.783,4.272c-1.042,1.042-2.1,1.823-3.174,2.344
		s-2.116,0.854-3.125,1.001c-1.01,0.146-1.889,0.22-2.637,0.22c-1.562,0-2.971-0.195-4.224-0.586
		c-1.254-0.391-2.36-0.919-3.32-1.587c-0.961-0.667-1.807-1.424-2.539-2.271c-0.732-0.846-1.376-1.709-1.929-2.588l-1.025,6.25
		h-9.668V5.2z M68.677,80.396c0.26,0.619,0.577,1.221,0.952,1.807c0.374,0.586,0.806,1.099,1.294,1.538s1.058,0.798,1.709,1.074
		c0.65,0.277,1.383,0.415,2.197,0.415c0.911,0,1.741-0.171,2.49-0.513c0.748-0.342,1.399-0.96,1.953-1.855
		c0.553-0.895,0.984-2.14,1.294-3.735c0.309-1.595,0.464-3.646,0.464-6.152V47.241c0-2.506-0.155-4.549-0.464-6.128
		c-0.31-1.579-0.732-2.823-1.27-3.735c-0.537-0.911-1.181-1.529-1.929-1.855c-0.749-0.325-1.579-0.488-2.49-0.488
		c-1.53,0-2.792,0.447-3.784,1.343c-0.993,0.896-1.799,1.962-2.417,3.198V80.396z"/>
</g>
</svg>
