<?xml version="1.0" encoding="utf-8"?>
<!-- Generator: Adobe Illustrator 16.0.0, SVG Export Plug-In . SVG Version: 6.00 Build 0)  -->
<!DOCTYPE svg PUBLIC "-//W3C//DTD SVG 1.1//EN" "http://www.w3.org/Graphics/SVG/1.1/DTD/svg11.dtd">
<svg version="1.1" id="Layer_1" xmlns="http://www.w3.org/2000/svg" xmlns:xlink="http://www.w3.org/1999/xlink" x="0px" y="0px"
	 width="100px" height="100px" viewBox="0 0 100 100" enable-background="new 0 0 100 100" xml:space="preserve">
<g>
	<circle cx="49.997" cy="11.04" r="8.54"/>
	<path d="M75.683,30.777l-9.696-5.899c-2.819-1.881-4.702-2.097-9.404-2.097H50h-6.583c-4.702,0-6.583,0.216-9.404,2.097
		l-9.695,5.792c-1.59,0.899-2.53,2.834-1.995,4.827l3.617,13.527c0.602,2.25,2.934,3.61,5.182,3.006l0.449-0.113
		c2.248-0.604,3.595-2.933,2.993-5.182l-2.625-9.802l6.381-2.966l1.104,19.77h-6.353c-2.069,0-2.564,0.979-1.102,2.444l8.061,7.955
		l1.471,25.909c0.233,4.13,3.811,7.454,7.948,7.454h1.099c4.137,0,7.714-3.377,7.948-7.508l1.47-25.965l8.062-7.849
		c1.464-1.462,0.969-2.441-1.101-2.441h-6.354l1.107-19.768l6.381,3.074l-2.626,9.749c-0.602,2.247,0.746,4.556,2.994,5.157
		l0.448,0.109c2.248,0.601,4.58-0.75,5.183-3l3.616-13.504C78.212,33.561,77.272,31.677,75.683,30.777z"/>
</g>
</svg>
