<?xml version="1.0" encoding="utf-8"?>
<!-- Generator: Adobe Illustrator 16.0.0, SVG Export Plug-In . SVG Version: 6.00 Build 0)  -->
<!DOCTYPE svg PUBLIC "-//W3C//DTD SVG 1.1//EN" "http://www.w3.org/Graphics/SVG/1.1/DTD/svg11.dtd">
<svg version="1.1" id="Layer_1" xmlns="http://www.w3.org/2000/svg" xmlns:xlink="http://www.w3.org/1999/xlink" x="0px" y="0px"
	 width="100px" height="100px" viewBox="0 0 100 100" enable-background="new 0 0 100 100" xml:space="preserve">
<g>
	<g>
		<path d="M96.074,5.439H47.058c-2.163,0-3.922,1.76-3.922,3.922v19.644H1.96c-1.083,0-1.96,0.877-1.96,1.961V81.91
			c0,1.083,0.877,1.959,1.96,1.959h17.646v8.73c0,0.75,0.428,1.433,1.1,1.762c0.273,0.135,0.567,0.199,0.861,0.199
			c0.428,0,0.855-0.141,1.206-0.414l13.194-10.277H54.9c1.082,0,1.961-0.876,1.961-1.959V60.34h4.256
			c0.633,0,1.777,0.401,2.273,0.795l10.326,8.215c0.635,0.504,1.336,0.771,2.027,0.771c1.334,0,2.688-1.046,2.688-3.048v-6.733
			h17.646c2.162,0,3.922-1.759,3.922-3.922V9.36C99.996,7.201,98.238,5.439,96.074,5.439z M52.939,79.947H35.292
			c-0.437,0-0.861,0.146-1.206,0.412l-10.559,8.229v-6.682c0-1.084-0.878-1.959-1.961-1.959H3.921V32.926h39.214v23.493
			c0,2.163,1.759,3.921,3.922,3.921h5.882V79.947z M96.074,56.419H78.428c-2.16,0-3.92,1.759-3.92,3.921l-0.002,4.628l-8.674-6.899
			c-1.201-0.955-3.184-1.648-4.715-1.648h-14.06V9.361h49.017V56.419z"/>
		<g>
			<path fill-rule="evenodd" clip-rule="evenodd" d="M89.57,33.509c-3.373,1.329-7.111,2.2-9.924-0.326
				c-2.398-2.154-4.883-4.219-7.211-6.456c-0.318-0.307-0.652-0.595-1.053-0.96c-0.316,1.614-0.191,3.126-0.221,4.629
				c-0.012,0.572,0.029,1.147-0.021,1.716c-0.061,0.688,0.236,1.782-0.635,1.869c-1.039,0.102-1.113-1.109-1.17-1.832
				c-0.1-1.249,0.084-2.52,0.131-3.782c0.021-0.596,0.004-1.193,0.004-2.072c-0.49,0.622-0.826,1.055-1.168,1.483
				c-3.102,3.894-6.705,7.134-11.475,8.869c-1.605,0.584-2.051,0.643-3.266,0.284c2.543-1.604,5.088-2.932,7.369-4.657
				c2.32-1.754,4.492-3.646,6.105-6.369c-2.07,0.144-3.883,0.665-5.697,1.164c-1.033,0.284-2.014,0.318-2.951-0.249
				c-0.275-0.167-0.6-0.372-0.561-0.745c0.051-0.464,0.482-0.348,0.779-0.393c3.23-0.486,6.455-0.999,9.693-1.423
				c0.92-0.121,1.201-0.424,1.154-1.369c-0.17-3.401-0.367-3.583-3.613-2.817c-0.752,0.179-1.51,0.338-2.268,0.487
				c-0.145,0.028-0.305-0.035-0.484-0.06c0.111-0.627,0.65-0.59,1.023-0.746c2.217-0.93,4.471-1.78,6.506-3.086
				c0.75-0.48,1.553-0.928,1.816-1.893c0.135-0.497,0.473-0.582,0.953-0.466c1.184,0.289,2.191,0.917,3.066,1.71
				c0.617,0.56,0.521,1.031-0.439,1.188c-1.852,0.303-3.641,0.831-5.438,1.704c0.33,0.195,0.557,0.351,0.801,0.469
				c0.826,0.4,1.059,0.924,0.721,1.865c-0.893,2.484-0.844,2.515,1.678,2.042c1.844-0.346,3.686-0.712,5.52-1.103
				c1.52-0.324,2.682,0.406,3.828,1.213c0.248,0.175,0.393,0.46,0.318,0.75c-0.105,0.409-0.512,0.368-0.818,0.386
				c-2.771,0.155-5.547,0.292-8.32,0.438c-0.564,0.03-1.141,0-1.764,0.255C77.318,29.882,83.447,31.651,89.57,33.509z"/>
			<path fill-rule="evenodd" clip-rule="evenodd" d="M78.465,35.937c-0.383-1-3.395-2.342-4.406-1.934
				c-1.781,0.719-3.604,1.323-5.494,1.635c-1.582,0.261-3.201,1.122-4.781-0.099c-0.244-0.188-0.66-0.175-0.918,0.081
				c-0.26,0.26,0.004,0.517,0.104,0.771c0.896,2.266,0.914,4.614,0.688,6.993c-0.113,1.181-0.418,2.32-0.643,3.299
				c0.025,1.058,0.271,1.867,0.734,2.608c0.443,0.713,1.023,0.687,1.205-0.074c0.26-1.091,1.02-1.085,1.822-1.167
				c0.488-0.051,0.971-0.143,1.459-0.171c1.547-0.092,3.217-0.548,4.605-0.114c1.094,0.341,1.488,2.025,2.188,3.116
				c0.582,0.908,1.152,0.774,1.711,0.029c0.83-1.109,1.277-2.372,1.244-3.762c-0.061-2.49-0.148-4.979-0.252-7.468
				c-0.043-1.036-0.021-2.043,0.59-2.939C78.488,36.495,78.58,36.238,78.465,35.937z M75.26,41.935
				c-0.059,0.946-0.102,2.418-0.258,3.878c-0.115,1.082-0.42,1.189-1.234,0.491c-0.617-0.529-1.291-0.654-2.047-0.524
				c-1.768,0.304-3.539,0.592-5.297,0.945c-0.717,0.145-0.98-0.003-0.877-0.758c0.07-0.522,0.053-1.059,0.064-1.589
				c0.043-1.739,0.043-1.727,1.824-1.972c1.656-0.229,3.307-0.491,4.961-0.732c0.293-0.042,0.633-0.086,0.715-0.377
				c0.104-0.362-0.209-0.602-0.482-0.778c-0.779-0.508-1.645-0.45-2.486-0.247c-1.227,0.296-2.447,0.626-3.646,1.016
				c-0.635,0.206-0.904,0.17-0.85-0.583c0.072-1.017-0.242-2.223,0.207-3.002c0.434-0.752,1.766-0.53,2.693-0.768
				c1.422-0.363,2.854-0.684,4.279-1.02c1.926-0.452,2.336-0.165,2.424,1.823C75.305,38.961,75.26,40.188,75.26,41.935z"/>
		</g>
	</g>
</g>
<path d="M12.938,69.908c0-0.106,0.054-0.16,0.16-0.16c0.254-0.013,0.551-0.05,0.892-0.109c0.34-0.061,0.687-0.187,1.041-0.381
	c0.354-0.193,0.697-0.48,1.03-0.86c0.334-0.381,0.614-0.904,0.842-1.571l8.047-23.344c0,0.014,0.004,0.008,0.011-0.02
	c0.006-0.026,0.01-0.053,0.01-0.08c0-0.093-0.037-0.21-0.11-0.351c-0.073-0.14-0.109-0.243-0.109-0.31
	c0-0.067,0.026-0.101,0.08-0.101h5.805c0.027,0.014,0.063,0.027,0.11,0.04c0.047,0.014,0.083,0.054,0.11,0.12l8.469,23.763
	c0.133,0.374,0.26,0.694,0.38,0.961c0.12,0.268,0.264,0.505,0.431,0.711c0.166,0.207,0.377,0.395,0.631,0.561
	c0.253,0.167,0.58,0.338,0.98,0.511c0.187,0.094,0.44,0.193,0.761,0.3c0.32,0.107,0.627,0.16,0.921,0.16
	c0.066,0,0.11,0.021,0.13,0.061c0.021,0.04,0.03,0.08,0.03,0.12v0.761c0,0.027-0.01,0.061-0.03,0.1
	c-0.02,0.041-0.063,0.061-0.13,0.061H29.375c-0.067,0-0.11-0.02-0.13-0.061c-0.021-0.039-0.03-0.072-0.03-0.1v-0.781
	c0-0.026,0.01-0.06,0.03-0.1c0.02-0.04,0.062-0.061,0.13-0.061c0.053,0,0.106-0.003,0.16-0.01c0.053-0.006,0.093-0.01,0.12-0.01
	c0.146-0.013,0.356-0.026,0.631-0.04c0.273-0.013,0.57-0.036,0.891-0.07c0.32-0.033,0.644-0.086,0.971-0.16
	c0.327-0.073,0.624-0.18,0.891-0.32c0.268-0.14,0.487-0.323,0.661-0.55c0.173-0.228,0.261-0.508,0.261-0.842
	c0-0.08-0.014-0.173-0.041-0.279l-2.622-7.228c-0.014-0.026-0.037-0.087-0.07-0.181c-0.033-0.093-0.087-0.189-0.16-0.29
	c-0.073-0.1-0.167-0.19-0.28-0.271s-0.25-0.119-0.41-0.119h-7.227c-0.174,0-0.32,0.039-0.441,0.119
	c-0.119,0.08-0.22,0.168-0.3,0.261c-0.08,0.094-0.144,0.188-0.19,0.28c-0.047,0.094-0.07,0.147-0.07,0.16
	c-0.427,1.255-0.787,2.312-1.08,3.173c-0.294,0.861-0.538,1.571-0.731,2.132s-0.344,0.995-0.45,1.302
	c-0.107,0.308-0.184,0.53-0.23,0.671c-0.047,0.14-0.077,0.243-0.09,0.311c0,0.039,0.007,0.083,0.02,0.13
	c0.014,0.047,0.027,0.09,0.041,0.13c0.106,0.334,0.303,0.61,0.59,0.831c0.287,0.22,0.617,0.394,0.991,0.521
	c0.373,0.127,0.757,0.217,1.151,0.27c0.394,0.054,0.743,0.08,1.051,0.08h0.521c0.066,0,0.11,0.021,0.13,0.061
	c0.021,0.04,0.03,0.073,0.03,0.1v0.781c0,0.027-0.01,0.061-0.03,0.1c-0.02,0.041-0.063,0.061-0.13,0.061H13.098
	c-0.106,0-0.16-0.053-0.16-0.16V69.908z M23.428,56.496c-0.026,0.066-0.047,0.133-0.06,0.199c-0.014,0.067-0.021,0.134-0.021,0.201
	c0,0.08,0.021,0.144,0.061,0.189c0.04,0.047,0.12,0.07,0.24,0.07h6.006c0.146,0,0.243-0.03,0.29-0.09
	c0.047-0.061,0.07-0.131,0.07-0.211c0-0.066-0.007-0.126-0.021-0.18c-0.013-0.053-0.033-0.113-0.06-0.18l-2.663-7.308
	c-0.066-0.187-0.167-0.323-0.3-0.41c-0.134-0.087-0.254-0.13-0.36-0.13c-0.107,0-0.228,0.05-0.36,0.149
	c-0.134,0.101-0.233,0.237-0.3,0.411L23.428,56.496z"/>
</svg>
