<?xml version="1.0" encoding="utf-8"?>
<!-- Generator: Adobe Illustrator 16.0.0, SVG Export Plug-In . SVG Version: 6.00 Build 0)  -->
<!DOCTYPE svg PUBLIC "-//W3C//DTD SVG 1.1//EN" "http://www.w3.org/Graphics/SVG/1.1/DTD/svg11.dtd">
<svg version="1.1" id="Layer_1" xmlns="http://www.w3.org/2000/svg" xmlns:xlink="http://www.w3.org/1999/xlink" x="0px" y="0px"
	 width="100px" height="100px" viewBox="0 0 100 100" enable-background="new 0 0 100 100" xml:space="preserve">
<g>
	<g>
		<path d="M96.074,5.439H47.058c-2.163,0-3.922,1.76-3.922,3.922v19.644H1.96c-1.083,0-1.96,0.877-1.96,1.961V81.91
			c0,1.083,0.877,1.959,1.96,1.959h17.646v8.73c0,0.75,0.428,1.433,1.1,1.762c0.273,0.135,0.567,0.199,0.861,0.199
			c0.428,0,0.855-0.141,1.206-0.414l13.194-10.277H54.9c1.082,0,1.961-0.876,1.961-1.959V60.34h4.256
			c0.633,0,1.777,0.401,2.273,0.795l10.326,8.215c0.635,0.504,1.336,0.771,2.027,0.771c1.334,0,2.688-1.046,2.688-3.048v-6.733
			h17.646c2.162,0,3.922-1.759,3.922-3.922V9.36C99.996,7.201,98.238,5.439,96.074,5.439z M52.939,79.947H35.292
			c-0.437,0-0.861,0.146-1.206,0.412l-10.559,8.229v-6.682c0-1.084-0.878-1.959-1.961-1.959H3.921V32.926h39.214v23.493
			c0,2.163,1.759,3.921,3.922,3.921h5.882V79.947z M96.074,56.419H78.428c-2.16,0-3.92,1.759-3.92,3.921l-0.002,4.628l-8.674-6.899
			c-1.201-0.955-3.184-1.648-4.715-1.648h-14.06V9.361h49.017V56.419z"/>
	</g>
</g>
<path d="M12.938,69.908c0-0.106,0.054-0.16,0.16-0.16c0.254-0.013,0.551-0.05,0.892-0.109c0.34-0.061,0.687-0.187,1.041-0.381
	c0.354-0.193,0.697-0.48,1.03-0.86c0.334-0.381,0.614-0.904,0.842-1.571l8.047-23.344c0,0.014,0.004,0.008,0.011-0.02
	c0.006-0.026,0.01-0.053,0.01-0.08c0-0.093-0.037-0.21-0.11-0.351c-0.073-0.14-0.109-0.243-0.109-0.31
	c0-0.067,0.026-0.101,0.08-0.101h5.805c0.027,0.014,0.063,0.027,0.11,0.04c0.047,0.014,0.083,0.054,0.11,0.12l8.469,23.763
	c0.133,0.374,0.26,0.694,0.38,0.961c0.12,0.268,0.264,0.505,0.431,0.711c0.166,0.207,0.377,0.395,0.631,0.561
	c0.253,0.167,0.58,0.338,0.98,0.511c0.187,0.094,0.44,0.193,0.761,0.3c0.32,0.107,0.627,0.16,0.921,0.16
	c0.066,0,0.11,0.021,0.13,0.061c0.021,0.04,0.03,0.08,0.03,0.12v0.761c0,0.027-0.01,0.061-0.03,0.1
	c-0.02,0.041-0.063,0.061-0.13,0.061H29.375c-0.067,0-0.11-0.02-0.13-0.061c-0.021-0.039-0.03-0.072-0.03-0.1v-0.781
	c0-0.026,0.01-0.06,0.03-0.1c0.02-0.04,0.062-0.061,0.13-0.061c0.053,0,0.106-0.003,0.16-0.01c0.053-0.006,0.093-0.01,0.12-0.01
	c0.146-0.013,0.356-0.026,0.631-0.04c0.273-0.013,0.57-0.036,0.891-0.07c0.32-0.033,0.644-0.086,0.971-0.16
	c0.327-0.073,0.624-0.18,0.891-0.32c0.268-0.14,0.487-0.323,0.661-0.55c0.173-0.228,0.261-0.508,0.261-0.842
	c0-0.08-0.014-0.173-0.041-0.279l-2.622-7.228c-0.014-0.026-0.037-0.087-0.07-0.181c-0.033-0.093-0.087-0.189-0.16-0.29
	c-0.073-0.1-0.167-0.19-0.28-0.271s-0.25-0.119-0.41-0.119h-7.227c-0.174,0-0.32,0.039-0.441,0.119
	c-0.119,0.08-0.22,0.168-0.3,0.261c-0.08,0.094-0.144,0.188-0.19,0.28c-0.047,0.094-0.07,0.147-0.07,0.16
	c-0.427,1.255-0.787,2.312-1.08,3.173c-0.294,0.861-0.538,1.571-0.731,2.132s-0.344,0.995-0.45,1.302
	c-0.107,0.308-0.184,0.53-0.23,0.671c-0.047,0.14-0.077,0.243-0.09,0.311c0,0.039,0.007,0.083,0.02,0.13
	c0.014,0.047,0.027,0.09,0.041,0.13c0.106,0.334,0.303,0.61,0.59,0.831c0.287,0.22,0.617,0.394,0.991,0.521
	c0.373,0.127,0.757,0.217,1.151,0.27c0.394,0.054,0.743,0.08,1.051,0.08h0.521c0.066,0,0.11,0.021,0.13,0.061
	c0.021,0.04,0.03,0.073,0.03,0.1v0.781c0,0.027-0.01,0.061-0.03,0.1c-0.02,0.041-0.063,0.061-0.13,0.061H13.098
	c-0.106,0-0.16-0.053-0.16-0.16V69.908z M23.428,56.496c-0.026,0.066-0.047,0.133-0.06,0.199c-0.014,0.067-0.021,0.134-0.021,0.201
	c0,0.08,0.021,0.144,0.061,0.189c0.04,0.047,0.12,0.07,0.24,0.07h6.006c0.146,0,0.243-0.03,0.29-0.09
	c0.047-0.061,0.07-0.131,0.07-0.211c0-0.066-0.007-0.126-0.021-0.18c-0.013-0.053-0.033-0.113-0.06-0.18l-2.663-7.308
	c-0.066-0.187-0.167-0.323-0.3-0.41c-0.134-0.087-0.254-0.13-0.36-0.13c-0.107,0-0.228,0.05-0.36,0.149
	c-0.134,0.101-0.233,0.237-0.3,0.411L23.428,56.496z"/>
<path d="M57.883,45.882c0-0.026,0.01-0.06,0.029-0.1s0.062-0.061,0.131-0.061c0.252,0,0.572-0.013,0.961-0.039
	c0.387-0.027,0.797-0.077,1.23-0.15s0.871-0.177,1.311-0.311c0.441-0.133,0.834-0.301,1.182-0.5
	c0.348-0.201,0.631-0.441,0.852-0.721c0.221-0.281,0.33-0.614,0.33-1.002v-20.52c0-0.681-0.1-1.211-0.301-1.592
	c-0.199-0.38-0.471-0.663-0.811-0.851c-0.34-0.187-0.738-0.304-1.191-0.351c-0.453-0.046-0.941-0.07-1.461-0.07h-1.141
	c-0.068,0-0.111-0.02-0.131-0.06s-0.029-0.073-0.029-0.101v-0.801c0-0.026,0.01-0.06,0.029-0.1s0.062-0.061,0.131-0.061
	c0.012,0,0.082-0.003,0.209-0.01c0.127-0.006,0.352-0.01,0.672-0.01s0.754-0.003,1.301-0.01s1.262-0.01,2.143-0.01
	c0.186,0,0.51-0.007,0.971-0.021c0.461-0.013,0.986-0.026,1.582-0.04c0.594-0.013,1.221-0.03,1.881-0.05
	c0.66-0.021,1.287-0.037,1.883-0.05c0.594-0.014,1.123-0.027,1.59-0.041c0.469-0.013,0.809-0.02,1.021-0.02
	c0.682,0,1.438,0.023,2.273,0.07c0.834,0.047,1.674,0.15,2.521,0.311s1.672,0.39,2.473,0.69c0.801,0.3,1.512,0.7,2.133,1.201
	c0.619,0.5,1.117,1.118,1.49,1.852c0.373,0.734,0.561,1.615,0.561,2.643c0,0.614-0.096,1.175-0.289,1.682
	c-0.195,0.508-0.441,0.958-0.742,1.352c-0.299,0.394-0.623,0.734-0.971,1.021c-0.348,0.287-0.67,0.527-0.971,0.721
	c-0.301,0.194-0.561,0.338-0.781,0.431c-0.219,0.094-0.344,0.147-0.369,0.16c0.76,0.428,1.484,0.895,2.172,1.401
	c0.688,0.508,1.291,1.078,1.811,1.712c0.521,0.634,0.932,1.331,1.232,2.092s0.449,1.602,0.449,2.522
	c0,1.081-0.146,2.035-0.439,2.863c-0.293,0.827-0.682,1.548-1.162,2.162c-0.48,0.613-1.029,1.131-1.65,1.551
	c-0.621,0.421-1.258,0.768-1.912,1.041c-0.654,0.274-1.305,0.487-1.951,0.641c-0.648,0.154-1.238,0.264-1.773,0.33
	c-0.533,0.067-0.984,0.107-1.35,0.121c-0.367,0.013-0.605,0.02-0.711,0.02H58.043c-0.068,0-0.111-0.02-0.131-0.061
	c-0.02-0.039-0.029-0.072-0.029-0.1V45.882z M73.258,29.767c0.641,0,1.236-0.116,1.791-0.351c0.555-0.233,1.035-0.557,1.441-0.971
	c0.406-0.413,0.727-0.904,0.961-1.472c0.234-0.566,0.35-1.184,0.35-1.852c0-1.014-0.123-1.852-0.369-2.513
	c-0.248-0.66-0.611-1.184-1.092-1.571c-0.48-0.387-1.078-0.657-1.791-0.811c-0.715-0.153-1.539-0.23-2.473-0.23
	c-0.201,0-0.438,0.014-0.711,0.04c-0.273,0.027-0.537,0.077-0.791,0.15s-0.467,0.177-0.641,0.31c-0.174,0.134-0.26,0.308-0.26,0.521
	v8.367c0,0.041,0.02,0.114,0.061,0.221c0.039,0.107,0.172,0.16,0.4,0.16H73.258z M69.713,41.498c0,0.521,0.135,0.991,0.4,1.411
	c0.268,0.421,0.607,0.781,1.021,1.081c0.414,0.301,0.877,0.534,1.393,0.701c0.514,0.167,1.023,0.25,1.531,0.25
	c0.854,0,1.607-0.16,2.262-0.48s1.193-0.768,1.621-1.341c0.428-0.574,0.752-1.258,0.971-2.053c0.221-0.794,0.33-1.664,0.33-2.612
	c0-1.134-0.172-2.129-0.52-2.983c-0.348-0.854-0.834-1.567-1.461-2.142c-0.629-0.573-1.375-1.004-2.242-1.291
	c-0.869-0.287-1.822-0.431-2.863-0.431h-2.182c-0.135,0-0.211,0.023-0.23,0.07s-0.031,0.097-0.031,0.15V41.498z"/>
</svg>
