<?xml version="1.0" encoding="utf-8"?>
<!-- Generator: Adobe Illustrator 16.0.0, SVG Export Plug-In . SVG Version: 6.00 Build 0)  -->
<!DOCTYPE svg PUBLIC "-//W3C//DTD SVG 1.1//EN" "http://www.w3.org/Graphics/SVG/1.1/DTD/svg11.dtd">
<svg version="1.1" id="Layer_1" xmlns="http://www.w3.org/2000/svg" xmlns:xlink="http://www.w3.org/1999/xlink" x="0px" y="0px"
	 width="100px" height="100px" viewBox="0 0 100 100" enable-background="new 0 0 100 100" xml:space="preserve">
<g>
	<path d="M32.025,48H48V35.975c-5.108-0.12-9.953-0.696-14.39-1.655C32.703,38.529,32.145,43.143,32.025,48z"/>
	<path d="M33.61,65.681c4.438-0.96,9.282-1.535,14.39-1.655V52H32.025C32.145,56.857,32.703,61.471,33.61,65.681z"/>
	<path d="M48,31.973V12.24c-5.687,1.333-10.583,8.277-13.412,18.148C38.745,31.292,43.272,31.85,48,31.973z"/>
	<path d="M69.264,29.425c4.493-1.286,8.4-3.003,11.479-5.013c-5.708-6.85-13.66-11.765-22.729-13.609
		C62.841,14.31,66.807,20.91,69.264,29.425z"/>
	<path d="M65.411,30.389C62.582,20.518,57.687,13.574,52,12.24v19.733C56.729,31.85,61.255,31.292,65.411,30.389z"/>
	<path d="M48,87.76V68.027c-4.729,0.122-9.255,0.681-13.412,1.584C37.417,79.482,42.313,86.427,48,87.76z"/>
	<path d="M70.264,33.356c0.992,4.506,1.589,9.437,1.711,14.643h17.975c-0.37-7.521-2.816-14.496-6.779-20.363
		C79.681,29.979,75.304,31.932,70.264,33.356z"/>
	<path d="M71.975,52c-0.122,5.206-0.719,10.137-1.711,14.644c5.04,1.425,9.417,3.377,12.906,5.72
		c3.963-5.867,6.409-12.843,6.779-20.363H71.975z"/>
	<path d="M30.736,70.575c-4.493,1.285-8.4,3.002-11.478,5.012c5.708,6.851,13.66,11.765,22.729,13.609
		C37.159,85.689,33.194,79.09,30.736,70.575z"/>
	<path d="M52,68.027V87.76c5.687-1.334,10.582-8.277,13.411-18.148C61.255,68.709,56.729,68.149,52,68.027z"/>
	<path d="M16.831,27.637c-3.963,5.867-6.41,12.842-6.78,20.363h17.975c0.123-5.206,0.718-10.137,1.711-14.643
		C24.697,31.932,20.319,29.979,16.831,27.637z"/>
	<path d="M69.264,70.575c-2.457,8.516-6.423,15.115-11.251,18.621c9.069-1.845,17.021-6.759,22.729-13.609
		C77.664,73.577,73.757,71.86,69.264,70.575z"/>
	<path d="M28.025,52H10.051c0.37,7.521,2.816,14.496,6.78,20.363c3.489-2.343,7.866-4.295,12.906-5.72
		C28.744,62.137,28.147,57.206,28.025,52z"/>
	<path d="M67.975,52H52v12.025c5.108,0.12,9.952,0.695,14.39,1.655C67.297,61.471,67.855,56.857,67.975,52z"/>
	<path d="M30.736,29.425c2.458-8.516,6.423-15.115,11.251-18.622c-9.069,1.844-17.021,6.759-22.729,13.609
		C22.336,26.422,26.243,28.14,30.736,29.425z"/>
	<path d="M66.39,34.319c-4.438,0.959-9.281,1.535-14.39,1.655V48h15.975C67.854,43.143,67.297,38.529,66.39,34.319z"/>
</g>
</svg>
