<?xml version="1.0" encoding="utf-8"?>
<!-- Generator: Adobe Illustrator 16.0.0, SVG Export Plug-In . SVG Version: 6.00 Build 0)  -->
<!DOCTYPE svg PUBLIC "-//W3C//DTD SVG 1.1//EN" "http://www.w3.org/Graphics/SVG/1.1/DTD/svg11.dtd">
<svg version="1.1" id="Layer_1" xmlns="http://www.w3.org/2000/svg" xmlns:xlink="http://www.w3.org/1999/xlink" x="0px" y="0px"
	 width="100px" height="100px" viewBox="0 0 100 100" enable-background="new 0 0 100 100" xml:space="preserve">
<g>
	<g>
		<path d="M44.391,7.32c5.565-1.194,10.625-0.233,15.229,2.909c-0.076,0.638-0.138,1.164-0.205,1.742
			c0.79-0.17,1.466-0.314,2.315-0.498c-0.221,1.024-0.303,1.89-0.598,2.684c-0.437,1.178-1.02,2.303-1.542,3.454
			c0.713,0.573,1.43,0.767,2.156,0.383c0.045-1.188,0.047-2.256,0.134-3.32c0.096-1.144,0.271-2.282,0.401-3.37
			c0.792-0.298,1.395-0.527,2-0.756c-0.088-0.193-0.104-0.312-0.172-0.362c-3.334-2.458-6.684-4.895-10.001-7.377
			c-0.59-0.441-1.121-0.32-1.727-0.166c-3.734,0.947-7.47,1.888-11.205,2.84c-0.324,0.081-0.635,0.22-1.171,0.41
			c1.379,1.104,2.581,2.066,3.885,3.111C44.083,8.36,44.225,7.881,44.391,7.32z"/>
	</g>
	<g>
		<path d="M57.136,17.453c0-0.003,0.002-0.012,0.004-0.023c0.051-0.247,0.084-0.497,0.104-0.748c0.11-0.828,0.267-2.015,0.267-2.015
			c0.254-1.253,0.487-2.412,0.737-3.629c-3.946-2.377-8.097-3.206-12.563-2.515c-0.258,1.268-0.484,2.385-0.729,3.601
			c0,0-0.802,3.442-0.683,3.522v-0.001c-0.118,1.446,0.228,2.935,1.092,4.213c1.976,2.925,6.147,3.686,9.102,1.66
			C55.902,20.533,56.812,19.053,57.136,17.453C57.134,17.455,57.136,17.453,57.136,17.453z"/>
	</g>
	<path d="M70.71,35.909l0.003-0.014c0.031-0.167,0.001-0.326-0.051-0.475c-0.102-0.569-0.351-1.113-0.742-1.567l-8.236-9.547
		c-0.679-0.787-1.689-1.204-2.73-1.122l-18.052,1.433c-0.931,0.074-1.785,0.542-2.347,1.287l-8.532,11.297
		c-0.376,0.498-0.585,1.08-0.639,1.674c-0.118,0.229-0.149,0.5-0.049,0.76l0.13,0.338c0.058,0.228,0.148,0.448,0.255,0.662
		L37.698,61.3c0.125,0.323,0.419,0.551,0.764,0.591c0.036,0.004,0.071,0.006,0.107,0.006c0.306,0,0.595-0.15,0.771-0.407
		l1.242-1.822l-6.838,20.959c-0.095,0.291-0.042,0.609,0.144,0.853c0.177,0.233,0.452,0.369,0.743,0.369
		c0.013,0,0.027,0,0.041-0.001l2.265-0.099l-2.098,10.749c-0.444,2.275,1.04,4.48,3.316,4.925c0.271,0.053,0.542,0.078,0.809,0.078
		c1.968,0,3.725-1.391,4.116-3.394l2.485-12.733l4.48-0.195L50.87,93.58c0.147,2.219,1.992,3.919,4.185,3.919
		c0.093,0,0.188-0.003,0.282-0.01c2.313-0.153,4.063-2.154,3.909-4.467l-0.813-12.21l6.341-0.276
		c0.274-0.011,0.527-0.142,0.695-0.357c0.168-0.215,0.233-0.493,0.179-0.76l-5.503-27.053v-0.637
		c0.236,0.185,0.492,0.352,0.785,0.47c0.201,0.08,0.406,0.137,0.611,0.177l3.321,6.124c0.164,0.305,0.481,0.488,0.819,0.488
		c0.049,0,0.098-0.003,0.147-0.011c0.39-0.062,0.698-0.363,0.771-0.752l3.868-20.999l0.009-0.022
		C70.645,36.785,70.721,36.345,70.71,35.909z M40.757,33.821l1.27,14.135l-5.434-8.621L40.757,33.821z M60.145,32.518l3.532,4.096
		l-3.532,8.789V32.518z"/>
</g>
</svg>
