<?xml version="1.0" encoding="utf-8"?>
<!-- Generator: Adobe Illustrator 16.0.0, SVG Export Plug-In . SVG Version: 6.00 Build 0)  -->
<!DOCTYPE svg PUBLIC "-//W3C//DTD SVG 1.1//EN" "http://www.w3.org/Graphics/SVG/1.1/DTD/svg11.dtd">
<svg version="1.1" id="Layer_1" xmlns="http://www.w3.org/2000/svg" xmlns:xlink="http://www.w3.org/1999/xlink" x="0px" y="0px"
	 width="100px" height="100px" viewBox="0 0 100 100" enable-background="new 0 0 100 100" xml:space="preserve">
<g>
	<g>
		<path fill="none" stroke="#000000" stroke-width="2" stroke-linecap="round" stroke-linejoin="round" stroke-miterlimit="10" d="
			M50,78.42c-12.629-7.928-27.749-7.928-40.377,0c0-21.2,0-42.395,0-63.592c12.628-7.929,27.748-7.929,40.377,0
			C50,36.025,50,57.22,50,78.42z"/>
		<path fill="none" stroke="#000000" stroke-width="2" stroke-linecap="round" stroke-linejoin="round" stroke-miterlimit="10" d="
			M90.377,78.42c-12.629-7.928-27.749-7.928-40.377,0c0-21.2,0-42.395,0-63.592c12.628-7.929,27.748-7.929,40.377,0
			C90.377,36.025,90.377,57.22,90.377,78.42z"/>
	</g>
	<g>
		
			<polyline fill="none" stroke="#000000" stroke-width="2" stroke-linecap="round" stroke-linejoin="round" stroke-miterlimit="10" points="
			50,91.118 2.5,82.657 2.5,20.97 9.623,18.353 		"/>
		
			<polyline fill="none" stroke="#000000" stroke-width="2" stroke-linecap="round" stroke-linejoin="round" stroke-miterlimit="10" points="
			50,91.118 97.5,82.657 97.5,20.97 90.377,18.353 		"/>
	</g>
</g>
<g>
	<path fill="none" stroke="#000000" stroke-width="2" stroke-linecap="round" stroke-linejoin="round" stroke-miterlimit="10" d="
		M43,18.947c-4.194-2.014-8.692-3.065-13.188-3.065c-4.497,0-8.994,1.052-13.189,3.065"/>
	<path fill="none" stroke="#000000" stroke-width="2" stroke-linecap="round" stroke-linejoin="round" stroke-miterlimit="10" d="
		M43,27.042c-4.209-1.903-8.698-2.895-13.188-2.895c-4.491,0-8.979,0.992-13.189,2.895"/>
	<path fill="none" stroke="#000000" stroke-width="2" stroke-linecap="round" stroke-linejoin="round" stroke-miterlimit="10" d="
		M43,35.138c-4.226-1.792-8.704-2.725-13.188-2.725c-4.484,0-8.963,0.933-13.188,2.725"/>
	<path fill="none" stroke="#000000" stroke-width="2" stroke-linecap="round" stroke-linejoin="round" stroke-miterlimit="10" d="
		M43,43.233c-4.241-1.683-8.711-2.556-13.188-2.556c-4.479,0-8.948,0.874-13.188,2.556"/>
	<path fill="none" stroke="#000000" stroke-width="2" stroke-linecap="round" stroke-linejoin="round" stroke-miterlimit="10" d="
		M29.812,48.943c-4.472,0-8.932,0.814-13.188,2.386"/>
	<path fill="none" stroke="#000000" stroke-width="2" stroke-linecap="round" stroke-linejoin="round" stroke-miterlimit="10" d="
		M43,59.425c-4.272-1.461-8.723-2.217-13.188-2.217s-8.917,0.756-13.188,2.217"/>
	<path fill="none" stroke="#000000" stroke-width="2" stroke-linecap="round" stroke-linejoin="round" stroke-miterlimit="10" d="
		M43,67.521c-4.287-1.351-8.729-2.047-13.189-2.047c-4.459,0-8.901,0.696-13.188,2.047"/>
</g>
<g>
	<g>
		
			<path fill="#FFFFFF" stroke="#000000" stroke-width="2" stroke-linecap="round" stroke-linejoin="round" stroke-miterlimit="10" d="
			M58,24.251c0.709-0.957,1.488-1.88,2.341-2.748c0.852-0.869,1.778-1.657,2.776-2.343s2.078-1.245,3.242-1.649
			c1.163-0.404,2.433-0.628,3.797-0.629c1.914-0.002,3.642,0.459,5.163,1.268c1.521,0.809,2.802,1.921,3.848,3.235
			c1.046,1.314,1.835,2.797,2.387,4.39c0.551,1.592,0.823,3.229,0.823,4.9c0,1.609-0.201,2.904-0.608,3.901
			c-0.407,0.997-0.93,1.82-1.567,2.482c-0.639,0.663-1.342,1.208-2.107,1.648c-0.766,0.441-1.497,0.883-2.189,1.318
			c-0.693,0.435-1.298,0.897-1.812,1.37c-0.516,0.474-0.833,1.046-0.955,1.696c-0.341,1.761-0.513,2.645-0.854,4.416
			c-2.573-0.147-3.871-0.107-6.433,0.197c-0.268-2.024-0.401-3.035-0.668-5.051c-0.021-0.124-0.034-0.249-0.044-0.375
			c-0.01-0.125-0.018-0.253-0.018-0.38c-0.001-0.936,0.211-1.787,0.633-2.544c0.424-0.758,0.957-1.465,1.604-2.108
			c0.647-0.641,1.349-1.248,2.101-1.809c0.75-0.561,1.449-1.139,2.099-1.741c0.649-0.601,1.188-1.261,1.615-1.999
			c0.425-0.738,0.637-1.632,0.638-2.698c0.001-1.278-0.398-2.35-1.2-3.172c-0.802-0.82-1.903-1.262-3.306-1.22
			c-1.078,0.032-1.978,0.233-2.695,0.553c-0.719,0.32-1.334,0.68-1.847,1.06c-0.513,0.379-0.959,0.734-1.339,1.053
			s-0.759,0.528-1.136,0.627c-0.854,0.226-1.485,0.036-1.897-0.606C59.424,26.027,58.944,25.417,58,24.251z M63.455,59.553
			c-0.001-0.763,0.133-1.498,0.403-2.198c0.269-0.7,0.638-1.33,1.109-1.882c0.47-0.551,1.028-1.006,1.674-1.352
			c0.645-0.346,1.352-0.538,2.12-0.566c0.748-0.027,1.447,0.111,2.095,0.41s1.214,0.716,1.697,1.234
			c0.483,0.52,0.861,1.126,1.134,1.81c0.271,0.684,0.406,1.411,0.406,2.177s-0.136,1.473-0.408,2.121s-0.652,1.201-1.136,1.664
			s-1.049,0.825-1.695,1.092s-1.343,0.411-2.089,0.436c-0.768,0.024-1.474-0.073-2.118-0.297c-0.646-0.224-1.202-0.55-1.674-0.98
			c-0.472-0.433-0.841-0.956-1.111-1.584S63.456,60.315,63.455,59.553z"/>
	</g>
</g>
</svg>
