<?xml version="1.0" encoding="utf-8"?>
<!-- Generator: Adobe Illustrator 16.0.0, SVG Export Plug-In . SVG Version: 6.00 Build 0)  -->
<!DOCTYPE svg PUBLIC "-//W3C//DTD SVG 1.1//EN" "http://www.w3.org/Graphics/SVG/1.1/DTD/svg11.dtd">
<svg version="1.1" id="Layer_1" xmlns="http://www.w3.org/2000/svg" xmlns:xlink="http://www.w3.org/1999/xlink" x="0px" y="0px"
	 width="100px" height="100px" viewBox="0 0 100 100" enable-background="new 0 0 100 100" xml:space="preserve">
<g>
	<path d="M16.917,84.556l0.12-0.126l3.184-3.185c0.014,5.552,3.334,7.83,3.369,7.854l0.249,0.16l0.021-0.296
		c0.001-0.009,0.083-0.861,2.1-3.501l0.094-0.121l-0.108-0.107c-0.546-0.547-0.622-1.877-0.608-2.725
		c0.266,0.578,0.697,1.377,1.238,1.918l0.139,0.138l0.12-0.151c0.253-0.317,0.528-0.65,0.825-1.006l0.103-0.123l-0.112-0.111
		c-0.811-0.812-0.558-3.044-0.355-4.222c0.239,0.815,0.717,2.102,1.52,2.902l0.131,0.132l0.123-0.139
		c1.497-1.713,2.801-3.104,4.5-4.805c0.479-0.479,0.996-0.986,1.574-1.549c1.604-1.605,0.756-9.446,0.72-9.779l-0.013-0.099
		l39.644-39.641c0.59-0.59,1.058-0.856,1.321-0.948c0.996,1.29,1.391,2.262,1.615,2.818c0.17,0.424,0.266,0.656,0.489,0.702
		c0.28,0.057,0.531-0.219,1.157-0.858c0.156-0.159,0.336-0.344,0.546-0.552c0.35-0.351,0.11-0.756-0.123-1.148
		c-0.31-0.521-0.629-1.062-0.083-1.763c0.025-0.033,0.051-0.062,0.075-0.087c0.001,0,0.001,0,0.001,0
		c0.07-0.07,0.13-0.102,0.178-0.094c0.178,0.03,0.393,0.478,0.536,0.773c0.188,0.393,0.339,0.702,0.579,0.743
		c0.072,0.013,0.18,0.005,0.299-0.114l0,0c4.024-4.273,7.314-12.182,7.161-14.104c-0.016-0.202-0.071-0.343-0.169-0.428
		c-0.086-0.098-0.227-0.153-0.428-0.169c-1.923-0.152-9.832,3.137-14.115,7.171c-0.107,0.109-0.117,0.217-0.104,0.29
		c0.041,0.241,0.35,0.391,0.742,0.579c0.296,0.143,0.743,0.358,0.772,0.535c0.011,0.065-0.054,0.155-0.18,0.255
		c-0.702,0.546-1.241,0.227-1.765-0.083c-0.392-0.233-0.797-0.474-1.146-0.123c-0.211,0.208-0.395,0.39-0.554,0.548
		c-0.123,0.12-0.231,0.227-0.327,0.321l0,0c-0.396,0.397-0.578,0.607-0.531,0.834c0.045,0.223,0.278,0.317,0.701,0.489
		c0.559,0.225,1.532,0.618,2.821,1.615c-0.093,0.263-0.358,0.731-0.95,1.322L34.367,64.14l-0.095-0.012
		c-0.332-0.035-8.173-0.885-9.792,0.733l0,0c-1.011,1.041-1.71,1.74-2.59,2.599l-0.177,0.172l0.222,0.109
		c1.451,0.709,3.08,0.923,4.199,0.979c-1.427,0.315-3.717,0.631-5.25-0.119l-0.11-0.053l-0.087,0.083
		c-2.703,2.579-4.414,3.951-5.731,4.956l-0.224,0.17l0.254,0.123c0.791,0.387,1.697,0.544,2.408,0.604
		c-1.049,0.238-2.558,0.454-3.443,0.023l-0.096-0.045l-0.083,0.061c-1.946,1.383-2.762,1.608-2.779,1.613l-0.241,0.059l0.138,0.207
		c0.022,0.033,2.3,3.352,7.847,3.368l-3.305,3.304c-0.255,0.254-0.127,0.766,0.296,1.188C16.152,84.683,16.662,84.81,16.917,84.556z
		"/>
</g>
<g>
	<path d="M84.556,83.083l-0.126-0.12l-3.185-3.184c5.552-0.014,7.83-3.334,7.854-3.369l0.16-0.249l-0.296-0.021
		c-0.009-0.001-0.861-0.083-3.501-2.1l-0.121-0.094l-0.107,0.108c-0.547,0.546-1.877,0.622-2.725,0.608
		c0.578-0.266,1.377-0.697,1.918-1.238l0.138-0.139l-0.151-0.12c-0.317-0.253-0.65-0.528-1.006-0.825l-0.123-0.103l-0.111,0.112
		c-0.812,0.811-3.044,0.558-4.222,0.355c0.815-0.239,2.102-0.717,2.902-1.52l0.132-0.131l-0.139-0.123
		c-1.713-1.497-3.104-2.801-4.805-4.5c-0.479-0.479-0.986-0.996-1.549-1.574c-1.605-1.604-9.446-0.756-9.779-0.72l-0.099,0.013
		L25.974,24.509c-0.59-0.59-0.856-1.058-0.948-1.321c1.29-0.996,2.262-1.391,2.818-1.615c0.424-0.17,0.656-0.266,0.702-0.489
		c0.057-0.28-0.219-0.531-0.858-1.157c-0.159-0.156-0.344-0.336-0.552-0.546c-0.351-0.35-0.756-0.11-1.148,0.123
		c-0.521,0.31-1.062,0.629-1.763,0.083c-0.033-0.025-0.062-0.051-0.087-0.075c0-0.001,0-0.001,0-0.001
		c-0.07-0.07-0.102-0.13-0.094-0.178c0.03-0.178,0.478-0.393,0.773-0.536c0.393-0.188,0.702-0.339,0.743-0.579
		c0.013-0.072,0.005-0.18-0.114-0.299l0,0c-4.273-4.024-12.182-7.314-14.104-7.161c-0.202,0.016-0.343,0.071-0.428,0.169
		c-0.098,0.086-0.153,0.227-0.169,0.428c-0.152,1.923,3.137,9.832,7.171,14.115c0.109,0.107,0.217,0.117,0.29,0.104
		c0.241-0.041,0.391-0.35,0.579-0.742c0.143-0.296,0.358-0.743,0.535-0.772c0.065-0.011,0.155,0.054,0.255,0.18
		c0.546,0.702,0.227,1.241-0.083,1.765c-0.233,0.392-0.474,0.797-0.123,1.146c0.208,0.211,0.39,0.395,0.548,0.554
		c0.12,0.123,0.227,0.231,0.321,0.327l0,0c0.397,0.396,0.607,0.578,0.834,0.531c0.223-0.045,0.317-0.278,0.489-0.701
		c0.225-0.559,0.618-1.532,1.615-2.821c0.263,0.093,0.731,0.358,1.322,0.95L64.14,65.633l-0.012,0.095
		c-0.035,0.332-0.885,8.173,0.733,9.792l0,0c1.041,1.011,1.74,1.71,2.599,2.59l0.172,0.177l0.109-0.222
		c0.709-1.451,0.923-3.08,0.979-4.199c0.315,1.427,0.631,3.717-0.119,5.25l-0.053,0.11l0.083,0.087
		c2.579,2.703,3.951,4.414,4.956,5.731l0.17,0.224l0.123-0.254c0.387-0.791,0.544-1.697,0.604-2.408
		c0.238,1.049,0.454,2.558,0.023,3.443l-0.045,0.096l0.061,0.083c1.383,1.946,1.608,2.762,1.613,2.779l0.059,0.241l0.207-0.138
		c0.033-0.022,3.352-2.3,3.368-7.847l3.304,3.305c0.254,0.255,0.766,0.127,1.188-0.296C84.683,83.848,84.81,83.338,84.556,83.083z"
		/>
</g>
</svg>
