<?xml version="1.0" encoding="utf-8"?>
<!-- Generator: Adobe Illustrator 16.0.0, SVG Export Plug-In . SVG Version: 6.00 Build 0)  -->
<!DOCTYPE svg PUBLIC "-//W3C//DTD SVG 1.1 Tiny//EN" "http://www.w3.org/Graphics/SVG/1.1/DTD/svg11-tiny.dtd">
<svg version="1.1" baseProfile="tiny" id="Layer_1" xmlns="http://www.w3.org/2000/svg" xmlns:xlink="http://www.w3.org/1999/xlink"
	 x="0px" y="0px" width="100px" height="100px" viewBox="0 0 100 100" xml:space="preserve">
<g>
	<path d="M49.187,50.905l19.684,2.478c1.865,0.233,3.412-1.403,3.122-3.261c-0.618-3.961-3.034-7.408-6.481-9.365
		c-0.819-0.467-0.962-1.598-0.198-2.145c1.44-1.038,2.466-2.649,2.706-4.557c0.459-3.653-2.13-6.987-5.783-7.447
		c-3.651-0.459-6.988,2.13-7.446,5.783c-0.24,1.903,0.353,3.72,1.494,5.083c0.604,0.725,0.184,1.784-0.725,2.031
		c-3.822,1.046-7.019,3.787-8.598,7.472C46.227,48.702,47.322,50.673,49.187,50.905z"/>
	<path d="M27.952,57.724l6.221,0.781c0.074,0.011,0.148,0.014,0.222,0.014c0.876,0,1.64-0.653,1.749-1.547
		c0.121-0.968-0.565-1.851-1.533-1.976l-6.221-0.78c-0.964-0.141-1.851,0.562-1.975,1.533S26.984,57.604,27.952,57.724z"/>
	<path d="M40.688,59.324l12.339,1.551c0.074,0.01,0.148,0.015,0.224,0.015c0.875,0,1.635-0.654,1.748-1.548
		c0.12-0.965-0.562-1.851-1.533-1.975l-12.336-1.548c-0.958-0.141-1.851,0.562-1.975,1.533S39.723,59.204,40.688,59.324z"/>
	<path d="M60.379,58.243c-0.951-0.138-1.848,0.562-1.975,1.533c-0.12,0.968,0.563,1.852,1.532,1.975l10.542,1.325
		c0.073,0.01,0.147,0.014,0.222,0.014c0.877,0,1.64-0.653,1.75-1.547c0.119-0.969-0.565-1.852-1.534-1.975L60.379,58.243z"/>
	<path d="M85.546,20.659c0.118-0.968-0.565-1.851-1.534-1.975l-3.402-0.428l-0.169-4.199c-0.042-0.972-0.845-1.746-1.841-1.693
		l-32.613,1.321v-1.062v-1.961C45.986,6.438,42.549,3,38.324,3c-4.225,0-7.663,3.438-7.663,7.662v1.311l-4.829-0.607
		c-0.463-0.057-0.937,0.074-1.303,0.356c-0.368,0.29-0.611,0.711-0.668,1.177l-0.212,1.692l-5.454,0.222
		c-0.972,0.039-1.731,0.862-1.692,1.838l1.678,41.409l-3.727,29.628c-0.12,0.968,0.565,1.851,1.533,1.975l3.493,0.439l0.17,4.203
		c0.021,0.466,0.223,0.908,0.569,1.226c0.328,0.303,0.755,0.469,1.197,0.469c0.025,0,0.05,0,0.075,0l33.931-1.373l18.748,2.359
		C74.244,96.995,74.318,97,74.389,97c0.388,0,0.774-0.132,1.084-0.372c0.368-0.285,0.612-0.706,0.668-1.173l0.212-1.674l5.55-0.226
		c0.467-0.021,0.908-0.223,1.226-0.569c0.317-0.346,0.488-0.802,0.47-1.268l-1.702-41.989L85.546,20.659z M34.198,10.662
		c0-2.278,1.851-4.13,4.13-4.13c2.278,0,4.13,1.852,4.13,4.13v1.961v5.504v7.839c0,0.802-0.65,1.452-1.448,1.452
		c-0.798,0-1.448-0.65-1.448-1.452V11.878c0-0.976-0.792-1.767-1.767-1.767c-0.976,0-1.766,0.791-1.766,1.767v0.77l-1.831-0.229
		V10.662z M72.855,93.256l-54.678-6.879l8.966-71.285l8.885,1.117v9.757c0,2.748,2.235,4.984,4.981,4.984
		c2.745,0,4.98-2.236,4.98-4.984v-7.839v-0.665l35.832,4.509L72.855,93.256z"/>
</g>
<line stroke="#000000" stroke-width="3.5" stroke-linecap="round" stroke-miterlimit="10" x1="37.188" y1="65.014" x2="37.324" y2="65.03"/>
<line stroke="#000000" stroke-width="3.5" stroke-linecap="round" stroke-miterlimit="10" x1="32.316" y1="64.398" x2="32.407" y2="64.41"/>
<path stroke="#000000" stroke-width="3.5" stroke-linecap="round" stroke-miterlimit="10" d="M32.042,64.363"/>
<line stroke="#000000" stroke-width="3.5" stroke-linecap="round" stroke-miterlimit="10" x1="27.407" y1="63.777" x2="27.562" y2="63.797"/>
<line stroke="#000000" stroke-width="3.5" stroke-linecap="round" stroke-miterlimit="10" x1="44.906" y1="81.85" x2="45.042" y2="81.866"/>
<line stroke="#000000" stroke-width="3.5" stroke-linecap="round" stroke-miterlimit="10" x1="49.815" y1="82.471" x2="49.906" y2="82.482"/>
<g>
	<path d="M55.307,79.813c-0.633-0.081-1.029-0.62-1.043-1.221l-0.029-1.512c-0.018-0.734,0.463-1.184,1.172-1.183
		c1.928,0.002,2.877-0.477,3.014-1.546l0.004-0.044c0.125-0.981-0.545-1.644-1.811-1.805c-0.939-0.12-1.781,0.062-2.643,0.552
		c-0.287,0.162-0.654,0.271-1.025,0.224c-0.832-0.105-1.441-0.894-1.336-1.723c0.053-0.415,0.285-0.829,0.719-1.106
		c1.279-0.813,2.818-1.238,4.74-0.994c3.143,0.4,5.076,2.287,4.707,5.19L61.77,74.69c-0.354,2.771-2.418,3.663-4.857,3.84
		l-0.115,0.385c-0.16,0.557-0.682,1.001-1.316,0.92L55.307,79.813z M55.123,81.253c1.092,0.14,1.797,1.049,1.664,2.097l-0.006,0.044
		c-0.135,1.048-1.043,1.753-2.135,1.613c-1.092-0.139-1.797-1.049-1.664-2.097l0.006-0.043
		C53.121,81.819,54.033,81.114,55.123,81.253z"/>
</g>
</svg>
