<?xml version="1.0" encoding="utf-8"?>
<!-- Generator: Adobe Illustrator 16.0.0, SVG Export Plug-In . SVG Version: 6.00 Build 0)  -->
<!DOCTYPE svg PUBLIC "-//W3C//DTD SVG 1.1//EN" "http://www.w3.org/Graphics/SVG/1.1/DTD/svg11.dtd">
<svg version="1.1" id="Layer_1" xmlns="http://www.w3.org/2000/svg" xmlns:xlink="http://www.w3.org/1999/xlink" x="0px" y="0px"
	 width="100px" height="100px" viewBox="0 0 100 100" enable-background="new 0 0 100 100" xml:space="preserve">
<path fill="#231F20" d="M99.998,5.993c0-0.088-0.002-0.177-0.006-0.265c-0.002-0.05-0.008-0.1-0.012-0.149
	c-0.002-0.048-0.006-0.096-0.01-0.144c-0.006-0.062-0.014-0.122-0.021-0.184c-0.006-0.035-0.01-0.071-0.014-0.106
	c-0.01-0.065-0.021-0.131-0.033-0.196c-0.006-0.03-0.012-0.062-0.018-0.092c-0.012-0.066-0.027-0.131-0.043-0.196
	c-0.006-0.03-0.014-0.061-0.021-0.092c-0.014-0.062-0.031-0.124-0.049-0.187c-0.01-0.033-0.02-0.065-0.029-0.099
	c-0.018-0.058-0.035-0.115-0.055-0.172c-0.012-0.037-0.025-0.074-0.037-0.111c-0.02-0.052-0.039-0.103-0.059-0.153
	c-0.016-0.042-0.033-0.085-0.051-0.127c-0.018-0.044-0.037-0.088-0.057-0.132c-0.021-0.047-0.041-0.095-0.064-0.143
	c-0.018-0.037-0.035-0.074-0.055-0.11c-0.025-0.053-0.053-0.104-0.08-0.156c-0.018-0.031-0.035-0.063-0.053-0.095
	c-0.029-0.055-0.061-0.109-0.094-0.163c-0.018-0.028-0.035-0.057-0.053-0.085c-0.035-0.055-0.068-0.109-0.105-0.163
	c-0.018-0.028-0.039-0.056-0.057-0.084c-0.037-0.052-0.074-0.104-0.111-0.155c-0.023-0.031-0.047-0.062-0.072-0.092
	c-0.035-0.047-0.07-0.094-0.107-0.139c-0.033-0.04-0.068-0.078-0.102-0.117c-0.031-0.035-0.061-0.071-0.092-0.105
	c-0.066-0.073-0.135-0.146-0.205-0.216l0,0c0-0.001,0-0.001,0-0.001c-0.07-0.07-0.143-0.138-0.215-0.205
	c-0.037-0.032-0.074-0.062-0.111-0.095s-0.074-0.065-0.111-0.097c-0.047-0.039-0.096-0.075-0.143-0.112
	c-0.029-0.022-0.059-0.046-0.088-0.068c-0.055-0.039-0.107-0.076-0.162-0.114c-0.025-0.018-0.051-0.036-0.078-0.054
	c-0.055-0.038-0.111-0.073-0.168-0.108c-0.027-0.017-0.053-0.033-0.08-0.05c-0.055-0.033-0.111-0.065-0.168-0.097
	c-0.029-0.017-0.059-0.033-0.09-0.05c-0.053-0.028-0.105-0.056-0.16-0.082c-0.035-0.018-0.07-0.036-0.105-0.053
	c-0.049-0.023-0.1-0.045-0.148-0.067c-0.041-0.018-0.084-0.036-0.125-0.054c-0.045-0.019-0.09-0.036-0.135-0.053
	c-0.049-0.02-0.096-0.038-0.145-0.056c-0.039-0.014-0.08-0.026-0.119-0.04c-0.055-0.018-0.109-0.036-0.166-0.053
	c-0.035-0.011-0.07-0.021-0.105-0.03c-0.059-0.017-0.119-0.033-0.18-0.049c-0.033-0.008-0.066-0.016-0.1-0.022
	c-0.062-0.015-0.125-0.029-0.188-0.041c-0.033-0.007-0.068-0.013-0.102-0.019c-0.062-0.011-0.125-0.022-0.188-0.031
	c-0.039-0.006-0.076-0.01-0.115-0.015c-0.059-0.008-0.117-0.016-0.176-0.021c-0.051-0.005-0.104-0.008-0.154-0.012
	c-0.047-0.003-0.092-0.008-0.139-0.01C94.172,0.003,94.072,0,93.973,0H75.43c-3.328,0-6.027,2.698-6.027,6.026
	s2.699,6.025,6.027,6.025h3.996l-11.98,11.98c-7.252-5.447-16.031-8.396-25.263-8.396c-11.267,0-21.859,4.388-29.827,12.354
	C4.388,35.959,0,46.552,0,57.818C0,69.085,4.387,79.678,12.355,87.645C20.323,95.612,30.916,100,42.182,100
	c11.267,0,21.859-4.388,29.828-12.354c7.967-7.968,12.354-18.561,12.354-29.827c0-9.232-2.947-18.011-8.395-25.265l11.979-11.979
	v3.997c0,3.327,2.699,6.025,6.025,6.025c3.328,0,6.027-2.698,6.027-6.025V6.026C100,6.015,99.998,6.004,99.998,5.993z
	 M63.486,79.123c-5.689,5.691-13.256,8.825-21.304,8.825s-15.614-3.134-21.306-8.825C9.129,67.376,9.129,48.261,20.877,36.514
	c5.69-5.691,13.257-8.825,21.305-8.825c8.047,0,15.613,3.134,21.304,8.825c5.691,5.69,8.826,13.257,8.826,21.305
	S69.178,73.433,63.486,79.123z"/>
</svg>
