<?xml version="1.0" encoding="utf-8"?>
<!-- Generator: Adobe Illustrator 16.0.0, SVG Export Plug-In . SVG Version: 6.00 Build 0)  -->
<!DOCTYPE svg PUBLIC "-//W3C//DTD SVG 1.1//EN" "http://www.w3.org/Graphics/SVG/1.1/DTD/svg11.dtd">
<svg version="1.1" id="Layer_1" xmlns="http://www.w3.org/2000/svg" xmlns:xlink="http://www.w3.org/1999/xlink" x="0px" y="0px"
	 width="100px" height="100px" viewBox="0 0 100 100" enable-background="new 0 0 100 100" xml:space="preserve">
<g>
	<path d="M82.463,21.859l-3.555-0.003v13.741c0,3.133-1.654,6.576-5.957,6.576c-3.998,0-5.957-3.443-5.957-6.576V21.854l-4.27-0.004
		c-6.235,0-10.506,5.341-11.428,11.963l-1.337,6.908l-1.336-6.908c-0.792-6.756-5.103-11.963-11.338-11.963l-4.269,0.004v13.744
		c0,3.133-1.895,6.618-5.963,6.576c-4.268-0.042-5.963-3.443-5.963-6.576V21.856l-3.555,0.003c-6.542,0-9.964,5.482-10.253,11.31
		v25.62c0.118,0.354,0.259,0.76,0.42,1.043c1.518,3.238,6.44,2.439,6.44-2.244V34.572h2.168l0.022,60.262
		c0,2.853,2.214,5.166,4.939,5.166c2.726,0,4.94-2.313,4.94-5.166l-0.014-33.398h2.198l0.008,33.398
		c0,2.853,2.208,5.166,4.938,5.166c2.725,0,4.937-2.313,5.307-5.317l-0.014-60.261l1.229,0.15l6.415,23.017
		c0.814,2.917,2.467,3.49,3.679,3.49c1.301,0,2.93-0.483,3.68-3.49l6.506-23.017h1.598l-0.014,60.262
		c0,2.853,2.211,5.166,4.936,5.166c2.734,0,4.941-2.313,4.941-5.166l0.008-33.398h2.193l-0.014,33.398
		c0,2.853,2.211,5.166,4.938,5.166c2.723,0,4.936-2.313,4.936-5.166l0.025-60.262h2.166v23.017c0,4.686,4.922,5.392,6.441,2.153
		c0.156-0.284,0.301-0.6,0.418-0.953v-25.62C92.43,27.341,89.008,21.859,82.463,21.859z"/>
	<path d="M27.22,18.347c4.844,0,8.77-4.104,8.77-9.172C35.99,4.106,32.064,0,27.22,0s-8.77,4.106-8.77,9.175
		C18.451,14.242,22.376,18.347,27.22,18.347z"/>
	<path d="M72.785,18.347c4.836,0,8.762-4.104,8.762-9.172C81.547,4.106,77.621,0,72.785,0c-4.844,0-8.768,4.106-8.768,9.175
		C64.016,14.242,67.941,18.347,72.785,18.347z"/>
	<path d="M31.542,24.971v-2.758c-0.002-0.304-0.234-0.552-0.528-0.552L28.304,22.5c-0.273-0.297-0.655-0.483-1.081-0.483
		c-0.426,0-0.809,0.187-1.083,0.484l-2.712-0.839c-0.29,0-0.526,0.249-0.526,0.552v2.758c0,0.303,0.238,0.548,0.526,0.548
		l2.741-0.804c0.272,0.278,0.645,0.451,1.055,0.451s0.781-0.172,1.053-0.45l2.738,0.802C31.307,25.52,31.542,25.274,31.542,24.971z"
		/>
	<path d="M77.371,24.971v-2.758c-0.004-0.304-0.238-0.552-0.531-0.552L74.135,22.5c-0.273-0.297-0.654-0.483-1.08-0.483
		c-0.424,0-0.807,0.187-1.08,0.484l-2.711-0.839c-0.291,0-0.527,0.249-0.527,0.552v2.758c0,0.303,0.238,0.548,0.527,0.548
		l2.738-0.804c0.271,0.278,0.643,0.451,1.055,0.451s0.779-0.172,1.051-0.45l2.736,0.802C77.135,25.52,77.371,25.274,77.371,24.971z"
		/>
	<ellipse cx="73.055" cy="33.196" rx="1.508" ry="1.576"/>
	<path d="M73.055,36.049c-0.83,0-1.506,0.708-1.506,1.577s0.676,1.572,1.506,1.572c0.834,0,1.502-0.702,1.502-1.572
		S73.889,36.049,73.055,36.049z"/>
	<ellipse cx="27.223" cy="33.196" rx="1.506" ry="1.576"/>
	<ellipse cx="27.223" cy="37.624" rx="1.506" ry="1.575"/>
</g>
</svg>
