<?xml version="1.0" encoding="utf-8"?>
<!-- Generator: Adobe Illustrator 16.0.0, SVG Export Plug-In . SVG Version: 6.00 Build 0)  -->
<!DOCTYPE svg PUBLIC "-//W3C//DTD SVG 1.1//EN" "http://www.w3.org/Graphics/SVG/1.1/DTD/svg11.dtd">
<svg version="1.1" id="Layer_1" xmlns="http://www.w3.org/2000/svg" xmlns:xlink="http://www.w3.org/1999/xlink" x="0px" y="0px"
	 width="100px" height="100px" viewBox="0 0 100 100" enable-background="new 0 0 100 100" xml:space="preserve">
<path fill="none" stroke="#000000" stroke-width="10" stroke-linecap="round" stroke-linejoin="round" stroke-miterlimit="10" d="
	M87.5,75.26c0,6.76-5.48,12.24-12.24,12.24H24.74c-6.76,0-12.24-5.48-12.24-12.24V49.74c0-6.76,5.48-12.24,12.24-12.24h50.52
	c6.76,0,12.24,5.48,12.24,12.24V75.26z"/>
<path fill="none" stroke="#010101" stroke-width="5" stroke-linecap="round" stroke-linejoin="round" stroke-miterlimit="10" d="
	M37.5,25c0-6.904,5.596-12.5,12.5-12.5c6.902,0,12.5,5.596,12.5,12.5"/>
<path fill="#010101" d="M36.429,52.402c-0.519,0.519-0.992,1.064-1.429,1.632c6.119-0.396,12.371,1.741,17.048,6.417
	c4.678,4.678,6.812,10.93,6.419,17.049c0.565-0.438,1.112-0.91,1.631-1.429c6.536-6.537,6.537-17.134,0-23.669
	C53.562,45.865,42.965,45.865,36.429,52.402z"/>
</svg>
