<?xml version="1.0" encoding="utf-8"?>
<!-- Generator: Adobe Illustrator 16.0.0, SVG Export Plug-In . SVG Version: 6.00 Build 0)  -->
<!DOCTYPE svg PUBLIC "-//W3C//DTD SVG 1.1//EN" "http://www.w3.org/Graphics/SVG/1.1/DTD/svg11.dtd">
<svg version="1.1" id="Layer_1" xmlns="http://www.w3.org/2000/svg" xmlns:xlink="http://www.w3.org/1999/xlink" x="0px" y="0px"
	 width="100px" height="100px" viewBox="0 0 100 100" enable-background="new 0 0 100 100" xml:space="preserve">
<g>
	<g>
		<path d="M96.074,5.439H47.058c-2.163,0-3.922,1.76-3.922,3.922v19.644H1.96c-1.083,0-1.96,0.877-1.96,1.961V81.91
			c0,1.083,0.877,1.959,1.96,1.959h17.646v8.73c0,0.75,0.428,1.433,1.1,1.762c0.273,0.135,0.567,0.199,0.861,0.199
			c0.428,0,0.855-0.141,1.206-0.414l13.194-10.277H54.9c1.082,0,1.961-0.876,1.961-1.959V60.34h4.256
			c0.633,0,1.777,0.401,2.273,0.795l10.326,8.215c0.635,0.504,1.336,0.771,2.027,0.771c1.334,0,2.688-1.046,2.688-3.048v-6.733
			h17.646c2.162,0,3.922-1.759,3.922-3.922V9.36C99.996,7.201,98.238,5.439,96.074,5.439z M52.939,79.947H35.292
			c-0.437,0-0.861,0.146-1.206,0.412l-10.559,8.229v-6.682c0-1.084-0.878-1.959-1.961-1.959H3.921V32.926h39.214v23.493
			c0,2.163,1.759,3.921,3.922,3.921h5.882V79.947z M96.074,56.419H78.428c-2.16,0-3.92,1.759-3.92,3.921l-0.002,4.628l-8.674-6.899
			c-1.201-0.955-3.184-1.648-4.715-1.648h-14.06V9.361h49.017V56.419z"/>
		<g>
			<path fill-rule="evenodd" clip-rule="evenodd" d="M89.57,33.509c-3.373,1.329-7.111,2.2-9.924-0.326
				c-2.398-2.154-4.883-4.219-7.211-6.456c-0.318-0.307-0.652-0.595-1.053-0.96c-0.316,1.614-0.191,3.126-0.221,4.629
				c-0.012,0.572,0.029,1.147-0.021,1.716c-0.061,0.688,0.236,1.782-0.635,1.869c-1.039,0.102-1.113-1.109-1.17-1.832
				c-0.1-1.249,0.084-2.52,0.131-3.782c0.021-0.596,0.004-1.193,0.004-2.072c-0.49,0.622-0.826,1.055-1.168,1.483
				c-3.102,3.894-6.705,7.134-11.475,8.869c-1.605,0.584-2.051,0.643-3.266,0.284c2.543-1.604,5.088-2.932,7.369-4.657
				c2.32-1.754,4.492-3.646,6.105-6.369c-2.07,0.144-3.883,0.665-5.697,1.164c-1.033,0.284-2.014,0.318-2.951-0.249
				c-0.275-0.167-0.6-0.372-0.561-0.745c0.051-0.464,0.482-0.348,0.779-0.393c3.23-0.486,6.455-0.999,9.693-1.423
				c0.92-0.121,1.201-0.424,1.154-1.369c-0.17-3.401-0.367-3.583-3.613-2.817c-0.752,0.179-1.51,0.338-2.268,0.487
				c-0.145,0.028-0.305-0.035-0.484-0.06c0.111-0.627,0.65-0.59,1.023-0.746c2.217-0.93,4.471-1.78,6.506-3.086
				c0.75-0.48,1.553-0.928,1.816-1.893c0.135-0.497,0.473-0.582,0.953-0.466c1.184,0.289,2.191,0.917,3.066,1.71
				c0.617,0.56,0.521,1.031-0.439,1.188c-1.852,0.303-3.641,0.831-5.438,1.704c0.33,0.195,0.557,0.351,0.801,0.469
				c0.826,0.4,1.059,0.924,0.721,1.865c-0.893,2.484-0.844,2.515,1.678,2.042c1.844-0.346,3.686-0.712,5.52-1.103
				c1.52-0.324,2.682,0.406,3.828,1.213c0.248,0.175,0.393,0.46,0.318,0.75c-0.105,0.409-0.512,0.368-0.818,0.386
				c-2.771,0.155-5.547,0.292-8.32,0.438c-0.564,0.03-1.141,0-1.764,0.255C77.318,29.882,83.447,31.651,89.57,33.509z"/>
			<path fill-rule="evenodd" clip-rule="evenodd" d="M78.465,35.937c-0.383-1-3.395-2.342-4.406-1.934
				c-1.781,0.719-3.604,1.323-5.494,1.635c-1.582,0.261-3.201,1.122-4.781-0.099c-0.244-0.188-0.66-0.175-0.918,0.081
				c-0.26,0.26,0.004,0.517,0.104,0.771c0.896,2.266,0.914,4.614,0.688,6.993c-0.113,1.181-0.418,2.32-0.643,3.299
				c0.025,1.058,0.271,1.867,0.734,2.608c0.443,0.713,1.023,0.687,1.205-0.074c0.26-1.091,1.02-1.085,1.822-1.167
				c0.488-0.051,0.971-0.143,1.459-0.171c1.547-0.092,3.217-0.548,4.605-0.114c1.094,0.341,1.488,2.025,2.188,3.116
				c0.582,0.908,1.152,0.774,1.711,0.029c0.83-1.109,1.277-2.372,1.244-3.762c-0.061-2.49-0.148-4.979-0.252-7.468
				c-0.043-1.036-0.021-2.043,0.59-2.939C78.488,36.495,78.58,36.238,78.465,35.937z M75.26,41.935
				c-0.059,0.946-0.102,2.418-0.258,3.878c-0.115,1.082-0.42,1.189-1.234,0.491c-0.617-0.529-1.291-0.654-2.047-0.524
				c-1.768,0.304-3.539,0.592-5.297,0.945c-0.717,0.145-0.98-0.003-0.877-0.758c0.07-0.522,0.053-1.059,0.064-1.589
				c0.043-1.739,0.043-1.727,1.824-1.972c1.656-0.229,3.307-0.491,4.961-0.732c0.293-0.042,0.633-0.086,0.715-0.377
				c0.104-0.362-0.209-0.602-0.482-0.778c-0.779-0.508-1.645-0.45-2.486-0.247c-1.227,0.296-2.447,0.626-3.646,1.016
				c-0.635,0.206-0.904,0.17-0.85-0.583c0.072-1.017-0.242-2.223,0.207-3.002c0.434-0.752,1.766-0.53,2.693-0.768
				c1.422-0.363,2.854-0.684,4.279-1.02c1.926-0.452,2.336-0.165,2.424,1.823C75.305,38.961,75.26,40.188,75.26,41.935z"/>
		</g>
	</g>
</g>
<g>
	<path fill-rule="evenodd" clip-rule="evenodd" fill="#010101" d="M17.618,57.652c0.235,0.739-0.135,1.188-0.34,1.672
		c-1.487,3.513-3.284,6.902-4.248,10.624c-0.226,0.871-0.735,0.701-1.174,0.277c-1.051-1.014-1.296-2.372-1.429-3.753
		c-0.02-0.205,0.058-0.388,0.258-0.524c2.2-1.504,3.264-3.955,4.911-5.922C16.23,59.269,16.733,58.397,17.618,57.652z"/>
	<path fill-rule="evenodd" clip-rule="evenodd" fill="#030303" d="M19.429,45.728c0.02,1.034-0.7,1.55-1.526,0.932
		c-1.255-0.939-2.367-2.072-3.526-3.136c-0.232-0.214-0.266-0.532-0.116-0.806c0.167-0.305,0.486-0.285,0.774-0.222
		c0.809,0.179,1.628,0.33,2.419,0.571C18.85,43.494,19.4,44.274,19.429,45.728z"/>
	<path fill-rule="evenodd" clip-rule="evenodd" fill="#020202" d="M15.494,53.702c0.04,0.433-0.105,0.87-0.522,1.14
		c-0.464,0.3-0.884,0.028-1.267-0.229c-1.055-0.713-1.766-1.754-2.561-2.715c-0.224-0.271-0.306-0.608-0.167-0.938
		c0.169-0.398,0.56-0.296,0.877-0.29C13.674,50.705,15.467,52.178,15.494,53.702z"/>
	<path fill-rule="evenodd" clip-rule="evenodd" d="M30.712,54.241c2.248,2.912,4.71,5.641,7.257,8.293
		c0.349,0.363,0.682,0.773,1.194,0.871c2.473,0.474,4.825-0.095,7.274-1.007c-5.91-1.664-10.834-4.834-15.159-9.195
		c0.903-0.096,1.716-0.212,2.534-0.264c2.417-0.15,4.836-0.261,7.252-0.428c0.359-0.024,0.94,0.098,0.992-0.507
		c0.042-0.485-0.402-0.688-0.755-0.907c-1.323-0.82-2.748-0.892-4.227-0.571c-1.393,0.303-2.788,0.601-4.274,0.921
		c0.357-1.184,0.731-2.166,0.938-3.182c0.208-1.024,0.644-1.602,1.761-1.707c0.86-0.081,1.697-0.408,2.546-0.619
		c0.374-0.093,0.837-0.202,0.867-0.603c0.035-0.485-0.496-0.584-0.854-0.771c-1.012-0.529-2.064-0.229-3.271-0.015
		c0.511-1.212,0.933-2.251,1.388-3.275c0.227-0.51,0.25-0.969-0.16-1.38c-0.593-0.596-1.259-1.102-2.026-1.446
		c-0.338-0.151-0.752-0.27-1.079-0.019c-0.359,0.276-0.238,0.723-0.102,1.048c0.443,1.063,0.146,2.124,0.137,3.199
		c-0.019,2.25-1.111,3.069-3.269,3.359c-2.646,0.354-2.622,0.539-2.459-2.05c0.003-0.041,0.004-0.083,0.007-0.125
		c0.106-1.853-0.876-2.822-2.736-2.715c-0.717,0.042-1.114,0.407-0.646,1.025c0.726,0.959,0.817,2.064,1.062,3.158
		c0.252,1.127,0.165,1.857-1.27,1.636c-0.235-0.036-0.498,0.052-0.738,0.118c-0.223,0.061-0.547,0-0.607,0.322
		c-0.056,0.3,0.2,0.437,0.415,0.555c0.217,0.119,0.457,0.29,0.684,0.287c2.041-0.03,2.24,1.29,2.15,2.854
		c-0.014,0.246,0.015,0.508,0.086,0.744c0.223,0.747-0.175,0.935-0.809,1.019c-1.571,0.209-3.147,0.407-4.701,0.714
		c-0.509,0.101-1.471-0.171-1.456,0.51c0.017,0.748,0.954,0.939,1.653,1.077c0.452,0.089,0.899-0.023,1.352-0.156
		c0.648-0.19,1.296-0.477,2.184-0.354c-0.916,5.554-5.083,8.775-8.576,12.461c3.421-0.976,5.476-3.658,7.776-6.117
		c0.447,1.013,0.431,1.958,0.422,2.904c-0.02,2.088-0.107,4.179,0.272,6.249c0.22,1.2,0.498,2.359,1.546,3.171
		c3.529,2.731,10.311,2.582,13.738-0.29c0.57-0.479,0.784-1.03,0.448-1.643c-0.722-1.317-1.22-2.726-1.844-4.351
		c-0.499,1.233-0.907,2.183-1.268,3.148c-0.467,1.251-1.39,1.943-2.649,2.227c-1.062,0.239-2.135,0.386-3.23,0.311
		c-3.54-0.243-5.351-2.032-5.425-5.409c-0.006-0.272-0.28-0.66,0.435-0.747c2.272-0.275,4.526-0.707,6.787-1.074
		c0.243-0.04,0.537,0,0.649-0.277c0.124-0.304-0.136-0.478-0.339-0.583c-0.581-0.3-0.437-0.725-0.236-1.154
		c0.229-0.49,0.443-0.994,0.74-1.442c1.191-1.8,1.202-1.793-0.767-2.812c-0.222-0.115-0.474-0.188-0.667-0.338
		c-0.622-0.48-1.173-0.374-1.818,0.019c-1.22,0.743-2.622,1.039-3.969,1.472c-0.762,0.245-1.251-0.25-1.657-0.607
		c-0.417-0.367,0.225-0.753,0.424-1.102c0.372-0.65,0.811-1.264,1.243-1.877c0.652-0.929,1.208-1.842-0.374-2.747
		c1.292-0.235,2.308-0.403,3.315-0.609C29.652,53.268,30.191,53.566,30.712,54.241z M25.186,64.103
		c0.16-2.401,0.16-2.403,2.383-2.963c0.682-0.172,1.365-0.347,2.054-0.489c0.743-0.153,1.151,0.095,0.957,0.923
		c-0.18,0.765-0.375,1.527-0.582,2.286c-0.04,0.146-0.135,0.361-0.247,0.393c-1.434,0.399-2.859,0.944-4.321,1.08
		C24.689,65.401,25.408,64.452,25.186,64.103z M27.16,51.742c0.017-0.165,0.003-0.334,0-0.501c-0.06-3.079-0.062-3.09,3.042-3.574
		c0.564-0.088,1.113-0.361,1.814-0.195c-0.118,0.526-0.211,0.975-0.319,1.419c-0.748,3.062-0.751,3.045-3.826,3.471
		C27.29,52.441,27.103,52.296,27.16,51.742z"/>
</g>
<g>
	<g>
		<path d="M96.074,5.439H47.058c-2.163,0-3.922,1.76-3.922,3.922v19.644H1.96c-1.083,0-1.96,0.877-1.96,1.961V81.91
			c0,1.083,0.877,1.959,1.96,1.959h17.646v8.73c0,0.75,0.428,1.433,1.1,1.762c0.273,0.135,0.567,0.199,0.861,0.199
			c0.428,0,0.855-0.141,1.206-0.414l13.194-10.277H54.9c1.082,0,1.961-0.876,1.961-1.959V60.34h4.256
			c0.633,0,1.777,0.401,2.273,0.795l10.326,8.215c0.635,0.504,1.336,0.771,2.027,0.771c1.334,0,2.688-1.046,2.688-3.048v-6.733
			h17.646c2.162,0,3.922-1.759,3.922-3.922V9.36C99.996,7.201,98.238,5.439,96.074,5.439z M52.939,79.947H35.292
			c-0.437,0-0.861,0.146-1.206,0.412l-10.559,8.229v-6.682c0-1.084-0.878-1.959-1.961-1.959H3.921V32.926h39.214v23.493
			c0,2.163,1.759,3.921,3.922,3.921h5.882V79.947z M96.074,56.419H78.428c-2.16,0-3.92,1.759-3.92,3.921l-0.002,4.628l-8.674-6.899
			c-1.201-0.955-3.184-1.648-4.715-1.648h-14.06V9.361h49.017V56.419z"/>
		<g>
			<path fill-rule="evenodd" clip-rule="evenodd" d="M89.57,33.509c-3.373,1.329-7.111,2.2-9.924-0.326
				c-2.398-2.154-4.883-4.219-7.211-6.456c-0.318-0.307-0.652-0.595-1.053-0.96c-0.316,1.614-0.191,3.126-0.221,4.629
				c-0.012,0.572,0.029,1.147-0.021,1.716c-0.061,0.688,0.236,1.782-0.635,1.869c-1.039,0.102-1.113-1.109-1.17-1.832
				c-0.1-1.249,0.084-2.52,0.131-3.782c0.021-0.596,0.004-1.193,0.004-2.072c-0.49,0.622-0.826,1.055-1.168,1.483
				c-3.102,3.894-6.705,7.134-11.475,8.869c-1.605,0.584-2.051,0.643-3.266,0.284c2.543-1.604,5.088-2.932,7.369-4.657
				c2.32-1.754,4.492-3.646,6.105-6.369c-2.07,0.144-3.883,0.665-5.697,1.164c-1.033,0.284-2.014,0.318-2.951-0.249
				c-0.275-0.167-0.6-0.372-0.561-0.745c0.051-0.464,0.482-0.348,0.779-0.393c3.23-0.486,6.455-0.999,9.693-1.423
				c0.92-0.121,1.201-0.424,1.154-1.369c-0.17-3.401-0.367-3.583-3.613-2.817c-0.752,0.179-1.51,0.338-2.268,0.487
				c-0.145,0.028-0.305-0.035-0.484-0.06c0.111-0.627,0.65-0.59,1.023-0.746c2.217-0.93,4.471-1.78,6.506-3.086
				c0.75-0.48,1.553-0.928,1.816-1.893c0.135-0.497,0.473-0.582,0.953-0.466c1.184,0.289,2.191,0.917,3.066,1.71
				c0.617,0.56,0.521,1.031-0.439,1.188c-1.852,0.303-3.641,0.831-5.438,1.704c0.33,0.195,0.557,0.351,0.801,0.469
				c0.826,0.4,1.059,0.924,0.721,1.865c-0.893,2.484-0.844,2.515,1.678,2.042c1.844-0.346,3.686-0.712,5.52-1.103
				c1.52-0.324,2.682,0.406,3.828,1.213c0.248,0.175,0.393,0.46,0.318,0.75c-0.105,0.409-0.512,0.368-0.818,0.386
				c-2.771,0.155-5.547,0.292-8.32,0.438c-0.564,0.03-1.141,0-1.764,0.255C77.318,29.882,83.447,31.651,89.57,33.509z"/>
			<path fill-rule="evenodd" clip-rule="evenodd" d="M78.465,35.937c-0.383-1-3.395-2.342-4.406-1.934
				c-1.781,0.719-3.604,1.323-5.494,1.635c-1.582,0.261-3.201,1.122-4.781-0.099c-0.244-0.188-0.66-0.175-0.918,0.081
				c-0.26,0.26,0.004,0.517,0.104,0.771c0.896,2.266,0.914,4.614,0.688,6.993c-0.113,1.181-0.418,2.32-0.643,3.299
				c0.025,1.058,0.271,1.867,0.734,2.608c0.443,0.713,1.023,0.687,1.205-0.074c0.26-1.091,1.02-1.085,1.822-1.167
				c0.488-0.051,0.971-0.143,1.459-0.171c1.547-0.092,3.217-0.548,4.605-0.114c1.094,0.341,1.488,2.025,2.188,3.116
				c0.582,0.908,1.152,0.774,1.711,0.029c0.83-1.109,1.277-2.372,1.244-3.762c-0.061-2.49-0.148-4.979-0.252-7.468
				c-0.043-1.036-0.021-2.043,0.59-2.939C78.488,36.495,78.58,36.238,78.465,35.937z M75.26,41.935
				c-0.059,0.946-0.102,2.418-0.258,3.878c-0.115,1.082-0.42,1.189-1.234,0.491c-0.617-0.529-1.291-0.654-2.047-0.524
				c-1.768,0.304-3.539,0.592-5.297,0.945c-0.717,0.145-0.98-0.003-0.877-0.758c0.07-0.522,0.053-1.059,0.064-1.589
				c0.043-1.739,0.043-1.727,1.824-1.972c1.656-0.229,3.307-0.491,4.961-0.732c0.293-0.042,0.633-0.086,0.715-0.377
				c0.104-0.362-0.209-0.602-0.482-0.778c-0.779-0.508-1.645-0.45-2.486-0.247c-1.227,0.296-2.447,0.626-3.646,1.016
				c-0.635,0.206-0.904,0.17-0.85-0.583c0.072-1.017-0.242-2.223,0.207-3.002c0.434-0.752,1.766-0.53,2.693-0.768
				c1.422-0.363,2.854-0.684,4.279-1.02c1.926-0.452,2.336-0.165,2.424,1.823C75.305,38.961,75.26,40.188,75.26,41.935z"/>
		</g>
	</g>
</g>
</svg>
