<svg xmlns="http://www.w3.org/2000/svg" xmlns:xlink="http://www.w3.org/1999/xlink" version="1.1" x="0px" y="0px" viewBox="0 0 64 80" enable-background="new 0 0 64 64" xml:space="preserve"><g><path d="M54.955,48.367h-4.219l-8.813-14.162c-0.547-0.88-1.51-1.415-2.547-1.415H26.313l-1.853-6.676h8.469   c1.657,0,2.999-1.343,2.999-2.999s-1.342-2.999-2.999-2.999H22.797l-0.837-3.014c-0.444-1.595-2.093-2.532-3.691-2.088   c-1.597,0.443-2.532,2.096-2.089,3.692l4.961,17.885c0.361,1.298,1.542,2.196,2.89,2.196h13.679l8.813,14.163   c0.549,0.88,1.512,1.414,2.547,1.414h5.885c1.656,0,2.998-1.343,2.998-2.999S56.611,48.367,54.955,48.367z"/><path d="M37.725,50.7c-2.764,3.369-6.845,5.302-11.199,5.302c-7.985,0-14.482-6.496-14.482-14.481c0-3.743,1.422-7.295,4.005-10   c1.145-1.197,1.101-3.096-0.097-4.24c-1.198-1.144-3.096-1.101-4.24,0.098c-3.654,3.826-5.666,8.849-5.666,14.143   C6.046,52.813,15.233,62,26.526,62c6.156,0,11.927-2.732,15.835-7.495c1.051-1.28,0.865-3.17-0.416-4.221   C40.666,49.233,38.775,49.42,37.725,50.7z"/><circle cx="16.199" cy="7.308" r="5.308"/></g><text x="0" y="79" fill="#000000" font-size="5px" font-weight="bold" font-family="'Helvetica Neue', Helvetica, Arial-Unicode, Arial, Sans-serif">Created by Creative Stall</text><text x="0" y="84" fill="#000000" font-size="5px" font-weight="bold" font-family="'Helvetica Neue', Helvetica, Arial-Unicode, Arial, Sans-serif">from the Noun Project</text></svg>