<?xml version="1.0" encoding="utf-8"?>
<!-- Generator: Adobe Illustrator 16.0.0, SVG Export Plug-In . SVG Version: 6.00 Build 0)  -->
<!DOCTYPE svg PUBLIC "-//W3C//DTD SVG 1.1 Tiny//EN" "http://www.w3.org/Graphics/SVG/1.1/DTD/svg11-tiny.dtd">
<svg version="1.1" baseProfile="tiny" id="Layer_1" xmlns="http://www.w3.org/2000/svg" xmlns:xlink="http://www.w3.org/1999/xlink"
	 x="0px" y="0px" width="100px" height="100px" viewBox="0 0 100 100" xml:space="preserve">
<path d="M97.5,11.668c-2.373-1.121-4.66-2.154-6.88-3.143c0,0.021,0,0.021,0,0.021s-0.022,0-0.022-0.021
	c-4.243,3.254-9.544,5.188-15.309,5.188c-8.663,0-16.317-4.354-20.848-10.995h-8.883c-4.53,6.641-12.183,10.995-20.848,10.995
	c-5.762,0-11.061-1.935-15.306-5.188c0,0.021-0.022,0.021-0.022,0.021s0,0,0-0.021C7.163,9.515,4.876,10.547,2.5,11.668
	c23.509,21.024,0.792,43.103,13.679,62.96C24.887,88.043,39.688,85.756,50,97.281c10.315-11.525,25.113-9.238,33.824-22.652
	C96.709,54.771,73.994,32.693,97.5,11.668z M24.713,20.312c9.325,0,18.077-4.046,24.083-10.995h2.417
	c6.005,6.949,14.754,10.995,24.079,10.995c2.748,0,5.433-0.352,8.027-1.011c-3.738,7.652-4.005,15.306-3.433,22.299
	c-5.737-6.136-15.656-13.591-29.885-13.591c-14.228,0-24.145,7.456-29.884,13.591c0.57-6.994,0.307-14.646-3.43-22.299
	C19.282,19.959,21.964,20.312,24.713,20.312z M79.078,51.1c-3.06,4.441-12.913,16.492-29.076,16.492
	c-16.184,0-26.015-12.073-29.071-16.492c3.034-4.442,12.82-16.493,29.071-16.493C66.19,34.606,76.017,46.68,79.078,51.1z
	 M78.286,71.045c-3.564,5.497-8.47,7.521-14.667,10.092c-4.356,1.805-9.128,3.782-13.616,7.213
	c-4.485-3.431-9.257-5.408-13.611-7.213c-6.201-2.571-11.106-4.595-14.668-10.092c-2.485-3.827-3.21-7.874-3.21-12.25
	c5.41,6.38,15.833,15.395,31.49,15.395c15.659,0,26.083-9.015,31.492-15.395C81.494,63.174,80.768,67.221,78.286,71.045z"/>
<path d="M63.193,50.001c0,7.278-5.912,13.192-13.193,13.192c-7.279,0-13.193-5.912-13.193-13.192c0-7.28,5.915-13.194,13.193-13.194
	c0.55,0,1.078,0.022,1.606,0.109C50.595,38.06,50,39.555,50,41.204c0,3.65,2.945,6.598,6.598,6.598c2.332,0,4.374-1.187,5.54-3.013
	C62.82,46.394,63.193,48.154,63.193,50.001z"/>
</svg>
