<?xml version="1.0" encoding="utf-8"?>
<!-- Generator: Adobe Illustrator 16.0.0, SVG Export Plug-In . SVG Version: 6.00 Build 0)  -->
<!DOCTYPE svg PUBLIC "-//W3C//DTD SVG 1.1//EN" "http://www.w3.org/Graphics/SVG/1.1/DTD/svg11.dtd">
<svg version="1.1" id="Layer_1" xmlns="http://www.w3.org/2000/svg" xmlns:xlink="http://www.w3.org/1999/xlink" x="0px" y="0px"
	 width="100px" height="100px" viewBox="0 0 100 100" enable-background="new 0 0 100 100" xml:space="preserve">
<path fill="none" stroke="#010101" stroke-width="5" stroke-linecap="round" stroke-linejoin="round" stroke-miterlimit="10" d="
	M37.5,25c0-6.904,5.596-12.5,12.5-12.5c6.902,0,12.5,5.596,12.5,12.5"/>
<path d="M75.26,32.5H24.74c-9.506,0-17.24,7.734-17.24,17.24v25.52c0,9.506,7.734,17.24,17.24,17.24h50.52
	c9.506,0,17.24-7.734,17.24-17.24V49.74C92.5,40.234,84.766,32.5,75.26,32.5z M17.5,75.26V49.74c0-3.992,3.248-7.24,7.24-7.24h50.52
	c3.992,0,7.24,3.248,7.24,7.24L17.5,75.26z"/>
</svg>
