<?xml version="1.0" encoding="utf-8"?>
<!-- Generator: Adobe Illustrator 16.0.0, SVG Export Plug-In . SVG Version: 6.00 Build 0)  -->
<!DOCTYPE svg PUBLIC "-//W3C//DTD SVG 1.1//EN" "http://www.w3.org/Graphics/SVG/1.1/DTD/svg11.dtd">
<svg version="1.1" id="Layer_1" xmlns="http://www.w3.org/2000/svg" xmlns:xlink="http://www.w3.org/1999/xlink" x="0px" y="0px"
	 width="100px" height="100px" viewBox="0 0 100 100" enable-background="new 0 0 100 100" xml:space="preserve">
<g>
	<g>
		<path d="M44.391,7.32c5.565-1.194,10.625-0.233,15.229,2.909c-0.076,0.638-0.138,1.164-0.205,1.742
			c0.79-0.17,1.466-0.314,2.315-0.498c-0.221,1.024-0.303,1.89-0.598,2.684c-0.437,1.178-1.02,2.303-1.542,3.454
			c0.713,0.573,1.43,0.767,2.156,0.383c0.045-1.188,0.047-2.256,0.134-3.32c0.096-1.144,0.271-2.282,0.401-3.37
			c0.792-0.298,1.395-0.527,2-0.756c-0.088-0.193-0.104-0.312-0.172-0.362c-3.334-2.458-6.684-4.895-10.001-7.377
			c-0.59-0.441-1.121-0.32-1.727-0.166c-3.734,0.947-7.47,1.888-11.205,2.84c-0.324,0.081-0.635,0.22-1.171,0.41
			c1.379,1.104,2.581,2.066,3.885,3.111C44.083,8.36,44.225,7.881,44.391,7.32z"/>
	</g>
	<g>
		<path d="M57.136,17.453c0-0.003,0.002-0.012,0.004-0.023c0.051-0.247,0.084-0.497,0.104-0.748c0.11-0.828,0.267-2.015,0.267-2.015
			c0.254-1.253,0.487-2.412,0.737-3.629c-3.946-2.377-8.097-3.206-12.563-2.515c-0.258,1.268-0.484,2.385-0.729,3.601
			c0,0-0.802,3.442-0.683,3.522v-0.001c-0.118,1.446,0.228,2.935,1.092,4.213c1.976,2.925,6.147,3.686,9.102,1.66
			C55.902,20.533,56.812,19.053,57.136,17.453C57.134,17.455,57.136,17.453,57.136,17.453z"/>
	</g>
	<path d="M69.971,33.922l-2.141,0.96c-0.124,0.055-0.254,0.082-0.381,0.082c-0.356,0-0.697-0.205-0.853-0.551
		c-0.211-0.47-0.001-1.022,0.47-1.233l1.638-0.735l-3.048-3.534l-2.551,1.144c-0.124,0.056-0.254,0.082-0.381,0.082
		c-0.356,0-0.696-0.205-0.852-0.551c-0.211-0.47,0-1.022,0.47-1.233l2.041-0.915l-2.7-3.131c-0.679-0.787-1.689-1.204-2.73-1.122
		l-18.052,1.433c-0.931,0.074-1.785,0.542-2.347,1.287L35.838,29.5l2.329,1.721c0.414,0.306,0.501,0.891,0.195,1.305
		c-0.183,0.247-0.465,0.378-0.751,0.378c-0.192,0-0.387-0.06-0.553-0.183l-2.344-1.733l-3.318,4.394l2.199,1.184
		c0.454,0.245,0.623,0.811,0.379,1.264c-0.168,0.312-0.49,0.49-0.822,0.49c-0.149,0-0.301-0.036-0.442-0.111l-2.451-1.32
		l-0.236,0.312c-0.376,0.498-0.585,1.08-0.639,1.674c-0.118,0.229-0.149,0.5-0.049,0.76l0.13,0.338
		c0.058,0.228,0.148,0.448,0.255,0.662l1.896,4.911l3.07-1.724c0.45-0.251,1.019-0.093,1.271,0.356
		c0.252,0.45,0.092,1.018-0.356,1.271l-3.305,1.856L37.698,61.3c0.125,0.323,0.419,0.551,0.764,0.591
		c0.036,0.004,0.071,0.006,0.107,0.006c0.306,0,0.595-0.15,0.771-0.407l1.242-1.822l-6.838,20.959
		c-0.095,0.291-0.042,0.609,0.144,0.853c0.177,0.233,0.452,0.369,0.743,0.369c0.013,0,0.027,0,0.041-0.001l2.265-0.099
		l-2.098,10.749c-0.444,2.275,1.04,4.48,3.316,4.925c0.271,0.053,0.542,0.078,0.809,0.078c1.968,0,3.725-1.391,4.116-3.394
		l2.485-12.733l4.48-0.195L50.87,93.58c0.147,2.219,1.992,3.919,4.185,3.919c0.093,0,0.188-0.003,0.282-0.01
		c2.313-0.153,4.063-2.154,3.909-4.467l-0.813-12.21l6.341-0.276c0.274-0.011,0.527-0.142,0.695-0.357
		c0.168-0.215,0.233-0.493,0.179-0.76l-5.503-27.053v-0.637c0.236,0.185,0.492,0.352,0.785,0.47c0.201,0.08,0.406,0.137,0.611,0.177
		l3.321,6.124c0.164,0.305,0.481,0.488,0.819,0.488c0.049,0,0.098-0.003,0.147-0.011c0.39-0.062,0.698-0.363,0.771-0.752
		l2.954-16.039l-2.272-0.415c-0.507-0.092-0.843-0.578-0.751-1.084c0.093-0.506,0.579-0.844,1.085-0.75l2.276,0.415l0.576-3.125
		l0.009-0.022c0.168-0.419,0.244-0.859,0.233-1.295l0.003-0.014c0.031-0.167,0.001-0.326-0.051-0.475
		C70.565,34.879,70.331,34.363,69.971,33.922z M50.23,48.128l0.084,0.963c0.045,0.514-0.335,0.966-0.848,1.011
		c-0.027,0.002-0.055,0.003-0.082,0.003c-0.479,0-0.886-0.366-0.928-0.852l-0.084-0.963c-0.045-0.514,0.335-0.966,0.848-1.01
		C49.731,47.237,50.186,47.616,50.23,48.128z M49.81,43.311l0.084,0.963c0.045,0.514-0.335,0.966-0.848,1.011
		c-0.027,0.002-0.055,0.003-0.082,0.003c-0.479,0-0.886-0.366-0.928-0.852l-0.084-0.963c-0.045-0.513,0.335-0.966,0.848-1.01
		C49.312,42.422,49.765,42.798,49.81,43.311z M49.39,38.494l0.084,0.963c0.045,0.514-0.335,0.966-0.848,1.011
		c-0.027,0.002-0.055,0.003-0.082,0.003c-0.479,0-0.886-0.366-0.928-0.852l-0.084-0.963c-0.045-0.513,0.335-0.965,0.848-1.01
		C48.894,37.607,49.345,37.981,49.39,38.494z M48.969,33.677l0.084,0.963c0.044,0.513-0.335,0.965-0.848,1.01
		c-0.027,0.002-0.055,0.004-0.082,0.004c-0.479,0-0.886-0.367-0.928-0.852l-0.084-0.963c-0.045-0.513,0.335-0.965,0.848-1.01
		C48.475,32.783,48.924,33.164,48.969,33.677z M46.063,28.435c0.459-0.234,1.021-0.052,1.254,0.407l0.439,0.861
		c0.234,0.459,0.052,1.021-0.407,1.254c-0.135,0.07-0.281,0.103-0.423,0.103c-0.34,0-0.667-0.186-0.832-0.509l-0.44-0.862
		C45.422,29.23,45.604,28.668,46.063,28.435z M44.088,24.562c0.46-0.233,1.021-0.051,1.255,0.407l0.217,0.426
		c0.234,0.459,0.052,1.021-0.407,1.255c-0.136,0.069-0.28,0.102-0.423,0.102c-0.34,0-0.667-0.186-0.832-0.509l-0.217-0.426
		C43.447,25.358,43.629,24.797,44.088,24.562z M36.593,39.336l4.164-5.515l1.27,14.135L36.593,39.336z M41.044,80.764l-0.154,0.453
		c-0.133,0.388-0.495,0.632-0.883,0.632c-0.1,0-0.202-0.017-0.301-0.051c-0.488-0.166-0.748-0.696-0.582-1.185l0.154-0.452
		c0.167-0.487,0.698-0.746,1.184-0.582C40.95,79.746,41.21,80.275,41.044,80.764z M42.605,76.188l-0.312,0.916
		c-0.133,0.387-0.495,0.632-0.883,0.632c-0.1,0-0.201-0.017-0.301-0.051c-0.488-0.166-0.748-0.696-0.582-1.185l0.312-0.915
		c0.167-0.487,0.695-0.748,1.184-0.582C42.511,75.169,42.772,75.699,42.605,76.188z M44.167,71.611l-0.312,0.915
		c-0.133,0.388-0.495,0.632-0.883,0.632c-0.1,0-0.201-0.017-0.301-0.05c-0.488-0.166-0.748-0.696-0.582-1.185l0.312-0.916
		c0.167-0.487,0.695-0.746,1.184-0.581C44.073,70.593,44.333,71.123,44.167,71.611z M45.729,67.034l-0.312,0.916
		c-0.132,0.388-0.495,0.632-0.883,0.632c-0.1,0-0.201-0.017-0.301-0.05c-0.488-0.167-0.748-0.697-0.582-1.185l0.312-0.916
		c0.167-0.487,0.694-0.747,1.184-0.581C45.634,66.017,45.895,66.547,45.729,67.034z M47.29,62.458l-0.312,0.916
		c-0.132,0.387-0.495,0.632-0.883,0.632c-0.1,0-0.201-0.017-0.301-0.051c-0.487-0.166-0.748-0.696-0.582-1.185l0.312-0.915
		c0.167-0.487,0.696-0.746,1.184-0.582C47.196,61.439,47.456,61.97,47.29,62.458z M48.852,57.882l-0.312,0.915
		c-0.132,0.388-0.495,0.633-0.883,0.633c-0.1,0-0.201-0.018-0.301-0.051c-0.487-0.166-0.748-0.696-0.582-1.185l0.312-0.916
		c0.167-0.487,0.694-0.745,1.184-0.581C48.757,56.863,49.018,57.394,48.852,57.882z M50.413,53.305l-0.312,0.916
		c-0.132,0.388-0.495,0.632-0.883,0.632c-0.1,0-0.201-0.017-0.301-0.05c-0.488-0.167-0.749-0.696-0.582-1.185l0.312-0.916
		c0.167-0.487,0.695-0.748,1.184-0.581C50.319,52.287,50.58,52.817,50.413,53.305z M56.394,24.882l0.195-0.436
		c0.21-0.47,0.762-0.682,1.232-0.471c0.47,0.211,0.681,0.762,0.47,1.232l-0.194,0.436c-0.155,0.347-0.496,0.552-0.853,0.552
		c-0.127,0-0.257-0.026-0.38-0.082C56.394,25.904,56.183,25.352,56.394,24.882z M54.494,29.117l0.38-0.847
		c0.211-0.47,0.76-0.682,1.233-0.47c0.471,0.211,0.681,0.763,0.47,1.233l-0.38,0.847c-0.155,0.346-0.496,0.551-0.853,0.551
		c-0.127,0-0.257-0.026-0.381-0.082C54.493,30.139,54.283,29.586,54.494,29.117z M53.127,32.936c0-0.515,0.417-0.933,0.933-0.933
		c0.515,0,0.933,0.418,0.933,0.933v0.928c0,0.515-0.418,0.933-0.933,0.933c-0.516,0-0.933-0.418-0.933-0.933V32.936z M53.127,37.577
		c0-0.515,0.417-0.933,0.933-0.933c0.515,0,0.933,0.417,0.933,0.933v0.929c0,0.515-0.418,0.933-0.933,0.933
		c-0.516,0-0.933-0.417-0.933-0.933V37.577z M53.127,42.218c0-0.515,0.417-0.933,0.933-0.933c0.515,0,0.933,0.418,0.933,0.933v0.928
		c0,0.515-0.418,0.933-0.933,0.933c-0.516,0-0.933-0.418-0.933-0.933V42.218z M53.127,46.859c0-0.515,0.417-0.933,0.933-0.933
		c0.515,0,0.933,0.417,0.933,0.933v0.929c0,0.515-0.418,0.933-0.933,0.933c-0.516,0-0.933-0.418-0.933-0.933V46.859z M53.248,52.588
		l-0.106-0.574c-0.01-0.057-0.015-0.113-0.015-0.17V51.5c0-0.516,0.417-0.933,0.933-0.933c0.515,0,0.933,0.417,0.933,0.933v0.258
		l0.091,0.491c0.094,0.507-0.24,0.992-0.747,1.087c-0.059,0.011-0.115,0.016-0.171,0.016C53.724,53.352,53.331,53.037,53.248,52.588
		z M54.097,57.152l-0.17-0.912c-0.094-0.507,0.24-0.994,0.746-1.088c0.504-0.099,0.993,0.239,1.087,0.746l0.17,0.912
		c0.095,0.507-0.239,0.994-0.745,1.088c-0.059,0.011-0.115,0.017-0.172,0.017C54.572,57.915,54.18,57.602,54.097,57.152z
		 M54.942,61.715l-0.169-0.912c-0.094-0.507,0.241-0.993,0.748-1.088c0.512-0.094,0.993,0.242,1.087,0.748l0.169,0.912
		c0.094,0.507-0.24,0.993-0.747,1.088c-0.059,0.01-0.115,0.016-0.171,0.016C55.417,62.479,55.025,62.164,54.942,61.715z
		 M55.791,66.278l-0.17-0.912c-0.096-0.507,0.239-0.993,0.746-1.087c0.506-0.099,0.993,0.239,1.087,0.746l0.17,0.911
		c0.096,0.507-0.239,0.993-0.746,1.088c-0.058,0.011-0.114,0.017-0.172,0.017C56.266,67.041,55.874,66.728,55.791,66.278z
		 M56.639,70.842l-0.17-0.913c-0.095-0.507,0.239-0.994,0.745-1.087c0.507-0.099,0.994,0.239,1.088,0.746l0.17,0.912
		c0.094,0.507-0.24,0.994-0.746,1.088c-0.058,0.011-0.114,0.017-0.172,0.017C57.113,71.604,56.722,71.291,56.639,70.842z
		 M57.484,75.404l-0.169-0.913c-0.094-0.507,0.24-0.993,0.747-1.087c0.512-0.094,0.993,0.241,1.088,0.747l0.169,0.913
		c0.093,0.507-0.241,0.993-0.748,1.088c-0.058,0.01-0.114,0.016-0.171,0.016C57.959,76.168,57.567,75.854,57.484,75.404z
		 M59.336,80.272c-0.058,0.01-0.115,0.016-0.171,0.016c-0.441,0-0.833-0.314-0.917-0.764l-0.086-0.47
		c-0.094-0.507,0.241-0.993,0.747-1.087c0.512-0.093,0.994,0.241,1.088,0.747l0.087,0.47C60.177,79.691,59.842,80.178,59.336,80.272
		z M60.145,45.403V32.518l3.532,4.096L60.145,45.403z"/>
</g>
</svg>
