<?xml version="1.0" encoding="utf-8"?>
<!-- Generator: Adobe Illustrator 16.0.0, SVG Export Plug-In . SVG Version: 6.00 Build 0)  -->
<!DOCTYPE svg PUBLIC "-//W3C//DTD SVG 1.1//EN" "http://www.w3.org/Graphics/SVG/1.1/DTD/svg11.dtd">
<svg version="1.1" id="Layer_1" xmlns="http://www.w3.org/2000/svg" xmlns:xlink="http://www.w3.org/1999/xlink" x="0px" y="0px"
	 width="100px" height="100px" viewBox="0 0 100 100" enable-background="new 0 0 100 100" xml:space="preserve">
<g>
	<path d="M52.889,39.365c-0.167,0.449-0.276,0.91-0.323,1.379c-0.054,0.518-0.039,1.039,0.057,1.555
		c0.059,0.309,0.131,0.617,0.241,0.918c0.515,1.392,1.539,2.499,2.889,3.119c0.733,0.338,1.514,0.508,2.314,0.508
		c0.996,0,1.949-0.279,2.781-0.764c0.45-0.262,0.863-0.584,1.227-0.964c0.325-0.339,0.606-0.725,0.84-1.145
		c0.066-0.121,0.143-0.237,0.2-0.365c0,0,11.078-24.098,11.103-24.147c0.022-0.052,0.334-0.974,0.399-1.345
		c0.436-2.428-0.783-4.941-3.127-6.02c-0.731-0.338-1.512-0.508-2.312-0.508c-1.688,0-3.258,0.78-4.3,2.052
		c-0.293,0.359-0.552,0.75-0.748,1.183c0.001-0.004,0.002-0.008,0.004-0.011l-0.006,0.012c-0.001,0.001-0.003,0.004-0.004,0.006
		L53.026,38.97C52.968,39.099,52.937,39.233,52.889,39.365z"/>
	<path d="M57.886,12.83c0.235,0.236,0.388,0.544,0.5,0.881c0.263,0.799,0.22,1.822,0.001,2.859
		c-0.112,0.529-0.262,1.054-0.441,1.551c-0.068,0.191-0.137,0.384-0.214,0.564c-0.113,0.275-0.263,0.595-0.435,0.933
		c-1.504,2.975-5.374,7.975-14.463,8.285c-0.005,0-0.012,0.001-0.017,0.001L39.03,35.79c2.365,0.559,6.577,1.881,10.227,4.73
		l12.345-26.859c0.202-0.438,0.32-0.889,0.401-1.344c0.433-2.431-0.783-4.945-3.127-6.021c-0.734-0.336-1.515-0.508-2.312-0.508
		c-1.688,0-3.258,0.779-4.299,2.052c-0.296,0.359-0.554,0.751-0.754,1.184c0.002-0.004,0.002-0.006,0.007-0.01l-0.007,0.01
		L51.508,9.03l-1.561,3.395h7.532L57.886,12.83z"/>
	<path d="M43.271,12.424h1.353h2.268l2.087-4.549c0.2-0.438,0.319-0.89,0.398-1.344c0.434-2.429-0.781-4.943-3.126-6.021
		C45.515,0.174,44.737,0,43.937,0c-1.688,0-3.258,0.781-4.299,2.053c-0.293,0.359-0.552,0.751-0.751,1.185
		c0,0.002-0.004,0.004-0.004,0.006l-4.213,9.18h4.614H43.271L43.271,12.424z"/>
	<polygon points="48.988,7.861 48.991,7.854 48.988,7.861 48.983,7.874 	"/>
	<polygon points="72.961,28.84 72.96,28.84 72.96,28.841 	"/>
	<polygon points="62.358,45.252 62.362,45.248 62.36,45.249 	"/>
	<polygon points="62.364,45.241 62.362,45.245 62.362,45.246 	"/>
	<path d="M82.59,33.276c0-0.624-0.348-1.915-0.362-1.927c-0.785-2.115-2.805-3.628-5.19-3.628c-0.501,0-0.979,0.088-1.441,0.213
		c-0.803,0.216-1.528,0.607-2.146,1.131c-0.724,0.617-1.281,1.405-1.614,2.315c-0.004,0.012-0.006,0.026-0.012,0.038l-6.939,14.99
		h0.002c-0.205,0.447-0.308,0.913-0.332,1.377c-0.008,0.166,0,0.33,0.014,0.492c0.105,1.305,0.888,2.518,2.159,3.103
		c0.604,0.279,1.255,0.362,1.891,0.297c0.827-0.086,1.627-0.432,2.242-0.996c0.295-0.271,0.539-0.6,0.73-0.962l3.605-7.787
		l2.521,1.163l0.25-0.543l-3.742,8.143l-0.006,0.013c-0.062,0.134-0.137,0.259-0.211,0.386c-0.154,0.277-0.327,0.548-0.518,0.799
		c-0.392,0.519-0.86,0.967-1.379,1.343c-1.006,0.733-2.213,1.184-3.494,1.247c-0.111,0.007-0.218,0.021-0.327,0.021h-0.001
		c-0.942,0-1.859-0.202-2.723-0.599c-1.292-0.596-2.284-1.565-2.937-2.72c-0.313-0.557-0.537-1.157-0.678-1.781
		c-0.053-0.233-0.096-0.466-0.123-0.705c-0.431,0.22-0.872,0.412-1.337,0.555c-0.776,0.238-1.593,0.368-2.425,0.368c0,0,0,0-0.001,0
		c-0.966,0-1.61-0.172-2.512-0.497c0.513,1.676,0.831,3.528,0.831,5.63V65.28h-2.777V54.755c0-2.521-0.787-4.656-1.597-6.478
		c-3.795-8.545-14.63-10.023-15.183-10.092l-1.914-0.24l6.146-12.802h0.875c0.232,0,0.431-0.029,0.652-0.035
		c0.538-0.016,1.073-0.033,1.568-0.084c5.297-0.549,8.203-3.018,9.738-5.135c0.134-0.183,0.249-0.367,0.366-0.548
		c0.272-0.426,0.499-0.842,0.69-1.248c0.219-0.463,0.389-0.906,0.517-1.313c0.195-0.628,0.298-1.174,0.328-1.578H32.817
		c-2.75,0-5.153,1.458-6.499,3.64c-0.314,0.51-0.572,1.056-0.762,1.635l-7.219,15.48l-0.371,0.796
		c-0.356,0.882-0.557,1.844-0.557,2.855c0,1.382,0.373,2.675,1.014,3.794l0.781,1.12l17.737,23.491v31.983h33.332V100h2.776
		l0.002-23.609l8.821-17.956c0.124-0.224,0.242-0.446,0.337-0.688c0.231-0.594,0.367-1.235,0.378-1.908
		C82.591,55.805,82.59,33.276,82.59,33.276z"/>
</g>
</svg>
