<?xml version="1.0" encoding="utf-8"?>
<!-- Generator: Adobe Illustrator 16.0.0, SVG Export Plug-In . SVG Version: 6.00 Build 0)  -->
<!DOCTYPE svg PUBLIC "-//W3C//DTD SVG 1.1//EN" "http://www.w3.org/Graphics/SVG/1.1/DTD/svg11.dtd">
<svg version="1.1" id="Layer_1" xmlns="http://www.w3.org/2000/svg" xmlns:xlink="http://www.w3.org/1999/xlink" x="0px" y="0px"
	 width="100px" height="100px" viewBox="0 0 100 100" enable-background="new 0 0 100 100" xml:space="preserve">
<g transform="matrix( 1, 0, 0, 1, 0,0) ">
	<g>
		<g id="a">
			<path d="M48.448,24.477c0.769-1.024,0.97-2.093,0.604-3.205c-0.33-1.112-1.116-1.976-2.36-2.59
				c-1.281-0.615-2.616-0.776-4.006-0.483c-1.39,0.292-2.47,0.937-3.238,1.932l-10.866,14.4c-0.147,0.087-0.33,0.278-0.549,0.571
				c-0.293,0.351-0.659,0.819-1.098,1.405c-0.329,1.434-0.64,2.59-0.933,3.468l-3.677,17.869c-0.805,2.254-2.433,3.996-4.884,5.225
				L6.959,67.985c-2.195,1.112-3.585,2.679-4.171,4.698c-0.622,2.019-0.238,3.921,1.152,5.707c0.954,1.237,2.197,2.145,3.732,2.722
				c0.434,0.188,0.892,0.334,1.372,0.439c0.232,0.071,0.47,0.131,0.713,0.176c1.262,0.234,2.488,0.277,3.677,0.131
				c1.189-0.16,2.341-0.512,3.458-1.054L39.832,70.18c2.524-1.2,4.774-3.188,6.75-5.97c2.159-3.044,3.128-7.186,2.909-12.425
				l-0.384-4.961c-0.073-0.088-0.11-0.19-0.11-0.308l-0.165-7.815c0-0.965-0.458-1.8-1.372-2.502
				c-0.878-0.673-1.92-1.009-3.128-1.009c-1.244,0-2.287,0.366-3.128,1.097h-0.055c-0.841,0.702-1.262,1.551-1.262,2.546
				l0.165,7.771c0,0.175-0.073,0.336-0.219,0.483c-0.146,0.117-0.348,0.175-0.604,0.175c-0.183,0-0.366-0.059-0.548-0.175
				c-0.146-0.118-0.22-0.264-0.22-0.439l-0.165-7.859c0.146-0.176,0.274-0.336,0.384-0.483L48.448,24.477 M97.235,72.684
				c-0.586-2.02-1.976-3.586-4.172-4.698l-10.481-4.917c-2.487-1.229-4.115-2.971-4.884-5.225l-3.732-17.869
				c-0.255-0.878-0.566-2.034-0.933-3.468c-0.439-0.585-0.805-1.054-1.098-1.405c-0.22-0.292-0.402-0.483-0.549-0.571l-10.812-14.4
				c-0.768-0.995-1.865-1.639-3.293-1.932c-1.389-0.293-2.707-0.132-3.951,0.483c-1.243,0.615-2.048,1.478-2.414,2.59
				c-0.365,1.112-0.164,2.18,0.604,3.205l9.768,13.83c0.147,0.147,0.274,0.307,0.385,0.483l-0.165,7.859
				c0,0.176-0.072,0.322-0.22,0.439c-0.146,0.117-0.329,0.175-0.55,0.175c-0.219,0-0.401-0.059-0.548-0.175
				c-0.183-0.147-0.273-0.308-0.273-0.483l0.164-7.771c0.036-0.995-0.384-1.844-1.262-2.546c-0.842-0.731-1.902-1.097-3.184-1.097
				c-1.208,0-2.25,0.336-3.128,1.009c-0.879,0.703-1.336,1.537-1.372,2.502l-0.165,7.815c0,0.117-0.018,0.22-0.055,0.308
				l-0.384,4.961c-0.219,5.239,0.75,9.381,2.908,12.425c1.938,2.781,4.189,4.77,6.75,5.97l22.884,10.625
				c1.923,0.933,3.954,1.284,6.093,1.054c0.344-0.022,0.692-0.065,1.042-0.131c0.111-0.021,0.222-0.051,0.33-0.088
				c2.365-0.487,4.213-1.57,5.542-3.249C97.436,76.604,97.819,74.702,97.235,72.684z"/>
		</g>
	</g>
</g>
</svg>
