<?xml version="1.0" encoding="utf-8"?>
<!-- Generator: Adobe Illustrator 16.0.0, SVG Export Plug-In . SVG Version: 6.00 Build 0)  -->
<!DOCTYPE svg PUBLIC "-//W3C//DTD SVG 1.1//EN" "http://www.w3.org/Graphics/SVG/1.1/DTD/svg11.dtd">
<svg version="1.1" id="Layer_1" xmlns="http://www.w3.org/2000/svg" xmlns:xlink="http://www.w3.org/1999/xlink" x="0px" y="0px"
	 width="100px" height="100px" viewBox="0 0 100 100" enable-background="new 0 0 100 100" xml:space="preserve">
<g>
	<polygon points="27.373,33.236 28.586,33.236 87.634,33.236 88.646,33.236 58.109,2.5 	"/>
	<path d="M94.509,78.939c0.203,0,2.225-1.417,2.831-3.438c0.405-1.214,0-2.427-0.808-3.842c-1.82-3.033-8.09-1.618-10.313-1.012
		l-35.186,9.301l-20.83-6.066l1.213-4.246l19.616,5.865l4.247-1.214c0.808-1.213,0.808-2.021,0.606-2.427
		c-0.405-2.021-2.631-3.64-3.438-4.246c-5.056-2.427-19.818-9.1-25.075-9.505C22.52,57.705,8.769,62.154,2.5,64.581v32.558
		c3.842-1.618,11.122-3.844,19.413-3.844c3.64,0,7.28,0.405,11.324,1.417C49.617,99.361,61.749,100.575,94.509,78.939z"/>
	<path d="M65.188,71.86V57.099c0-4.044-3.234-7.482-7.078-7.482c-3.842,0-7.076,3.236-7.076,7.482v5.056
		c2.021,1.012,3.234,1.618,3.437,1.618c0.606,0.403,5.057,3.033,5.663,7.28c0,0.606,0.201,1.01,0,1.82L65.188,71.86z"/>
	<path d="M83.388,67.008V37.686H32.833v17.391c4.247,1.214,9.504,3.438,13.953,5.258v-3.235c0-6.471,5.056-11.729,11.323-11.729
		c6.271,0,11.325,5.258,11.325,11.729v13.75L83.388,67.008z"/>
</g>
</svg>
