<?xml version="1.0" encoding="utf-8"?>
<!-- Generator: Adobe Illustrator 16.0.0, SVG Export Plug-In . SVG Version: 6.00 Build 0)  -->
<!DOCTYPE svg PUBLIC "-//W3C//DTD SVG 1.1//EN" "http://www.w3.org/Graphics/SVG/1.1/DTD/svg11.dtd">
<svg version="1.1" id="Layer_1" xmlns="http://www.w3.org/2000/svg" xmlns:xlink="http://www.w3.org/1999/xlink" x="0px" y="0px"
	 width="100px" height="100px" viewBox="0 0 100 100" enable-background="new 0 0 100 100" xml:space="preserve">
<g>
	<path d="M81.453,10.822l6.488-6.489c0.992-0.989,0.992-2.599,0-3.589c-0.991-0.992-2.596-0.992-3.588,0l-6.49,6.489l-6.49-6.489
		c-0.991-0.992-2.599-0.992-3.59,0c-0.992,0.992-0.992,2.6,0,3.589l6.49,6.489l-8.581,8.583c-3.821-3.028-8.509-4.685-13.458-4.685
		c-0.002,0-0.002,0-0.002,0c-5.805,0-11.262,2.259-15.364,6.362c-4.103,4.105-6.364,9.564-6.364,15.371
		c0,5.804,2.262,11.261,6.364,15.365c1.657,1.656,3.586,3.034,5.734,4.098c1.258,0.617,2.78,0.105,3.4-1.153
		c0.619-1.256,0.107-2.778-1.15-3.398c-1.655-0.816-3.13-1.873-4.395-3.136c-3.147-3.145-4.879-7.328-4.879-11.774
		c0-4.449,1.735-8.633,4.879-11.779c3.145-3.144,7.325-4.875,11.774-4.875s8.635,1.732,11.778,4.878
		c6.493,6.494,6.493,17.06,0,23.552c-1.675,1.675-3.646,2.952-5.854,3.791c-1.31,0.5-1.971,1.965-1.471,3.276
		c0.386,1.015,1.349,1.637,2.371,1.637c0.302,0,0.604-0.053,0.9-0.166c2.884-1.097,5.458-2.762,7.644-4.948
		c7.861-7.865,8.415-20.302,1.679-28.821l8.583-8.583l6.49,6.489c0.496,0.496,1.145,0.744,1.793,0.744
		c0.651,0,1.302-0.248,1.798-0.744c0.991-0.992,0.991-2.599,0-3.589L81.453,10.822z M42.408,29.895
		c-1.262-0.606-2.778-0.071-3.384,1.194c-0.603,1.264-0.069,2.78,1.194,3.384c5.759,2.756,9.479,8.652,9.479,15.026
		c0,9.183-7.472,16.655-16.655,16.655c-9.18,0-16.649-7.472-16.654-16.655c0-6.871,4.134-12.943,10.535-15.477
		c1.302-0.517,1.94-1.99,1.424-3.295c-0.515-1.304-1.991-1.945-3.295-1.425C16.706,32.607,11.312,40.536,11.312,49.5
		c0.002,11.122,8.405,20.307,19.192,21.569V83.21h-9.178c-1.405,0-2.541,1.136-2.541,2.537c0,1.4,1.136,2.538,2.541,2.538h9.178
		v9.176c0,1.4,1.134,2.539,2.539,2.539c1.4,0,2.536-1.139,2.536-2.539v-9.176h9.18c1.403,0,2.537-1.138,2.537-2.538
		c0-1.401-1.134-2.537-2.537-2.537h-9.18V71.069C46.37,69.808,54.773,60.624,54.773,49.5C54.771,41.184,49.919,33.487,42.408,29.895
		z"/>
</g>
</svg>
