<?xml version="1.0" encoding="utf-8"?>
<!-- Generator: Adobe Illustrator 16.0.0, SVG Export Plug-In . SVG Version: 6.00 Build 0)  -->
<!DOCTYPE svg PUBLIC "-//W3C//DTD SVG 1.1 Tiny//EN" "http://www.w3.org/Graphics/SVG/1.1/DTD/svg11-tiny.dtd">
<svg version="1.1" baseProfile="tiny" id="Layer_1" xmlns="http://www.w3.org/2000/svg" xmlns:xlink="http://www.w3.org/1999/xlink"
	 x="0px" y="0px" width="100px" height="100px" viewBox="0 0 100 100" xml:space="preserve">
<g>
	<path d="M50,97.5c-0.251,0-0.502-0.065-0.727-0.195L9.396,74.282c-0.449-0.26-0.727-0.739-0.727-1.26V26.977
		c0-0.52,0.278-1,0.727-1.259L49.273,2.695c0.45-0.26,1.003-0.26,1.454,0l39.878,23.023c0.449,0.259,0.727,0.739,0.727,1.259v46.045
		c0,0.521-0.277,1-0.727,1.26L50.727,97.305C50.502,97.435,50.251,97.5,50,97.5z M11.577,72.184L50,94.366l38.423-22.183V27.817
		L50,5.633L11.577,27.817V72.184z"/>
</g>
<g transform="translate(0,-1004.3622)">
	<path fill="none" stroke="#000000" stroke-width="2" stroke-linecap="round" stroke-linejoin="round" d="M71.652,1059.384h4.349
		l-4.349-10.87l-13.044-5.435l-13.044,5.435l-4.348,10.87h4.348l3.262-7.609l9.782-4.348l9.783,4.348L71.652,1059.384z"/>
	<path fill="none" stroke="#000000" stroke-width="2" stroke-linecap="round" stroke-linejoin="round" d="M72.74,1059.399v18.463
		H44.478v-18.463"/>
	<path fill="none" stroke="#000000" stroke-width="2" stroke-linecap="round" stroke-linejoin="round" d="M65.131,1077.862v-13.043
		H52.087v13.043H65.131z"/>
	<path fill="none" stroke="#000000" stroke-width="2" stroke-linecap="round" stroke-linejoin="round" d="M65.12,1064.829
		l-13.022,13.023"/>
	<path fill="none" stroke="#000000" stroke-width="2" stroke-linecap="round" stroke-linejoin="round" d="M52.098,1064.829
		l13.022,13.023"/>
	<path fill="none" stroke="#000000" stroke-width="2" stroke-linecap="round" stroke-linejoin="round" d="M49.913,1046.333v-9.78
		c0-2.43-1.583-4.487-3.303-6.205c-1.146-1.146-2.771-1.801-4.348-2.173c-1.764-0.417-3.672-0.417-5.435,0
		c-1.577,0.372-3.202,1.027-4.349,2.173c-1.719,1.718-3.22,3.775-3.22,6.205v38.034"/>
	<path fill="none" stroke="#000000" stroke-width="2" stroke-linecap="round" stroke-linejoin="round" d="M44.462,1074.602H29.257
		l-3.258,3.26h18.463"/>
	
		<circle fill="none" stroke="#000000" stroke-width="2" stroke-linecap="round" stroke-linejoin="round" cx="58.608" cy="1055.036" r="2.174"/>
	<path fill="none" stroke="#000000" stroke-width="2" stroke-linecap="round" stroke-linejoin="round" d="M49.913,1037.644H29.26"/>
</g>
</svg>
