<?xml version="1.0" encoding="utf-8"?>
<!-- Generator: Adobe Illustrator 16.0.0, SVG Export Plug-In . SVG Version: 6.00 Build 0)  -->
<!DOCTYPE svg PUBLIC "-//W3C//DTD SVG 1.1//EN" "http://www.w3.org/Graphics/SVG/1.1/DTD/svg11.dtd">
<svg version="1.1" id="Layer_1" xmlns="http://www.w3.org/2000/svg" xmlns:xlink="http://www.w3.org/1999/xlink" x="0px" y="0px"
	 width="100px" height="100px" viewBox="0 0 100 100" enable-background="new 0 0 100 100" xml:space="preserve">
<g>
	<path d="M81.199,93.573l-1.26-0.955c-1.479-0.989-8.256-6.517-14.996-13.277c-0.128-0.13-0.299-0.212-0.479-0.234
		c-3.769-0.465-7.351-1.872-10.357-4.076c-0.256-0.188-0.615-0.208-0.887-0.054c-2.712,1.527-5.713,2.303-8.92,2.303
		c-5.094,0-9.933-2.1-13.273-5.76c-0.243-0.268-0.654-0.343-0.978-0.177c-2.588,1.331-5.637,2.689-8.632,2.689
		c-4.794,0-7.747-0.84-11.567-5.615c-0.091-0.115-0.132-0.24-0.156-0.348C0.753,65.272,0,59.537,0,53.897
		c0-2.071,0.436-4.19,1.259-6.124c0.087-0.208,0.087-0.436,0-0.644C0.436,45.197,0,43.08,0,41.005
		c0-6.992,4.691-13.226,11.675-15.513c0.255-0.083,0.453-0.286,0.529-0.543c2.099-7.038,9.012-11.952,16.812-11.952
		c0.729,0,1.468,0.045,2.195,0.131c0.364-0.002,0.573-0.103,0.729-0.293c3.3-4.013,8.472-6.408,13.838-6.408
		c4.675,0,9.057,1.708,12.341,4.809c0.213,0.203,0.532,0.274,0.816,0.183c2.665-0.876,5.459-1.319,8.308-1.319
		c11.831,0,21.937,7.537,24.574,18.326c0.052,0.21,0.18,0.387,0.36,0.501C97.075,31.98,100,37.104,100,42.629
		c0,3.896-1.482,7.682-4.175,10.66c-0.184,0.205-0.253,0.485-0.184,0.75c0.33,1.276,0.496,2.593,0.496,3.913
		c0,5.923-3.414,11.416-8.912,14.33c-0.139,0.076-0.256,0.19-0.332,0.33c-1.271,2.304-3.328,4.2-5.789,5.339
		c-0.302,0.139-0.486,0.442-0.473,0.772L81.199,93.573z M53.624,73.781c0.409,0,0.8,0.126,1.127,0.368
		c2.859,2.094,6.265,3.433,9.848,3.873c0.418,0.052,0.816,0.244,1.118,0.545c6.107,6.128,12.215,11.213,14.306,12.768l-0.48-12.57
		c-0.03-0.772,0.403-1.481,1.105-1.807c2.251-1.042,4.132-2.773,5.292-4.876c0.179-0.324,0.446-0.588,0.774-0.765
		c5.141-2.727,8.332-7.849,8.332-13.369c0-1.228-0.156-2.451-0.46-3.639c-0.163-0.619-0.002-1.276,0.429-1.755
		c2.512-2.779,3.896-6.305,3.896-9.928c0-5.146-2.733-9.923-7.309-12.777c-0.427-0.267-0.725-0.682-0.846-1.168
		c-2.517-10.301-12.185-17.494-23.513-17.494c-2.731,0-5.412,0.425-7.967,1.265c-0.66,0.217-1.405,0.049-1.908-0.427
		c-3.079-2.908-7.196-4.51-11.592-4.51c-5.042,0-9.9,2.247-12.992,6.011c-0.413,0.501-1.05,0.764-1.703,0.683
		c-0.684-0.082-1.38-0.123-2.065-0.123c-7.321,0-13.804,4.594-15.767,11.172c-0.177,0.599-0.639,1.073-1.234,1.271
		C5.48,28.667,1.091,34.483,1.091,41.003c0,1.93,0.404,3.898,1.171,5.698c0.202,0.474,0.203,1.021,0,1.497
		C1.496,50,1.091,51.971,1.091,53.897c0,5.5,0.7,10.649,9.161,13.198c0.388,0.114,0.464,0.502,0.495,0.669
		c3.521,4.425,6.143,5.175,10.671,5.175c2.762,0,5.66-1.296,8.132-2.568c0.748-0.389,1.725-0.206,2.286,0.416
		c3.132,3.43,7.677,5.4,12.466,5.4c3.018,0,5.839-0.729,8.387-2.16C52.974,73.866,53.297,73.781,53.624,73.781z M78.012,87.269
		l-1.078-1.291c-1.268-1.521-3.13-3.112-4.929-4.651c-1.055-0.904-2.054-1.758-2.936-2.596l-0.308-0.292
		c-0.674-0.642-1.425-1.355-2.294-2.191l-0.279-0.271l-0.395-0.027c-2.818-0.209-5.599-1.06-8.041-2.461
		c-0.028-0.018-2.204-1.314-3.155-2.306c-2.699,1.773-7.185,2.823-10.163,2.823c-5.201,0-9.542-1.913-11.911-5.249
		c-0.063-0.072-0.293-0.273-0.562-0.516c-0.574-0.513-0.94-0.854-1.171-1.102l-2.06,1.035c-0.724,0.361-1.318,0.694-1.851,0.993
		c-1.4,0.783-2.412,1.351-4.163,1.588c-4.931,0.671-9.189-1.477-10.979-5.481l-0.193-0.133c-6.516-2.109-7.998-4.107-8.282-11.223
		c-0.078-1.944,0.434-3.945,1.523-5.946l0.285-0.522l-0.283-0.521C3.78,45.077,3.27,43.085,3.27,41.003
		c0-6.12,4.479-11.386,10.893-12.802l0.713-0.158l0.128-0.722c1.113-6.403,7.006-11.051,14.01-11.051
		c1.137,0,2.275,0.128,3.381,0.378l0.745,0.17l0.415-0.647C36.1,12.181,40.781,9.7,45.773,9.7c3.201,0,6.219,0.967,8.731,2.796
		c0.026,0.021,2.283,1.724,2.848,2.683c2.734-1.041,6.899-1.809,9.885-1.809c10.757,0,19.859,7.146,21.641,16.991l0.097,0.527
		l0.474,0.248c4.485,2.332,7.271,6.734,7.271,11.492c0,2.568-1.078,5.222-3.121,7.673l-1.953,2.017
		c0.049,0.142,0.098,0.313,0.158,0.529c0.032,0.12,0.06,0.222,0.078,0.273l0.111,0.278c0.579,1.457,0.871,2.988,0.871,4.551
		c-0.001,5.057-3.045,9.586-7.942,11.82l-0.378,0.174l-0.169,0.381c-1.215,2.766-3.821,4.787-6.97,5.403l-0.162,0.054L78.012,87.269
		z M55.243,70.304c0.361,0.456,2.489,1.913,3.055,2.239c2.3,1.318,4.92,2.12,7.578,2.317l0.785,0.056l0.568,0.546
		c0.862,0.835,1.613,1.547,2.284,2.186l0.309,0.293c0.861,0.818,1.849,1.664,2.895,2.558c1.385,1.184,2.805,2.4,3.99,3.609
		L76.1,75.011l1.034-0.336c2.861-0.566,5.172-2.35,6.246-4.79l0.334-0.761l0.757-0.347c4.505-2.057,7.303-6.205,7.306-10.829
		c0-1.425-0.268-2.819-0.795-4.148l-0.11-0.275c-0.025-0.064-0.069-0.211-0.118-0.388c-0.046-0.17-0.144-0.524-0.192-0.615
		l-0.382-0.38l0.428-0.319l2.184-2.251c1.85-2.223,2.842-4.635,2.842-6.944c0-4.348-2.561-8.381-6.684-10.524l-0.949-0.495
		l-0.192-1.054C86.118,21.229,77.468,14.46,67.24,14.46c-2.995,0-7.219,0.803-9.825,1.866l-0.336,0.138l-0.676-0.675l-0.008-0.121
		c-0.291-0.439-2.062-1.945-2.532-2.29c-2.323-1.692-5.121-2.587-8.087-2.587c-4.623,0-8.953,2.285-11.302,5.966l-0.827,1.294
		l-1.495-0.339c-1.026-0.232-2.081-0.352-3.138-0.352c-6.472,0-11.912,4.268-12.936,10.147l-0.252,1.442l-1.428,0.315
		C8.49,30.571,4.363,35.397,4.363,41.002c0,1.897,0.467,3.715,1.386,5.402l0.566,1.043l-0.568,1.046
		c-0.995,1.826-1.462,3.636-1.392,5.38c0.278,6.964,1.781,8.367,7.601,10.258l0.453,0.258l0.298,0.367
		c1.573,3.602,5.394,5.517,9.867,4.917c1.545-0.209,2.434-0.708,3.775-1.46c0.546-0.306,1.154-0.646,1.895-1.017l3.271-1.644v0.755
		c0.197,0.245,0.848,0.826,1.176,1.12c0.478,0.427,0.638,0.573,0.725,0.694c2.161,3.044,6.178,4.79,11.021,4.79
		c2.903,0,7.532-1.112,9.946-2.91l0.796-0.594L55.243,70.304z"/>
	<g>
		<path d="M62.171,34.661H40.107l0.417-3.34l0.355-0.103c5.154-1.486,7.595-3.417,8.607-4.463c-0.938-0.549-1.544-1.562-1.544-2.686
			c0-1.723,1.4-3.123,3.123-3.123s3.125,1.4,3.125,3.123c0,1.087-0.561,2.065-1.451,2.627c0.956,0.997,3.41,3.008,8.659,4.521
			l0.355,0.104L62.171,34.661z M41.378,33.538h19.523l-0.167-1.347c-6.435-1.926-8.777-4.579-9.348-5.357l-0.242-0.329l-0.278,0.37
			c-0.58,0.774-2.946,3.409-9.318,5.317L41.378,33.538z M51.068,22.067c-1.104,0-2.002,0.897-2.002,2
			c0,0.903,0.614,1.695,1.493,1.927l0.555,0.146l0.555-0.176c0.837-0.266,1.401-1.029,1.401-1.898
			C53.068,22.965,52.172,22.067,51.068,22.067z"/>
		<path d="M63.051,61.679H38.792v-4.93h24.26L63.051,61.679L63.051,61.679z M39.915,60.557H61.93v-2.686H39.915V60.557z"/>
		<path d="M40.524,57.61c-3.79-8.509-2.72-14.558-1.154-18.135c1.709-3.906,4.311-5.758,4.421-5.836l0.645,0.92
			c-0.403,0.283-9.774,7.128-2.886,22.594L40.524,57.61z"/>
		<path d="M44.247,57.546c-6.215-16.277,1.641-23.663,1.978-23.971l0.756,0.831c-0.019,0.018-1.932,1.801-3.088,5.467
			c-1.072,3.395-1.699,9.146,1.403,17.273L44.247,57.546z"/>
		<path d="M47.237,57.512c-3.971-12.795,0.596-23.275,0.792-23.715l1.025,0.458c-0.047,0.104-4.587,10.549-0.745,22.924
			L47.237,57.512z"/>
		<rect x="50.433" y="34.026" width="1.122" height="23.503"/>
		<path d="M62.015,57.574l-1.025-0.457c6.903-15.501-2.946-22.485-3.049-22.554l0.635-0.926c0.111,0.076,2.756,1.919,4.507,5.815
			C64.687,43.022,65.805,49.064,62.015,57.574z"/>
		<path d="M58.548,57.51l-1.049-0.4c3.1-8.119,2.311-13.846,1.101-17.222c-1.306-3.647-3.367-5.414-3.39-5.431l0.721-0.861
			C56.294,33.897,64.77,41.215,58.548,57.51z"/>
		<path d="M55.265,57.588l-1.073-0.333c3.839-12.371-1.02-22.957-1.068-23.062l1.014-0.479
			C54.188,33.823,59.237,44.786,55.265,57.588z"/>
		<rect x="38.693" y="49.079" width="25.043" height="1.122"/>
	</g>
	<path d="M51.509,43.382c0.049,0,0.098,0.004,0.146,0.011c0.54,0.061,0.973,0.483,1.041,1.028l0.984,0.423l-0.932,0.515l0.026,0.628
		c0,0.002,0.003,0.005,0.003,0.009c0.068,1.554-1.131,2.875-2.685,2.948c-0.821,0.04-2.814,0.138-2.821,0.139
		c0,0,3.243-5.147,3.248-5.156c0.001-0.005,0.004-0.007,0.007-0.01c0.082-0.126,0.187-0.233,0.308-0.319
		c0.13-0.088,0.271-0.153,0.429-0.187c0.064-0.015,0.129-0.024,0.198-0.028C51.479,43.384,51.492,43.382,51.509,43.382
		 M51.509,42.711h-0.016l-0.058,0.001c-0.123,0.008-0.226,0.021-0.324,0.046c-0.22,0.047-0.442,0.144-0.651,0.284
		c-0.185,0.13-0.335,0.279-0.455,0.451l-0.088,0.09l-0.02,0.073c-0.389,0.615-3.195,5.069-3.195,5.069l-0.772,1.226l1.435-0.203
		c0,0,0,0,0.002,0c0.045,0,0.672-0.03,1.342-0.063l1.415-0.069c1.918-0.093,3.409-1.73,3.322-3.65l-0.002-0.044l-0.002-0.01
		l-0.009-0.168l0.571-0.313l1.197-0.663l-1.259-0.541l-0.678-0.292c-0.236-0.652-0.821-1.129-1.536-1.211
		C51.669,42.716,51.59,42.711,51.509,42.711L51.509,42.711z"/>
	<path d="M45.009,52.028c-0.071,0-0.143-0.021-0.206-0.066c-0.16-0.113-0.198-0.336-0.085-0.495l1.59-2.246
		c0.114-0.16,0.337-0.197,0.497-0.084s0.197,0.336,0.084,0.497L45.3,51.878C45.23,51.977,45.122,52.028,45.009,52.028z"/>
</g>
</svg>
