<?xml version="1.0" encoding="utf-8"?>
<!-- Generator: Adobe Illustrator 16.0.0, SVG Export Plug-In . SVG Version: 6.00 Build 0)  -->
<!DOCTYPE svg PUBLIC "-//W3C//DTD SVG 1.1//EN" "http://www.w3.org/Graphics/SVG/1.1/DTD/svg11.dtd">
<svg version="1.1" id="Layer_1" xmlns="http://www.w3.org/2000/svg" xmlns:xlink="http://www.w3.org/1999/xlink" x="0px" y="0px"
	 width="100px" height="100px" viewBox="0 0 100 100" enable-background="new 0 0 100 100" xml:space="preserve">
<path fill="#010101" d="M66.162,59.341c-3.557,0-6.043,2.881-6.043,6.117c0,2.876,4.312,2.876,4.312,0
	c0-0.972,0.769-1.765,1.732-1.803c0.967,0.037,1.733,0.829,1.733,1.803v32.334c0,2.874,4.313,2.874,4.313,0V65.458
	C72.211,62.222,69.696,59.341,66.162,59.341z M48.117,15.273c4.219,0,7.638-3.419,7.638-7.637C55.755,3.419,52.336,0,48.117,0
	c-4.217,0-7.635,3.419-7.635,7.637C40.482,11.854,43.9,15.273,48.117,15.273z M57.318,31.176c0-0.784,1.058-0.781,1.165-0.041
	c0.132,0.763,3.879,24.202,3.879,24.202c0.244,1.465,2.078,2.566,3.616,2.213c1.529-0.35,2.69-1.842,2.442-3.469l-4.198-28.892
	c-0.526-3.387-3.049-7.538-8.278-7.538H40.297c-5.226,0-7.751,4.151-8.275,7.538l-4.199,28.893c-0.246,1.627,0.913,3.118,2.441,3.47
	c1.541,0.353,3.373-0.749,3.619-2.214c0,0,3.745-23.439,3.875-24.201c0.146-0.739,1.181-0.713,1.181,0.021v14.376l-1.293,49.843
	c-0.291,6.067,8.065,6.042,8.377,0.418c0,0,1.345-36.858,1.379-37.213c0.057-1.089,1.494-1.104,1.543,0l1.492,37.337
	c0.327,5.54,8.724,5.486,8.376-0.443l-1.496-50.083L57.318,31.176z"/>
</svg>
