<?xml version="1.0" encoding="utf-8"?>
<!-- Generator: Adobe Illustrator 16.0.0, SVG Export Plug-In . SVG Version: 6.00 Build 0)  -->
<!DOCTYPE svg PUBLIC "-//W3C//DTD SVG 1.1 Tiny//EN" "http://www.w3.org/Graphics/SVG/1.1/DTD/svg11-tiny.dtd">
<svg version="1.1" baseProfile="tiny" id="Layer_1" xmlns="http://www.w3.org/2000/svg" xmlns:xlink="http://www.w3.org/1999/xlink"
	 x="0px" y="0px" width="100px" height="100px" viewBox="0 0 100 100" xml:space="preserve">
<g>
	<path d="M50,97.5c-0.251,0-0.502-0.065-0.727-0.195L9.396,74.282c-0.449-0.26-0.727-0.739-0.727-1.26V26.977
		c0-0.52,0.278-1,0.727-1.259L49.273,2.695c0.45-0.26,1.003-0.26,1.454,0l39.878,23.023c0.449,0.259,0.727,0.739,0.727,1.259v46.045
		c0,0.521-0.277,1-0.727,1.26L50.727,97.305C50.502,97.435,50.251,97.5,50,97.5z M11.577,72.184L50,94.366l38.423-22.183V27.817
		L50,5.633L11.577,27.817V72.184z"/>
</g>
<g>
	<g>
		<rect x="42.6" y="59.328" width="4.904" height="7.54"/>
		<rect x="37.408" y="52.175" width="4.803" height="4.802"/>
		<rect x="47.504" y="52.175" width="4.803" height="4.802"/>
		<path d="M82.45,60.395l-4.157-13.511h1.273c0.129-0.177,0.169-0.407,0.103-0.618L75.71,33.599
			c-0.09-0.289-0.358-0.486-0.661-0.486c-0.305,0-0.57,0.197-0.661,0.486l-3.827,12.248c1.081,0.399,1.891,1.358,2.075,2.525
			c2.681,0.324,4.762,2.614,4.762,5.378c0,2.986-2.43,5.418-5.416,5.418c-0.465,0-0.922-0.059-1.365-0.176
			c-0.862,0.697-1.875,1.158-2.957,1.363l-0.013,0.039c-0.103,0.341-0.04,0.71,0.171,0.994h6.114v5.496h2.235v-5.496h6.115
			C82.492,61.104,82.555,60.735,82.45,60.395z"/>
		<path d="M71.981,58.052c2.374,0,4.3-1.927,4.3-4.302s-1.926-4.299-4.3-4.299c-0.178,0-0.352,0.013-0.522,0.033
			c0.057-0.193,0.098-0.395,0.098-0.607c0-1.169-0.945-2.114-2.114-2.114c-0.608,0-1.151,0.26-1.537,0.672c0-0.007,0-0.012,0-0.019
			c0-3.097-2.51-5.606-5.607-5.606c-1.081,0-2.087,0.31-2.943,0.84c-0.785-1.008-2.011-1.661-3.39-1.661
			c-2.283,0-4.147,1.782-4.287,4.031l-0.202-0.107l-6.123-3.218l-5.943,2.971v-1.651h-3.557v3.43l-6.332,3.166l1.053,2.105
			l2.333-1.169v2.272H18.39v14.049h2.378l-0.025-3.08v-8.617h12.164v11.697h2.353v-2.354v-1.599V49.371l10.066-5.033l9.342,4.914
			v15.263H54.66v2.354h2.362v-6.88c0.448-0.075,0.883-0.194,1.295-0.361l3.537,7.261h2.485l-2.397-4.922l3.159-2.767
			c0.419,0.098,0.854,0.158,1.304,0.158c1.542,0,2.936-0.622,3.949-1.628C70.855,57.937,71.405,58.052,71.981,58.052z
			 M60.927,59.884l-0.706-1.45c0.562-0.512,1.031-1.121,1.381-1.802c0.347,0.578,0.795,1.09,1.318,1.507L60.927,59.884z"/>
	</g>
	
		<line fill="none" stroke="#000000" stroke-width="2.137" stroke-linecap="round" stroke-linejoin="round" x1="17.5" y1="66.888" x2="76.624" y2="66.888"/>
</g>
</svg>
