<?xml version="1.0" encoding="utf-8"?>
<!-- Generator: Adobe Illustrator 16.0.0, SVG Export Plug-In . SVG Version: 6.00 Build 0)  -->
<!DOCTYPE svg PUBLIC "-//W3C//DTD SVG 1.1//EN" "http://www.w3.org/Graphics/SVG/1.1/DTD/svg11.dtd">
<svg version="1.1" id="Layer_1" xmlns="http://www.w3.org/2000/svg" xmlns:xlink="http://www.w3.org/1999/xlink" x="0px" y="0px"
	 width="100px" height="100px" viewBox="0 0 100 100" enable-background="new 0 0 100 100" xml:space="preserve">
<g>
	<path fill="#010101" d="M15.294,34.706c0.067-17.25,12.633-31.8,29.648-34.329c18.166-2.699,35.351,9.391,39.076,27.495
		c2.959,14.381-3.847,29.523-16.544,36.799c-2.295,1.315-5.013,0.906-6.649-1.001c-1.628-1.899-1.684-4.713-0.071-6.64
		c0.428-0.507,0.986-0.934,1.551-1.294c8.571-5.443,12.617-13.234,11.921-23.351C73.498,21.8,64.8,12.476,54.235,10.728
		C41.182,8.567,29.154,16.626,26.18,29.527c-2.316,10.05,2.287,20.616,11.388,26.14c2.473,1.498,3.432,4.007,2.479,6.474
		c-1.168,3.021-4.652,4.214-7.529,2.537c-5.719-3.332-10.124-7.943-13.215-13.791C16.629,45.832,15.281,40.433,15.294,34.706z"/>
	<path fill="#010101" d="M55.19,75.61c0,2.246,0,4.339,0,6.578c0.282-0.237,0.486-0.392,0.668-0.571
		c1.184-1.174,2.345-2.372,3.546-3.53c2.074-2.006,5.233-1.997,7.253-0.003c2.014,1.987,2.106,5.193,0.082,7.25
		c-4.354,4.424-8.746,8.809-13.166,13.167c-2.111,2.08-5.191,1.975-7.387-0.184c-2.554-2.514-5.071-5.062-7.604-7.594
		c-1.681-1.683-3.366-3.36-5.042-5.046c-2.261-2.275-2.358-5.499-0.236-7.594c2.116-2.086,5.274-1.982,7.521,0.258
		c1.265,1.262,2.518,2.535,3.907,3.936c0-2.312,0-4.438,0-6.664c-0.915,0-1.803,0.008-2.691-0.001
		c-3.03-0.033-5.313-2.218-5.349-5.106c-0.037-2.902,2.273-5.161,5.345-5.211c0.89-0.017,1.78-0.004,2.772-0.004
		c0-0.426,0-0.754,0-1.084c0-4.17-0.019-8.339,0.007-12.507c0.015-2.605,1.833-4.682,4.372-5.086
		c2.491-0.396,4.893,1.027,5.668,3.426c0.205,0.634,0.291,1.331,0.295,2c0.028,4.045,0.015,8.09,0.015,12.136
		c0,0.332,0,0.664,0,1.144c1.194,0,2.303-0.072,3.396,0.015c2.596,0.205,4.531,2.244,4.71,4.873
		c0.166,2.423-1.584,4.742-4.036,5.284c-0.566,0.122-1.165,0.101-1.751,0.115C56.75,75.625,56.015,75.61,55.19,75.61z"/>
</g>
</svg>
