<?xml version="1.0" encoding="utf-8"?>
<!-- Generator: Adobe Illustrator 16.0.0, SVG Export Plug-In . SVG Version: 6.00 Build 0)  -->
<!DOCTYPE svg PUBLIC "-//W3C//DTD SVG 1.1//EN" "http://www.w3.org/Graphics/SVG/1.1/DTD/svg11.dtd">
<svg version="1.1" id="Layer_1" xmlns="http://www.w3.org/2000/svg" xmlns:xlink="http://www.w3.org/1999/xlink" x="0px" y="0px"
	 width="100px" height="100px" viewBox="0 0 100 100" enable-background="new 0 0 100 100" xml:space="preserve">
<g>
	<path d="M68.557,58.918l-3.634-19.647c-0.843-4.553-5.298-8.277-9.9-8.277H44.978c-4.603,0-9.059,3.724-9.9,8.277l-3.634,19.647
		c-0.78,4.214,1.805,7.714,5.847,8.21l4.32,23.745c0.664,3.646,4.218,6.627,7.901,6.627h0.978c3.684,0,7.238-2.98,7.9-6.627
		l4.32-23.745C66.752,66.632,69.336,63.132,68.557,58.918z"/>
	<path d="M61.725,16.31c0-1.083-1.811-2.043-4.604-2.655V4.592c0-1.156-3.186-2.092-7.114-2.092c-3.93,0-7.116,0.935-7.116,2.092
		v9.062c-2.793,0.612-4.604,1.572-4.604,2.655c0,1.079,1.788,2.035,4.554,2.647c-0.281,0.795-0.442,1.646-0.442,2.537
		c0,4.197,3.403,7.6,7.6,7.6c4.196,0,7.601-3.403,7.601-7.6c0-0.89-0.162-1.74-0.442-2.534
		C59.929,18.348,61.725,17.391,61.725,16.31z"/>
</g>
</svg>
