<?xml version="1.0" encoding="utf-8"?>
<!-- Generator: Adobe Illustrator 16.0.0, SVG Export Plug-In . SVG Version: 6.00 Build 0)  -->
<!DOCTYPE svg PUBLIC "-//W3C//DTD SVG 1.1 Tiny//EN" "http://www.w3.org/Graphics/SVG/1.1/DTD/svg11-tiny.dtd">
<svg version="1.1" baseProfile="tiny" id="Layer_1" xmlns="http://www.w3.org/2000/svg" xmlns:xlink="http://www.w3.org/1999/xlink"
	 x="0px" y="0px" width="100px" height="100px" viewBox="0 0 100 100" xml:space="preserve">
<g>
	<g>
		<path d="M33.528,29.06c-0.52,0-0.941,0.421-0.941,0.941v3.294c0,0.519,0.421,0.941,0.941,0.941c0.521,0,0.942-0.421,0.942-0.941
			v-3.294C34.47,29.48,34.049,29.06,33.528,29.06z"/>
		<path d="M36.823,34.236c0.52,0,0.941-0.421,0.941-0.942V30c0-0.52-0.421-0.941-0.941-0.941c-0.52,0-0.941,0.421-0.941,0.941v3.294
			C35.882,33.814,36.304,34.236,36.823,34.236z"/>
		<path d="M40.117,29.06c-0.52,0-0.941,0.421-0.941,0.941v3.294c0,0.519,0.421,0.941,0.941,0.941c0.52,0,0.941-0.421,0.941-0.941
			v-3.294C41.058,29.48,40.636,29.06,40.117,29.06z"/>
		<path d="M43.411,29.06c-0.519,0-0.941,0.421-0.941,0.941v3.294c0,0.519,0.421,0.941,0.941,0.941c0.521,0,0.941-0.421,0.941-0.941
			v-3.294C44.352,29.48,43.931,29.06,43.411,29.06z"/>
		<path d="M33.528,35.647c-0.52,0-0.941,0.42-0.941,0.941v3.294c0,0.521,0.421,0.942,0.941,0.942c0.521,0,0.942-0.421,0.942-0.942
			v-3.294C34.47,36.068,34.049,35.647,33.528,35.647z"/>
		<path d="M35.882,39.882c0,0.521,0.421,0.942,0.941,0.942c0.521,0,0.941-0.421,0.941-0.942v-3.294c0-0.521-0.421-0.942-0.941-0.942
			c-0.52,0-0.941,0.421-0.941,0.942V39.882z"/>
		<path d="M40.117,35.647c-0.52,0-0.941,0.42-0.941,0.941v3.294c0,0.521,0.421,0.942,0.941,0.942c0.52,0,0.941-0.421,0.941-0.942
			v-3.294C41.058,36.068,40.636,35.647,40.117,35.647z"/>
		<path d="M43.411,40.824c0.52,0,0.941-0.421,0.941-0.942v-3.294c0-0.521-0.42-0.942-0.941-0.942c-0.52,0-0.941,0.421-0.941,0.942
			v3.294C42.47,40.403,42.892,40.824,43.411,40.824z"/>
		<path d="M33.528,42.235c-0.52,0-0.941,0.421-0.941,0.942v3.294c0,0.52,0.421,0.941,0.941,0.941c0.521,0,0.942-0.42,0.942-0.941
			v-3.294C34.47,42.657,34.049,42.235,33.528,42.235z"/>
		<path d="M35.882,46.471c0,0.52,0.421,0.941,0.941,0.941c0.521,0,0.941-0.422,0.941-0.941v-3.294c0-0.521-0.421-0.942-0.941-0.942
			c-0.52,0-0.941,0.421-0.941,0.942V46.471z"/>
		<path d="M40.117,42.235c-0.52,0-0.941,0.421-0.941,0.942v3.294c0,0.52,0.421,0.941,0.941,0.941c0.52,0,0.941-0.42,0.941-0.941
			v-3.294C41.058,42.657,40.636,42.235,40.117,42.235z"/>
		<path d="M43.411,42.235c-0.519,0-0.941,0.421-0.941,0.942v3.294c0,0.52,0.421,0.941,0.941,0.941c0.521,0,0.941-0.42,0.941-0.941
			v-3.294C44.352,42.657,43.931,42.235,43.411,42.235z"/>
		<path d="M33.528,48.824c-0.52,0-0.941,0.421-0.941,0.941v3.294c0,0.519,0.421,0.94,0.941,0.94c0.521,0,0.942-0.422,0.942-0.94
			v-3.294C34.47,49.245,34.049,48.824,33.528,48.824z"/>
		<path d="M35.882,53.06c0,0.519,0.421,0.94,0.941,0.94c0.521,0,0.941-0.422,0.941-0.94v-3.294c0-0.52-0.421-0.941-0.941-0.941
			c-0.52,0-0.941,0.421-0.941,0.941V53.06z"/>
		<path d="M40.117,48.824c-0.52,0-0.941,0.421-0.941,0.941v3.294c0,0.519,0.421,0.94,0.941,0.94c0.52,0,0.941-0.422,0.941-0.94
			v-3.294C41.058,49.245,40.636,48.824,40.117,48.824z"/>
		<path d="M43.411,48.824c-0.519,0-0.941,0.421-0.941,0.941v3.294c0,0.519,0.421,0.94,0.941,0.94c0.521,0,0.941-0.422,0.941-0.94
			v-3.294C44.352,49.245,43.931,48.824,43.411,48.824z"/>
		<path d="M33.528,55.411c-0.52,0-0.941,0.422-0.941,0.942v3.295c0,0.519,0.421,0.94,0.941,0.94c0.521,0,0.942-0.42,0.942-0.94
			v-3.295C34.47,55.833,34.049,55.411,33.528,55.411z"/>
		<path d="M35.882,59.646c0,0.521,0.421,0.942,0.941,0.942c0.521,0,0.941-0.422,0.941-0.942v-3.293c0-0.521-0.421-0.942-0.941-0.942
			c-0.52,0-0.941,0.421-0.941,0.942V59.646z"/>
		<path d="M40.117,55.411c-0.52,0-0.941,0.422-0.941,0.942v3.295c0,0.519,0.421,0.94,0.941,0.94c0.52,0,0.941-0.42,0.941-0.94
			v-3.295C41.058,55.833,40.636,55.411,40.117,55.411z"/>
		<path d="M43.411,55.411c-0.519,0-0.941,0.422-0.941,0.942v3.295c0,0.519,0.421,0.94,0.941,0.94c0.521,0,0.941-0.42,0.941-0.94
			v-3.295C44.352,55.833,43.931,55.411,43.411,55.411z"/>
		<path d="M33.528,61.999c-0.52,0-0.941,0.422-0.941,0.942v3.294c0,0.521,0.421,0.941,0.941,0.941c0.521,0,0.942-0.421,0.942-0.941
			v-3.294C34.47,62.421,34.049,61.999,33.528,61.999z"/>
		<path d="M35.882,66.235c0,0.519,0.421,0.941,0.941,0.941c0.521,0,0.941-0.421,0.941-0.941v-3.294c0-0.521-0.421-0.942-0.941-0.942
			c-0.52,0-0.941,0.422-0.941,0.942V66.235z"/>
		<path d="M40.117,61.999c-0.52,0-0.941,0.422-0.941,0.942v3.294c0,0.521,0.421,0.941,0.941,0.941c0.52,0,0.941-0.421,0.941-0.941
			v-3.294C41.058,62.421,40.636,61.999,40.117,61.999z"/>
		<path d="M43.411,61.999c-0.519,0-0.941,0.422-0.941,0.942v3.294c0,0.521,0.421,0.941,0.941,0.941c0.521,0,0.941-0.421,0.941-0.941
			v-3.294C44.352,62.421,43.931,61.999,43.411,61.999z"/>
		<path d="M38.47,68.588c-1.427,0-2.588,1.161-2.588,2.588v1.647c0,0.52,0.421,0.942,0.941,0.942c0.521,0,0.941-0.423,0.941-0.942
			v-1.647c0-0.389,0.317-0.705,0.706-0.705c0.39,0,0.706,0.316,0.706,0.705v1.647c0,0.52,0.421,0.942,0.941,0.942
			s0.941-0.423,0.941-0.942v-1.647C41.058,69.749,39.897,68.588,38.47,68.588z"/>
		<path d="M67.411,25.766H55.646c-1.816,0-3.293,1.478-3.293,3.294v6.588h-4.708V29.06c0-1.816-1.477-3.294-3.294-3.294H32.588
			c-1.816,0-3.294,1.478-3.294,3.294v44.233c0,0.521,0.421,0.941,0.941,0.941c0.521,0,0.942-0.421,0.942-0.941V29.06
			c0-0.778,0.633-1.413,1.412-1.413h11.763c0.779,0,1.413,0.634,1.413,1.413v6.588v4.235v0.783v0.001v32.626
			c0,0.521,0.421,0.941,0.941,0.941c0.52,0,0.941-0.421,0.941-0.941V41.078c1.457-1.249,3.436-1.438,4.707-0.457v32.672
			c0,0.521,0.421,0.941,0.941,0.941c0.52,0,0.942-0.421,0.942-0.941V40.195c0,0,0,0,0,0V29.06c0-0.778,0.633-1.413,1.41-1.413
			h11.766c0.778,0,1.412,0.634,1.412,1.413v44.233c0,0.521,0.421,0.941,0.94,0.941c0.521,0,0.942-0.421,0.942-0.941V29.06
			C70.704,27.243,69.227,25.766,67.411,25.766z M47.646,38.825V37.53h4.708v0.953C50.896,37.904,49.17,38.028,47.646,38.825z"/>
		<path d="M56.587,29.06c-0.519,0-0.94,0.421-0.94,0.941v3.294c0,0.519,0.422,0.941,0.94,0.941c0.521,0,0.942-0.421,0.942-0.941
			v-3.294C57.529,29.48,57.107,29.06,56.587,29.06z"/>
		<path d="M59.881,34.236c0.521,0,0.941-0.421,0.941-0.942V30c0-0.52-0.42-0.941-0.941-0.941c-0.52,0-0.94,0.421-0.94,0.941v3.294
			C58.941,33.814,59.361,34.236,59.881,34.236z"/>
		<path d="M63.176,29.06c-0.52,0-0.94,0.421-0.94,0.941v3.294c0,0.519,0.42,0.941,0.94,0.941s0.94-0.421,0.94-0.941v-3.294
			C64.116,29.48,63.694,29.06,63.176,29.06z"/>
		<path d="M66.468,29.06c-0.518,0-0.938,0.421-0.938,0.941v3.294c0,0.519,0.418,0.941,0.938,0.941c0.521,0,0.943-0.421,0.943-0.941
			v-3.294C67.411,29.48,66.989,29.06,66.468,29.06z"/>
		<path d="M56.587,35.647c-0.519,0-0.94,0.42-0.94,0.941v3.294c0,0.521,0.422,0.942,0.94,0.942c0.521,0,0.942-0.421,0.942-0.942
			v-3.294C57.529,36.068,57.107,35.647,56.587,35.647z"/>
		<path d="M58.941,39.882c0,0.521,0.42,0.942,0.94,0.942s0.942-0.421,0.942-0.942v-3.294c0-0.521-0.421-0.942-0.942-0.942
			c-0.52,0-0.94,0.421-0.94,0.942V39.882z"/>
		<path d="M63.176,35.647c-0.52,0-0.94,0.42-0.94,0.941v3.294c0,0.521,0.42,0.942,0.94,0.942s0.94-0.421,0.94-0.942v-3.294
			C64.116,36.068,63.694,35.647,63.176,35.647z"/>
		<path d="M66.468,35.647c-0.518,0-0.938,0.42-0.938,0.941v3.294c0,0.521,0.418,0.942,0.938,0.942c0.521,0,0.943-0.421,0.943-0.942
			v-3.294C67.411,36.068,66.989,35.647,66.468,35.647z"/>
		<path d="M56.587,42.235c-0.519,0-0.94,0.421-0.94,0.942v3.294c0,0.52,0.422,0.941,0.94,0.941c0.521,0,0.942-0.42,0.942-0.941
			v-3.294C57.529,42.657,57.107,42.235,56.587,42.235z"/>
		<path d="M58.941,46.471c0,0.52,0.42,0.941,0.94,0.941s0.942-0.422,0.942-0.941v-3.294c0-0.521-0.421-0.942-0.942-0.942
			c-0.52,0-0.94,0.421-0.94,0.942V46.471z"/>
		<path d="M63.176,42.235c-0.52,0-0.94,0.421-0.94,0.942v3.294c0,0.52,0.42,0.941,0.94,0.941s0.94-0.42,0.94-0.941v-3.294
			C64.116,42.657,63.694,42.235,63.176,42.235z"/>
		<path d="M66.468,42.235c-0.518,0-0.938,0.421-0.938,0.942v3.294c0,0.52,0.418,0.941,0.938,0.941c0.521,0,0.943-0.42,0.943-0.941
			v-3.294C67.411,42.657,66.989,42.235,66.468,42.235z"/>
		<path d="M56.587,48.824c-0.519,0-0.94,0.421-0.94,0.941v3.294c0,0.519,0.422,0.94,0.94,0.94c0.521,0,0.942-0.422,0.942-0.94
			v-3.294C57.529,49.245,57.107,48.824,56.587,48.824z"/>
		<path d="M58.941,53.06c0,0.519,0.42,0.94,0.94,0.94s0.942-0.422,0.942-0.94v-3.294c0-0.52-0.421-0.941-0.942-0.941
			c-0.52,0-0.94,0.421-0.94,0.941V53.06z"/>
		<path d="M63.176,48.824c-0.52,0-0.94,0.421-0.94,0.941v3.294c0,0.519,0.42,0.94,0.94,0.94s0.94-0.422,0.94-0.94v-3.294
			C64.116,49.245,63.694,48.824,63.176,48.824z"/>
		<path d="M66.468,48.824c-0.518,0-0.938,0.421-0.938,0.941v3.294c0,0.519,0.418,0.94,0.938,0.94c0.521,0,0.943-0.422,0.943-0.94
			v-3.294C67.411,49.245,66.989,48.824,66.468,48.824z"/>
		<path d="M56.587,55.411c-0.519,0-0.94,0.422-0.94,0.942v3.295c0,0.519,0.422,0.94,0.94,0.94c0.521,0,0.942-0.42,0.942-0.94v-3.295
			C57.529,55.833,57.107,55.411,56.587,55.411z"/>
		<path d="M58.941,59.646c0,0.521,0.42,0.942,0.94,0.942s0.942-0.422,0.942-0.942v-3.293c0-0.521-0.421-0.942-0.942-0.942
			c-0.52,0-0.94,0.421-0.94,0.942V59.646z"/>
		<path d="M63.176,55.411c-0.52,0-0.94,0.422-0.94,0.942v3.295c0,0.519,0.42,0.94,0.94,0.94s0.94-0.42,0.94-0.94v-3.295
			C64.116,55.833,63.694,55.411,63.176,55.411z"/>
		<path d="M66.468,55.411c-0.518,0-0.938,0.422-0.938,0.942v3.295c0,0.519,0.418,0.94,0.938,0.94c0.521,0,0.943-0.42,0.943-0.94
			v-3.295C67.411,55.833,66.989,55.411,66.468,55.411z"/>
		<path d="M56.587,61.999c-0.519,0-0.94,0.422-0.94,0.942v3.294c0,0.521,0.422,0.941,0.94,0.941c0.521,0,0.942-0.421,0.942-0.941
			v-3.294C57.529,62.421,57.107,61.999,56.587,61.999z"/>
		<path d="M58.941,66.235c0,0.519,0.42,0.941,0.94,0.941s0.942-0.421,0.942-0.941v-3.294c0-0.521-0.421-0.942-0.942-0.942
			c-0.52,0-0.94,0.422-0.94,0.942V66.235z"/>
		<path d="M63.176,61.999c-0.52,0-0.94,0.422-0.94,0.942v3.294c0,0.521,0.42,0.941,0.94,0.941s0.94-0.421,0.94-0.941v-3.294
			C64.116,62.421,63.694,61.999,63.176,61.999z"/>
		<path d="M66.468,61.999c-0.518,0-0.938,0.422-0.938,0.942v3.294c0,0.521,0.418,0.941,0.938,0.941c0.521,0,0.943-0.421,0.943-0.941
			v-3.294C67.411,62.421,66.989,61.999,66.468,61.999z"/>
		<path d="M61.528,68.588c-1.427,0-2.587,1.161-2.587,2.588v1.647c0,0.52,0.42,0.942,0.94,0.942s0.942-0.423,0.942-0.942v-1.647
			c0-0.389,0.316-0.705,0.705-0.705c0.39,0,0.707,0.316,0.707,0.705v1.647c0,0.52,0.42,0.942,0.94,0.942
			c0.52,0,0.942-0.423,0.942-0.942v-1.647C64.116,69.749,62.956,68.588,61.528,68.588z"/>
	</g>
	<path d="M50,97.5c-0.251,0-0.502-0.065-0.727-0.195L9.396,74.282c-0.449-0.26-0.727-0.739-0.727-1.26V26.977
		c0-0.52,0.278-1,0.727-1.259L49.273,2.695c0.45-0.26,1.003-0.26,1.454,0l39.878,23.023c0.449,0.259,0.727,0.739,0.727,1.259v46.045
		c0,0.521-0.277,1-0.727,1.26L50.727,97.305C50.502,97.435,50.251,97.5,50,97.5z M11.577,72.184L50,94.366l38.423-22.183V27.817
		L50,5.633L11.577,27.817V72.184z"/>
</g>
</svg>
