<?xml version="1.0" encoding="utf-8"?>
<!-- Generator: Adobe Illustrator 16.0.0, SVG Export Plug-In . SVG Version: 6.00 Build 0)  -->
<!DOCTYPE svg PUBLIC "-//W3C//DTD SVG 1.1//EN" "http://www.w3.org/Graphics/SVG/1.1/DTD/svg11.dtd">
<svg version="1.1" id="Layer_1" xmlns:sketch="http://www.bohemiancoding.com/sketch/ns"
	 xmlns="http://www.w3.org/2000/svg" xmlns:xlink="http://www.w3.org/1999/xlink" x="0px" y="0px" width="100px" height="100px"
	 viewBox="0 0 100 100" enable-background="new 0 0 100 100" xml:space="preserve">
<title>Artboard 2</title>
<desc>Created with Sketch.</desc>
<g sketch:type="MSPage">
	<g sketch:type="MSArtboardGroup">
		<path sketch:type="MSShapeGroup" d="M56.394,41.645l-0.919-0.396v25.468l-0.001,27.066c0,2.053-1.663,3.717-3.716,3.717
			s-3.716-1.665-3.716-3.717V66.717h-0.743v27.066c0,2.053-1.664,3.717-3.717,3.717c-2.052,0-3.716-1.665-3.716-3.717V64.147V29.1
			L37.429,5.921c-0.178-1.701,1.055-3.225,2.757-3.403c1.701-0.178,3.225,1.055,3.403,2.756l2.493,23.713
			c5.379,0.617,12.526,1.534,14.051,2.211c0.012,0.005,0.021,0.01,0.031,0.015c1.388,0.308,2.424,1.545,2.424,3.023V58.48
			c0,1.71-1.387,3.097-3.097,3.097c-1.711,0-3.098-1.388-3.098-3.097V41.645z M53,27.14c3.763,0,6.812-3.05,6.812-6.813
			c0-3.763-3.05-6.813-6.812-6.813c-3.763,0-6.814,3.05-6.814,6.813C46.186,24.089,49.237,27.14,53,27.14z"/>
	</g>
</g>
</svg>
