<?xml version="1.0" encoding="utf-8"?>
<!-- Generator: Adobe Illustrator 16.0.0, SVG Export Plug-In . SVG Version: 6.00 Build 0)  -->
<!DOCTYPE svg PUBLIC "-//W3C//DTD SVG 1.1//EN" "http://www.w3.org/Graphics/SVG/1.1/DTD/svg11.dtd">
<svg version="1.1" id="Layer_1" xmlns="http://www.w3.org/2000/svg" xmlns:xlink="http://www.w3.org/1999/xlink" x="0px" y="0px"
	 width="100px" height="100px" viewBox="0 0 100 100" enable-background="new 0 0 100 100" xml:space="preserve">
<g>
	<path d="M84.766,53.047l-9.769-27.218c-1.992-5.88-21.433-5.88-23.33,0l-9.768,27.218c-1.992,3.889,1.991,5.879,3.888,1.992
		l9.769-21.433c-3.889,11.665-5.88,19.441-3.889,60.314c0,3.889,5.881,3.889,5.881,0l5.88-33.096V93.92c0,3.889,5.88,3.889,5.88,0
		c7.775-40.873,5.879-48.649,1.99-60.314l9.769,21.433C82.868,58.926,86.756,56.936,84.766,53.047z M63.428,2.5
		c-4.363,0-7.777,3.414-7.777,7.776c0,4.363,3.414,7.777,7.777,7.777c4.361,0,7.775-3.414,7.775-7.777
		C71.203,5.914,67.789,2.5,63.428,2.5z"/>
</g>
<path d="M28.432,58.926c3.225,0,5.88-2.654,5.88-5.879s-2.656-5.88-5.88-5.88c-3.224,0-5.88,2.656-5.88,5.88
	S25.208,58.926,28.432,58.926z"/>
<path d="M41.994,53.047l-5.879,5.879c-1.992,1.992-13.657,1.992-15.553,5.879l-5.879,11.666l3.888,1.992l3.888-7.777
	c0,9.768-1.991,13.656-3.888,25.32c0,1.992,5.88,1.992,5.88,0l3.889-13.654h1.991v13.654c0,1.992,5.88,1.992,5.88,0
	c0-11.664,0-19.439,0-27.217l7.776-11.664L41.994,53.047z"/>
</svg>
