<?xml version="1.0" encoding="utf-8"?>
<!-- Generator: Adobe Illustrator 16.0.0, SVG Export Plug-In . SVG Version: 6.00 Build 0)  -->
<!DOCTYPE svg PUBLIC "-//W3C//DTD SVG 1.1//EN" "http://www.w3.org/Graphics/SVG/1.1/DTD/svg11.dtd">
<svg version="1.1" id="Layer_1" xmlns="http://www.w3.org/2000/svg" xmlns:xlink="http://www.w3.org/1999/xlink" x="0px" y="0px"
	 width="100px" height="100px" viewBox="0 0 100 100" enable-background="new 0 0 100 100" xml:space="preserve">
<path fill="#231F20" d="M74.559,59.29c6.561-6.56,10.172-15.282,10.172-24.559c0-9.277-3.611-17.999-10.172-24.559
	C68,3.613,59.277,0,50,0c-9.277,0-17.999,3.613-24.56,10.172c-6.56,6.56-10.172,15.282-10.172,24.559
	c0,9.277,3.612,18,10.172,24.559c5.376,5.375,12.203,8.77,19.598,9.82v8.071H34.731c-2.739,0-4.961,2.221-4.961,4.961
	s2.222,4.962,4.961,4.962h10.308v7.935c0,2.74,2.222,4.961,4.962,4.961c2.74,0,4.96-2.221,4.96-4.961v-7.935H65.27
	c2.74,0,4.961-2.222,4.961-4.962s-2.221-4.961-4.961-4.961H54.961V69.11C62.355,68.06,69.184,64.665,74.559,59.29z M25.192,34.731
	C25.192,21.052,36.321,9.923,50,9.923c13.679,0,24.808,11.129,24.808,24.808C74.809,48.41,63.68,59.539,50,59.539l0,0
	c-6.627,0-12.857-2.58-17.543-7.266C27.773,47.588,25.192,41.358,25.192,34.731z"/>
</svg>
