<?xml version="1.0" encoding="utf-8"?>
<!-- Generator: Adobe Illustrator 16.0.0, SVG Export Plug-In . SVG Version: 6.00 Build 0)  -->
<!DOCTYPE svg PUBLIC "-//W3C//DTD SVG 1.1//EN" "http://www.w3.org/Graphics/SVG/1.1/DTD/svg11.dtd">
<svg version="1.1" id="Layer_1" xmlns="http://www.w3.org/2000/svg" xmlns:xlink="http://www.w3.org/1999/xlink" x="0px" y="0px"
	 width="100px" height="100px" viewBox="0 0 100 100" enable-background="new 0 0 100 100" xml:space="preserve">
<g>
	<path fill="#010101" d="M33.92,44.476c0,0,14.321,4.659,29.395-5.893c0,0,0.756-2.88-5.275-2.88H29.397l-9.044-1.663l0.753,5.199
		L33.92,44.476z"/>
	<path fill="#010101" d="M82.415,48.959c-1.164,0-2.297,0.119-3.397,0.333l-0.956-3.653l1.838-0.298l-0.116-0.581
		c5.117-1.134,7.382,1.13,8.029,2.83c0.001,0.003,6.03,0.684,6.03-0.824c0,0-4.981-7.306-14.919-6.366l-2.039-10.358h-2.457
		c0.021-0.484,2.457-11.987,2.457-11.987l-3.016,0.754l-2.105,11.233h-4.68l1.25,6.987L41.458,50.467L38.75,64.003h-5.07
		l2.264-6.792h2.841l1.918-7.857l-5.754,3.465c-1.276,0.853-1.419,1.811-1.186,2.615l-2.217,6.245
		c-0.79-6.318-6.17-11.209-12.702-11.209c-6.837,0-12.407,5.357-12.779,12.104c1.299-1.131,2.78-2.049,4.403-2.699
		c1.347-3.305,4.588-5.637,8.375-5.637c4.995,0,9.046,4.05,9.046,9.045c0,0.268-0.019,0.531-0.04,0.792
		c0.724,0.83,1.347,1.744,1.882,2.714c0,0,2.327-0.634,2.304-0.521h2.402l-5.395,1.538l0.456,1.5
		c-2.436-5.329-7.802-9.04-14.045-9.04C6.919,60.266,0,67.187,0,75.719c0,8.535,6.919,15.452,15.453,15.452
		c8.531,0,15.452-6.917,15.452-15.452c0-1.449-0.216-2.846-0.589-4.176l9.304-2.231v-3.044v-0.961l6.36-1.271l1.507-9.8
		l21.957-10.979l0.656,3.669l4.82-0.779l1.038,4.052c-6.518,2.576-11.135,8.919-11.135,16.35c0,9.714,7.875,17.587,17.591,17.587
		c9.711,0,17.585-7.873,17.585-17.587S92.126,48.959,82.415,48.959z M15.453,87.402C9,87.402,3.768,82.171,3.768,75.719
		c0-6.451,5.232-11.682,11.685-11.682c6.45,0,11.683,5.23,11.683,11.682C27.136,82.171,21.906,87.402,15.453,87.402z M35.805,53.483
		c0.625,0,1.131,0.506,1.131,1.13c0,0.625-0.506,1.131-1.131,1.131c-0.624,0-1.13-0.506-1.13-1.131
		C34.675,53.989,35.181,53.483,35.805,53.483z M82.696,80.18c-7.372,0-13.349-5.977-13.349-13.347c0-5.378,3.184-10,7.765-12.114
		l2.73,10.671c-0.433,0.568-0.697,1.271-0.697,2.04c0,1.689,1.243,3.083,2.864,3.337l-0.523-2.536l2.098-0.434l0.541,2.612
		c1.07-0.572,1.805-1.684,1.805-2.979c0-1.754-1.335-3.18-3.042-3.357l-2.709-10.345c0.815-0.156,1.654-0.244,2.515-0.244
		c7.373,0,13.349,5.975,13.349,13.35C96.042,74.203,90.066,80.18,82.696,80.18z"/>
	
		<rect x="80.284" y="70.939" transform="matrix(-0.2021 -0.9794 0.9794 -0.2021 29.9188 167.76)" fill="#010101" width="6.032" height="1.507"/>
	
		<rect x="83.224" y="73.386" transform="matrix(0.2021 0.9794 -0.9794 0.2021 142.8021 -21.7211)" fill="#010101" width="3.015" height="6.785"/>
	<path fill="#010101" d="M33.92,44.759h-0.754c0,0,3.768,3.984,8.292,3.984l8.29-3.876C49.748,44.867,39.95,49.287,33.92,44.759z"/>
	<path fill="#010101" d="M67.842,11.272c1.506,0,3.2,1.131,3.2,1.131l0.083-0.076l0.489,2.075c-1.913,0.688-2.267,1.393-2.267,1.393
		c-2.264,2.262,1.507,3.77,1.507,3.77c2.726-3.105,6.123-1.973,6.123-1.973v-5.566c-1.237-2.883-2.879-2.567-4.114-1.692
		c-1.298-0.927-4.089-2.587-5.038-0.487C67.775,9.958,67.626,11.272,67.842,11.272z"/>
	<circle fill="#010101" cx="15.282" cy="75.889" r="3.961"/>
</g>
</svg>
